%TF.GenerationSoftware,KiCad,Pcbnew,(5.1.9-0-10_14)*%
%TF.CreationDate,2021-03-07T16:31:49+01:00*%
%TF.ProjectId,W-Output HP,572d4f75-7470-4757-9420-48502e6b6963,1*%
%TF.SameCoordinates,Original*%
%TF.FileFunction,Legend,Bot*%
%TF.FilePolarity,Positive*%
%FSLAX46Y46*%
G04 Gerber Fmt 4.6, Leading zero omitted, Abs format (unit mm)*
G04 Created by KiCad (PCBNEW (5.1.9-0-10_14)) date 2021-03-07 16:31:49*
%MOMM*%
%LPD*%
G01*
G04 APERTURE LIST*
%ADD10C,0.150000*%
%ADD11C,0.120000*%
G04 APERTURE END LIST*
D10*
X154904761Y-81292380D02*
X154666666Y-82292380D01*
X154476190Y-81578095D01*
X154285714Y-82292380D01*
X154047619Y-81292380D01*
X153666666Y-81911428D02*
X152904761Y-81911428D01*
X152238095Y-81292380D02*
X152047619Y-81292380D01*
X151952380Y-81340000D01*
X151857142Y-81435238D01*
X151809523Y-81625714D01*
X151809523Y-81959047D01*
X151857142Y-82149523D01*
X151952380Y-82244761D01*
X152047619Y-82292380D01*
X152238095Y-82292380D01*
X152333333Y-82244761D01*
X152428571Y-82149523D01*
X152476190Y-81959047D01*
X152476190Y-81625714D01*
X152428571Y-81435238D01*
X152333333Y-81340000D01*
X152238095Y-81292380D01*
X150952380Y-81625714D02*
X150952380Y-82292380D01*
X151380952Y-81625714D02*
X151380952Y-82149523D01*
X151333333Y-82244761D01*
X151238095Y-82292380D01*
X151095238Y-82292380D01*
X151000000Y-82244761D01*
X150952380Y-82197142D01*
X150619047Y-81625714D02*
X150238095Y-81625714D01*
X150476190Y-81292380D02*
X150476190Y-82149523D01*
X150428571Y-82244761D01*
X150333333Y-82292380D01*
X150238095Y-82292380D01*
X149904761Y-81625714D02*
X149904761Y-82625714D01*
X149904761Y-81673333D02*
X149809523Y-81625714D01*
X149619047Y-81625714D01*
X149523809Y-81673333D01*
X149476190Y-81720952D01*
X149428571Y-81816190D01*
X149428571Y-82101904D01*
X149476190Y-82197142D01*
X149523809Y-82244761D01*
X149619047Y-82292380D01*
X149809523Y-82292380D01*
X149904761Y-82244761D01*
X148571428Y-81625714D02*
X148571428Y-82292380D01*
X149000000Y-81625714D02*
X149000000Y-82149523D01*
X148952380Y-82244761D01*
X148857142Y-82292380D01*
X148714285Y-82292380D01*
X148619047Y-82244761D01*
X148571428Y-82197142D01*
X148238095Y-81625714D02*
X147857142Y-81625714D01*
X148095238Y-81292380D02*
X148095238Y-82149523D01*
X148047619Y-82244761D01*
X147952380Y-82292380D01*
X147857142Y-82292380D01*
X146761904Y-82292380D02*
X146761904Y-81292380D01*
X146761904Y-81768571D02*
X146190476Y-81768571D01*
X146190476Y-82292380D02*
X146190476Y-81292380D01*
X145714285Y-82292380D02*
X145714285Y-81292380D01*
X145333333Y-81292380D01*
X145238095Y-81340000D01*
X145190476Y-81387619D01*
X145142857Y-81482857D01*
X145142857Y-81625714D01*
X145190476Y-81720952D01*
X145238095Y-81768571D01*
X145333333Y-81816190D01*
X145714285Y-81816190D01*
X157261904Y-83942380D02*
X157595238Y-83466190D01*
X157833333Y-83942380D02*
X157833333Y-82942380D01*
X157452380Y-82942380D01*
X157357142Y-82990000D01*
X157309523Y-83037619D01*
X157261904Y-83132857D01*
X157261904Y-83275714D01*
X157309523Y-83370952D01*
X157357142Y-83418571D01*
X157452380Y-83466190D01*
X157833333Y-83466190D01*
X156452380Y-83894761D02*
X156547619Y-83942380D01*
X156738095Y-83942380D01*
X156833333Y-83894761D01*
X156880952Y-83799523D01*
X156880952Y-83418571D01*
X156833333Y-83323333D01*
X156738095Y-83275714D01*
X156547619Y-83275714D01*
X156452380Y-83323333D01*
X156404761Y-83418571D01*
X156404761Y-83513809D01*
X156880952Y-83609047D01*
X156071428Y-83275714D02*
X155833333Y-83942380D01*
X155595238Y-83275714D01*
X155214285Y-83847142D02*
X155166666Y-83894761D01*
X155214285Y-83942380D01*
X155261904Y-83894761D01*
X155214285Y-83847142D01*
X155214285Y-83942380D01*
X153452380Y-83942380D02*
X154023809Y-83942380D01*
X153738095Y-83942380D02*
X153738095Y-82942380D01*
X153833333Y-83085238D01*
X153928571Y-83180476D01*
X154023809Y-83228095D01*
X152976190Y-83894761D02*
X152976190Y-83942380D01*
X153023809Y-84037619D01*
X153071428Y-84085238D01*
X151833333Y-83037619D02*
X151785714Y-82990000D01*
X151690476Y-82942380D01*
X151452380Y-82942380D01*
X151357142Y-82990000D01*
X151309523Y-83037619D01*
X151261904Y-83132857D01*
X151261904Y-83228095D01*
X151309523Y-83370952D01*
X151880952Y-83942380D01*
X151261904Y-83942380D01*
X150642857Y-82942380D02*
X150547619Y-82942380D01*
X150452380Y-82990000D01*
X150404761Y-83037619D01*
X150357142Y-83132857D01*
X150309523Y-83323333D01*
X150309523Y-83561428D01*
X150357142Y-83751904D01*
X150404761Y-83847142D01*
X150452380Y-83894761D01*
X150547619Y-83942380D01*
X150642857Y-83942380D01*
X150738095Y-83894761D01*
X150785714Y-83847142D01*
X150833333Y-83751904D01*
X150880952Y-83561428D01*
X150880952Y-83323333D01*
X150833333Y-83132857D01*
X150785714Y-83037619D01*
X150738095Y-82990000D01*
X150642857Y-82942380D01*
X149928571Y-83037619D02*
X149880952Y-82990000D01*
X149785714Y-82942380D01*
X149547619Y-82942380D01*
X149452380Y-82990000D01*
X149404761Y-83037619D01*
X149357142Y-83132857D01*
X149357142Y-83228095D01*
X149404761Y-83370952D01*
X149976190Y-83942380D01*
X149357142Y-83942380D01*
X148404761Y-83942380D02*
X148976190Y-83942380D01*
X148690476Y-83942380D02*
X148690476Y-82942380D01*
X148785714Y-83085238D01*
X148880952Y-83180476D01*
X148976190Y-83228095D01*
X147976190Y-83561428D02*
X147214285Y-83561428D01*
X146547619Y-82942380D02*
X146452380Y-82942380D01*
X146357142Y-82990000D01*
X146309523Y-83037619D01*
X146261904Y-83132857D01*
X146214285Y-83323333D01*
X146214285Y-83561428D01*
X146261904Y-83751904D01*
X146309523Y-83847142D01*
X146357142Y-83894761D01*
X146452380Y-83942380D01*
X146547619Y-83942380D01*
X146642857Y-83894761D01*
X146690476Y-83847142D01*
X146738095Y-83751904D01*
X146785714Y-83561428D01*
X146785714Y-83323333D01*
X146738095Y-83132857D01*
X146690476Y-83037619D01*
X146642857Y-82990000D01*
X146547619Y-82942380D01*
X145880952Y-82942380D02*
X145261904Y-82942380D01*
X145595238Y-83323333D01*
X145452380Y-83323333D01*
X145357142Y-83370952D01*
X145309523Y-83418571D01*
X145261904Y-83513809D01*
X145261904Y-83751904D01*
X145309523Y-83847142D01*
X145357142Y-83894761D01*
X145452380Y-83942380D01*
X145738095Y-83942380D01*
X145833333Y-83894761D01*
X145880952Y-83847142D01*
X144833333Y-83561428D02*
X144071428Y-83561428D01*
X143404761Y-82942380D02*
X143309523Y-82942380D01*
X143214285Y-82990000D01*
X143166666Y-83037619D01*
X143119047Y-83132857D01*
X143071428Y-83323333D01*
X143071428Y-83561428D01*
X143119047Y-83751904D01*
X143166666Y-83847142D01*
X143214285Y-83894761D01*
X143309523Y-83942380D01*
X143404761Y-83942380D01*
X143500000Y-83894761D01*
X143547619Y-83847142D01*
X143595238Y-83751904D01*
X143642857Y-83561428D01*
X143642857Y-83323333D01*
X143595238Y-83132857D01*
X143547619Y-83037619D01*
X143500000Y-82990000D01*
X143404761Y-82942380D01*
X142214285Y-82942380D02*
X142404761Y-82942380D01*
X142500000Y-82990000D01*
X142547619Y-83037619D01*
X142642857Y-83180476D01*
X142690476Y-83370952D01*
X142690476Y-83751904D01*
X142642857Y-83847142D01*
X142595238Y-83894761D01*
X142500000Y-83942380D01*
X142309523Y-83942380D01*
X142214285Y-83894761D01*
X142166666Y-83847142D01*
X142119047Y-83751904D01*
X142119047Y-83513809D01*
X142166666Y-83418571D01*
X142214285Y-83370952D01*
X142309523Y-83323333D01*
X142500000Y-83323333D01*
X142595238Y-83370952D01*
X142642857Y-83418571D01*
X142690476Y-83513809D01*
X159166666Y-84592380D02*
X158595238Y-84592380D01*
X158880952Y-85592380D02*
X158880952Y-84592380D01*
X158119047Y-85592380D02*
X158214285Y-85544761D01*
X158261904Y-85497142D01*
X158309523Y-85401904D01*
X158309523Y-85116190D01*
X158261904Y-85020952D01*
X158214285Y-84973333D01*
X158119047Y-84925714D01*
X157976190Y-84925714D01*
X157880952Y-84973333D01*
X157833333Y-85020952D01*
X157785714Y-85116190D01*
X157785714Y-85401904D01*
X157833333Y-85497142D01*
X157880952Y-85544761D01*
X157976190Y-85592380D01*
X158119047Y-85592380D01*
X157357142Y-85592380D02*
X157357142Y-84592380D01*
X157357142Y-84973333D02*
X157261904Y-84925714D01*
X157071428Y-84925714D01*
X156976190Y-84973333D01*
X156928571Y-85020952D01*
X156880952Y-85116190D01*
X156880952Y-85401904D01*
X156928571Y-85497142D01*
X156976190Y-85544761D01*
X157071428Y-85592380D01*
X157261904Y-85592380D01*
X157357142Y-85544761D01*
X156452380Y-85592380D02*
X156452380Y-84925714D01*
X156452380Y-84592380D02*
X156500000Y-84640000D01*
X156452380Y-84687619D01*
X156404761Y-84640000D01*
X156452380Y-84592380D01*
X156452380Y-84687619D01*
X155547619Y-85592380D02*
X155547619Y-85068571D01*
X155595238Y-84973333D01*
X155690476Y-84925714D01*
X155880952Y-84925714D01*
X155976190Y-84973333D01*
X155547619Y-85544761D02*
X155642857Y-85592380D01*
X155880952Y-85592380D01*
X155976190Y-85544761D01*
X156023809Y-85449523D01*
X156023809Y-85354285D01*
X155976190Y-85259047D01*
X155880952Y-85211428D01*
X155642857Y-85211428D01*
X155547619Y-85163809D01*
X155119047Y-85544761D02*
X155023809Y-85592380D01*
X154833333Y-85592380D01*
X154738095Y-85544761D01*
X154690476Y-85449523D01*
X154690476Y-85401904D01*
X154738095Y-85306666D01*
X154833333Y-85259047D01*
X154976190Y-85259047D01*
X155071428Y-85211428D01*
X155119047Y-85116190D01*
X155119047Y-85068571D01*
X155071428Y-84973333D01*
X154976190Y-84925714D01*
X154833333Y-84925714D01*
X154738095Y-84973333D01*
X153500000Y-85592380D02*
X153500000Y-84592380D01*
X153166666Y-85306666D01*
X152833333Y-84592380D01*
X152833333Y-85592380D01*
X151928571Y-84925714D02*
X151928571Y-85592380D01*
X152357142Y-84925714D02*
X152357142Y-85449523D01*
X152309523Y-85544761D01*
X152214285Y-85592380D01*
X152071428Y-85592380D01*
X151976190Y-85544761D01*
X151928571Y-85497142D01*
X152309523Y-84592380D02*
X152261904Y-84640000D01*
X152309523Y-84687619D01*
X152357142Y-84640000D01*
X152309523Y-84592380D01*
X152309523Y-84687619D01*
X151928571Y-84592380D02*
X151880952Y-84640000D01*
X151928571Y-84687619D01*
X151976190Y-84640000D01*
X151928571Y-84592380D01*
X151928571Y-84687619D01*
X151309523Y-85592380D02*
X151404761Y-85544761D01*
X151452380Y-85449523D01*
X151452380Y-84592380D01*
X150785714Y-85592380D02*
X150880952Y-85544761D01*
X150928571Y-85449523D01*
X150928571Y-84592380D01*
X150023809Y-85544761D02*
X150119047Y-85592380D01*
X150309523Y-85592380D01*
X150404761Y-85544761D01*
X150452380Y-85449523D01*
X150452380Y-85068571D01*
X150404761Y-84973333D01*
X150309523Y-84925714D01*
X150119047Y-84925714D01*
X150023809Y-84973333D01*
X149976190Y-85068571D01*
X149976190Y-85163809D01*
X150452380Y-85259047D01*
X149547619Y-85592380D02*
X149547619Y-84925714D01*
X149547619Y-85116190D02*
X149500000Y-85020952D01*
X149452380Y-84973333D01*
X149357142Y-84925714D01*
X149261904Y-84925714D01*
X148880952Y-85544761D02*
X148880952Y-85592380D01*
X148928571Y-85687619D01*
X148976190Y-85735238D01*
X147833333Y-84925714D02*
X147452380Y-84925714D01*
X147690476Y-84592380D02*
X147690476Y-85449523D01*
X147642857Y-85544761D01*
X147547619Y-85592380D01*
X147452380Y-85592380D01*
X147214285Y-84925714D02*
X147023809Y-85592380D01*
X146833333Y-85116190D01*
X146642857Y-85592380D01*
X146452380Y-84925714D01*
X145642857Y-85592380D02*
X145642857Y-85068571D01*
X145690476Y-84973333D01*
X145785714Y-84925714D01*
X145976190Y-84925714D01*
X146071428Y-84973333D01*
X145642857Y-85544761D02*
X145738095Y-85592380D01*
X145976190Y-85592380D01*
X146071428Y-85544761D01*
X146119047Y-85449523D01*
X146119047Y-85354285D01*
X146071428Y-85259047D01*
X145976190Y-85211428D01*
X145738095Y-85211428D01*
X145642857Y-85163809D01*
X145166666Y-85592380D02*
X145166666Y-84925714D01*
X145166666Y-85020952D02*
X145119047Y-84973333D01*
X145023809Y-84925714D01*
X144880952Y-84925714D01*
X144785714Y-84973333D01*
X144738095Y-85068571D01*
X144738095Y-85592380D01*
X144738095Y-85068571D02*
X144690476Y-84973333D01*
X144595238Y-84925714D01*
X144452380Y-84925714D01*
X144357142Y-84973333D01*
X144309523Y-85068571D01*
X144309523Y-85592380D01*
X143833333Y-85497142D02*
X143785714Y-85544761D01*
X143833333Y-85592380D01*
X143880952Y-85544761D01*
X143833333Y-85497142D01*
X143833333Y-85592380D01*
X143357142Y-85592380D02*
X143357142Y-84925714D01*
X143357142Y-84592380D02*
X143404761Y-84640000D01*
X143357142Y-84687619D01*
X143309523Y-84640000D01*
X143357142Y-84592380D01*
X143357142Y-84687619D01*
X142880952Y-84925714D02*
X142880952Y-85592380D01*
X142880952Y-85020952D02*
X142833333Y-84973333D01*
X142738095Y-84925714D01*
X142595238Y-84925714D01*
X142500000Y-84973333D01*
X142452380Y-85068571D01*
X142452380Y-85592380D01*
X142119047Y-84925714D02*
X141738095Y-84925714D01*
X141976190Y-85592380D02*
X141976190Y-84735238D01*
X141928571Y-84640000D01*
X141833333Y-84592380D01*
X141738095Y-84592380D01*
X141261904Y-85592380D02*
X141357142Y-85544761D01*
X141404761Y-85497142D01*
X141452380Y-85401904D01*
X141452380Y-85116190D01*
X141404761Y-85020952D01*
X141357142Y-84973333D01*
X141261904Y-84925714D01*
X141119047Y-84925714D01*
X141023809Y-84973333D01*
X140976190Y-85020952D01*
X140928571Y-85116190D01*
X140928571Y-85401904D01*
X140976190Y-85497142D01*
X141023809Y-85544761D01*
X141119047Y-85592380D01*
X141261904Y-85592380D01*
D11*
%TO.C,J2*%
X127200000Y-93670000D02*
X125870000Y-93670000D01*
X125870000Y-93670000D02*
X125870000Y-95000000D01*
X125870000Y-96270000D02*
X125870000Y-114110000D01*
X128530000Y-114110000D02*
X125870000Y-114110000D01*
X128530000Y-96270000D02*
X128530000Y-114110000D01*
X128530000Y-96270000D02*
X125870000Y-96270000D01*
%TO.C,J1*%
X172560000Y-88590000D02*
X171230000Y-88590000D01*
X171230000Y-88590000D02*
X171230000Y-89920000D01*
X171230000Y-91190000D02*
X171230000Y-114110000D01*
X173890000Y-114110000D02*
X171230000Y-114110000D01*
X173890000Y-91190000D02*
X173890000Y-114110000D01*
X173890000Y-91190000D02*
X171230000Y-91190000D01*
%TO.C,U5*%
X166950000Y-91970000D02*
X166950000Y-90870000D01*
X167900000Y-91970000D02*
X166950000Y-91970000D01*
X167900000Y-93470000D02*
X167900000Y-91970000D01*
X158450000Y-91970000D02*
X158450000Y-86845000D01*
X157500000Y-91970000D02*
X158450000Y-91970000D01*
X157500000Y-93470000D02*
X157500000Y-91970000D01*
%TO.C,U4*%
X141550000Y-91970000D02*
X141550000Y-90870000D01*
X142500000Y-91970000D02*
X141550000Y-91970000D01*
X142500000Y-93470000D02*
X142500000Y-91970000D01*
X133050000Y-91970000D02*
X133050000Y-86845000D01*
X132100000Y-91970000D02*
X133050000Y-91970000D01*
X132100000Y-93470000D02*
X132100000Y-91970000D01*
%TD*%
M02*
