%TF.GenerationSoftware,KiCad,Pcbnew,(5.1.9-0-10_14)*%
%TF.CreationDate,2021-03-07T16:31:49+01:00*%
%TF.ProjectId,W-Output HP,572d4f75-7470-4757-9420-48502e6b6963,1*%
%TF.SameCoordinates,Original*%
%TF.FileFunction,Paste,Top*%
%TF.FilePolarity,Positive*%
%FSLAX46Y46*%
G04 Gerber Fmt 4.6, Leading zero omitted, Abs format (unit mm)*
G04 Created by KiCad (PCBNEW (5.1.9-0-10_14)) date 2021-03-07 16:31:49*
%MOMM*%
%LPD*%
G01*
G04 APERTURE LIST*
%ADD10R,0.800000X1.800000*%
%ADD11R,0.900000X0.800000*%
%ADD12R,0.800000X0.900000*%
%ADD13R,1.700000X1.300000*%
%ADD14R,0.900000X1.200000*%
%ADD15R,1.300000X1.700000*%
G04 APERTURE END LIST*
%TO.C,R15*%
G36*
G01*
X132812500Y-88780000D02*
X132262500Y-88780000D01*
G75*
G02*
X132062500Y-88580000I0J200000D01*
G01*
X132062500Y-88180000D01*
G75*
G02*
X132262500Y-87980000I200000J0D01*
G01*
X132812500Y-87980000D01*
G75*
G02*
X133012500Y-88180000I0J-200000D01*
G01*
X133012500Y-88580000D01*
G75*
G02*
X132812500Y-88780000I-200000J0D01*
G01*
G37*
G36*
G01*
X132812500Y-90430000D02*
X132262500Y-90430000D01*
G75*
G02*
X132062500Y-90230000I0J200000D01*
G01*
X132062500Y-89830000D01*
G75*
G02*
X132262500Y-89630000I200000J0D01*
G01*
X132812500Y-89630000D01*
G75*
G02*
X133012500Y-89830000I0J-200000D01*
G01*
X133012500Y-90230000D01*
G75*
G02*
X132812500Y-90430000I-200000J0D01*
G01*
G37*
%TD*%
%TO.C,R14*%
G36*
G01*
X154170000Y-84232500D02*
X154720000Y-84232500D01*
G75*
G02*
X154920000Y-84432500I0J-200000D01*
G01*
X154920000Y-84832500D01*
G75*
G02*
X154720000Y-85032500I-200000J0D01*
G01*
X154170000Y-85032500D01*
G75*
G02*
X153970000Y-84832500I0J200000D01*
G01*
X153970000Y-84432500D01*
G75*
G02*
X154170000Y-84232500I200000J0D01*
G01*
G37*
G36*
G01*
X154170000Y-82582500D02*
X154720000Y-82582500D01*
G75*
G02*
X154920000Y-82782500I0J-200000D01*
G01*
X154920000Y-83182500D01*
G75*
G02*
X154720000Y-83382500I-200000J0D01*
G01*
X154170000Y-83382500D01*
G75*
G02*
X153970000Y-83182500I0J200000D01*
G01*
X153970000Y-82782500D01*
G75*
G02*
X154170000Y-82582500I200000J0D01*
G01*
G37*
%TD*%
%TO.C,C5*%
G36*
G01*
X154512500Y-87307500D02*
X155012500Y-87307500D01*
G75*
G02*
X155237500Y-87532500I0J-225000D01*
G01*
X155237500Y-87982500D01*
G75*
G02*
X155012500Y-88207500I-225000J0D01*
G01*
X154512500Y-88207500D01*
G75*
G02*
X154287500Y-87982500I0J225000D01*
G01*
X154287500Y-87532500D01*
G75*
G02*
X154512500Y-87307500I225000J0D01*
G01*
G37*
G36*
G01*
X154512500Y-85757500D02*
X155012500Y-85757500D01*
G75*
G02*
X155237500Y-85982500I0J-225000D01*
G01*
X155237500Y-86432500D01*
G75*
G02*
X155012500Y-86657500I-225000J0D01*
G01*
X154512500Y-86657500D01*
G75*
G02*
X154287500Y-86432500I0J225000D01*
G01*
X154287500Y-85982500D01*
G75*
G02*
X154512500Y-85757500I225000J0D01*
G01*
G37*
%TD*%
%TO.C,C4*%
G36*
G01*
X154512500Y-90482500D02*
X155012500Y-90482500D01*
G75*
G02*
X155237500Y-90707500I0J-225000D01*
G01*
X155237500Y-91157500D01*
G75*
G02*
X155012500Y-91382500I-225000J0D01*
G01*
X154512500Y-91382500D01*
G75*
G02*
X154287500Y-91157500I0J225000D01*
G01*
X154287500Y-90707500D01*
G75*
G02*
X154512500Y-90482500I225000J0D01*
G01*
G37*
G36*
G01*
X154512500Y-88932500D02*
X155012500Y-88932500D01*
G75*
G02*
X155237500Y-89157500I0J-225000D01*
G01*
X155237500Y-89607500D01*
G75*
G02*
X155012500Y-89832500I-225000J0D01*
G01*
X154512500Y-89832500D01*
G75*
G02*
X154287500Y-89607500I0J225000D01*
G01*
X154287500Y-89157500D01*
G75*
G02*
X154512500Y-88932500I225000J0D01*
G01*
G37*
%TD*%
%TO.C,C17*%
G36*
G01*
X144987500Y-90482500D02*
X145487500Y-90482500D01*
G75*
G02*
X145712500Y-90707500I0J-225000D01*
G01*
X145712500Y-91157500D01*
G75*
G02*
X145487500Y-91382500I-225000J0D01*
G01*
X144987500Y-91382500D01*
G75*
G02*
X144762500Y-91157500I0J225000D01*
G01*
X144762500Y-90707500D01*
G75*
G02*
X144987500Y-90482500I225000J0D01*
G01*
G37*
G36*
G01*
X144987500Y-88932500D02*
X145487500Y-88932500D01*
G75*
G02*
X145712500Y-89157500I0J-225000D01*
G01*
X145712500Y-89607500D01*
G75*
G02*
X145487500Y-89832500I-225000J0D01*
G01*
X144987500Y-89832500D01*
G75*
G02*
X144762500Y-89607500I0J225000D01*
G01*
X144762500Y-89157500D01*
G75*
G02*
X144987500Y-88932500I225000J0D01*
G01*
G37*
%TD*%
%TO.C,C18*%
G36*
G01*
X144987500Y-87307500D02*
X145487500Y-87307500D01*
G75*
G02*
X145712500Y-87532500I0J-225000D01*
G01*
X145712500Y-87982500D01*
G75*
G02*
X145487500Y-88207500I-225000J0D01*
G01*
X144987500Y-88207500D01*
G75*
G02*
X144762500Y-87982500I0J225000D01*
G01*
X144762500Y-87532500D01*
G75*
G02*
X144987500Y-87307500I225000J0D01*
G01*
G37*
G36*
G01*
X144987500Y-85757500D02*
X145487500Y-85757500D01*
G75*
G02*
X145712500Y-85982500I0J-225000D01*
G01*
X145712500Y-86432500D01*
G75*
G02*
X145487500Y-86657500I-225000J0D01*
G01*
X144987500Y-86657500D01*
G75*
G02*
X144762500Y-86432500I0J225000D01*
G01*
X144762500Y-85982500D01*
G75*
G02*
X144987500Y-85757500I225000J0D01*
G01*
G37*
%TD*%
%TO.C,C14*%
G36*
G01*
X151580000Y-84827500D02*
X151580000Y-85327500D01*
G75*
G02*
X151355000Y-85552500I-225000J0D01*
G01*
X150905000Y-85552500D01*
G75*
G02*
X150680000Y-85327500I0J225000D01*
G01*
X150680000Y-84827500D01*
G75*
G02*
X150905000Y-84602500I225000J0D01*
G01*
X151355000Y-84602500D01*
G75*
G02*
X151580000Y-84827500I0J-225000D01*
G01*
G37*
G36*
G01*
X153130000Y-84827500D02*
X153130000Y-85327500D01*
G75*
G02*
X152905000Y-85552500I-225000J0D01*
G01*
X152455000Y-85552500D01*
G75*
G02*
X152230000Y-85327500I0J225000D01*
G01*
X152230000Y-84827500D01*
G75*
G02*
X152455000Y-84602500I225000J0D01*
G01*
X152905000Y-84602500D01*
G75*
G02*
X153130000Y-84827500I0J-225000D01*
G01*
G37*
%TD*%
%TO.C,C11*%
G36*
G01*
X147770000Y-92447500D02*
X147770000Y-92947500D01*
G75*
G02*
X147545000Y-93172500I-225000J0D01*
G01*
X147095000Y-93172500D01*
G75*
G02*
X146870000Y-92947500I0J225000D01*
G01*
X146870000Y-92447500D01*
G75*
G02*
X147095000Y-92222500I225000J0D01*
G01*
X147545000Y-92222500D01*
G75*
G02*
X147770000Y-92447500I0J-225000D01*
G01*
G37*
G36*
G01*
X149320000Y-92447500D02*
X149320000Y-92947500D01*
G75*
G02*
X149095000Y-93172500I-225000J0D01*
G01*
X148645000Y-93172500D01*
G75*
G02*
X148420000Y-92947500I0J225000D01*
G01*
X148420000Y-92447500D01*
G75*
G02*
X148645000Y-92222500I225000J0D01*
G01*
X149095000Y-92222500D01*
G75*
G02*
X149320000Y-92447500I0J-225000D01*
G01*
G37*
%TD*%
%TO.C,R32*%
G36*
G01*
X145280000Y-84232500D02*
X145830000Y-84232500D01*
G75*
G02*
X146030000Y-84432500I0J-200000D01*
G01*
X146030000Y-84832500D01*
G75*
G02*
X145830000Y-85032500I-200000J0D01*
G01*
X145280000Y-85032500D01*
G75*
G02*
X145080000Y-84832500I0J200000D01*
G01*
X145080000Y-84432500D01*
G75*
G02*
X145280000Y-84232500I200000J0D01*
G01*
G37*
G36*
G01*
X145280000Y-82582500D02*
X145830000Y-82582500D01*
G75*
G02*
X146030000Y-82782500I0J-200000D01*
G01*
X146030000Y-83182500D01*
G75*
G02*
X145830000Y-83382500I-200000J0D01*
G01*
X145280000Y-83382500D01*
G75*
G02*
X145080000Y-83182500I0J200000D01*
G01*
X145080000Y-82782500D01*
G75*
G02*
X145280000Y-82582500I200000J0D01*
G01*
G37*
%TD*%
%TO.C,U3*%
G36*
G01*
X148500000Y-90642500D02*
X148500000Y-90942500D01*
G75*
G02*
X148350000Y-91092500I-150000J0D01*
G01*
X146700000Y-91092500D01*
G75*
G02*
X146550000Y-90942500I0J150000D01*
G01*
X146550000Y-90642500D01*
G75*
G02*
X146700000Y-90492500I150000J0D01*
G01*
X148350000Y-90492500D01*
G75*
G02*
X148500000Y-90642500I0J-150000D01*
G01*
G37*
G36*
G01*
X148500000Y-89372500D02*
X148500000Y-89672500D01*
G75*
G02*
X148350000Y-89822500I-150000J0D01*
G01*
X146700000Y-89822500D01*
G75*
G02*
X146550000Y-89672500I0J150000D01*
G01*
X146550000Y-89372500D01*
G75*
G02*
X146700000Y-89222500I150000J0D01*
G01*
X148350000Y-89222500D01*
G75*
G02*
X148500000Y-89372500I0J-150000D01*
G01*
G37*
G36*
G01*
X148500000Y-88102500D02*
X148500000Y-88402500D01*
G75*
G02*
X148350000Y-88552500I-150000J0D01*
G01*
X146700000Y-88552500D01*
G75*
G02*
X146550000Y-88402500I0J150000D01*
G01*
X146550000Y-88102500D01*
G75*
G02*
X146700000Y-87952500I150000J0D01*
G01*
X148350000Y-87952500D01*
G75*
G02*
X148500000Y-88102500I0J-150000D01*
G01*
G37*
G36*
G01*
X148500000Y-86832500D02*
X148500000Y-87132500D01*
G75*
G02*
X148350000Y-87282500I-150000J0D01*
G01*
X146700000Y-87282500D01*
G75*
G02*
X146550000Y-87132500I0J150000D01*
G01*
X146550000Y-86832500D01*
G75*
G02*
X146700000Y-86682500I150000J0D01*
G01*
X148350000Y-86682500D01*
G75*
G02*
X148500000Y-86832500I0J-150000D01*
G01*
G37*
G36*
G01*
X153450000Y-86832500D02*
X153450000Y-87132500D01*
G75*
G02*
X153300000Y-87282500I-150000J0D01*
G01*
X151650000Y-87282500D01*
G75*
G02*
X151500000Y-87132500I0J150000D01*
G01*
X151500000Y-86832500D01*
G75*
G02*
X151650000Y-86682500I150000J0D01*
G01*
X153300000Y-86682500D01*
G75*
G02*
X153450000Y-86832500I0J-150000D01*
G01*
G37*
G36*
G01*
X153450000Y-88102500D02*
X153450000Y-88402500D01*
G75*
G02*
X153300000Y-88552500I-150000J0D01*
G01*
X151650000Y-88552500D01*
G75*
G02*
X151500000Y-88402500I0J150000D01*
G01*
X151500000Y-88102500D01*
G75*
G02*
X151650000Y-87952500I150000J0D01*
G01*
X153300000Y-87952500D01*
G75*
G02*
X153450000Y-88102500I0J-150000D01*
G01*
G37*
G36*
G01*
X153450000Y-89372500D02*
X153450000Y-89672500D01*
G75*
G02*
X153300000Y-89822500I-150000J0D01*
G01*
X151650000Y-89822500D01*
G75*
G02*
X151500000Y-89672500I0J150000D01*
G01*
X151500000Y-89372500D01*
G75*
G02*
X151650000Y-89222500I150000J0D01*
G01*
X153300000Y-89222500D01*
G75*
G02*
X153450000Y-89372500I0J-150000D01*
G01*
G37*
G36*
G01*
X153450000Y-90642500D02*
X153450000Y-90942500D01*
G75*
G02*
X153300000Y-91092500I-150000J0D01*
G01*
X151650000Y-91092500D01*
G75*
G02*
X151500000Y-90942500I0J150000D01*
G01*
X151500000Y-90642500D01*
G75*
G02*
X151650000Y-90492500I150000J0D01*
G01*
X153300000Y-90492500D01*
G75*
G02*
X153450000Y-90642500I0J-150000D01*
G01*
G37*
%TD*%
%TO.C,R27*%
G36*
G01*
X143440000Y-83130000D02*
X143440000Y-82580000D01*
G75*
G02*
X143640000Y-82380000I200000J0D01*
G01*
X144040000Y-82380000D01*
G75*
G02*
X144240000Y-82580000I0J-200000D01*
G01*
X144240000Y-83130000D01*
G75*
G02*
X144040000Y-83330000I-200000J0D01*
G01*
X143640000Y-83330000D01*
G75*
G02*
X143440000Y-83130000I0J200000D01*
G01*
G37*
G36*
G01*
X141790000Y-83130000D02*
X141790000Y-82580000D01*
G75*
G02*
X141990000Y-82380000I200000J0D01*
G01*
X142390000Y-82380000D01*
G75*
G02*
X142590000Y-82580000I0J-200000D01*
G01*
X142590000Y-83130000D01*
G75*
G02*
X142390000Y-83330000I-200000J0D01*
G01*
X141990000Y-83330000D01*
G75*
G02*
X141790000Y-83130000I0J200000D01*
G01*
G37*
%TD*%
%TO.C,R6*%
G36*
G01*
X161070000Y-79890000D02*
X160520000Y-79890000D01*
G75*
G02*
X160320000Y-79690000I0J200000D01*
G01*
X160320000Y-79290000D01*
G75*
G02*
X160520000Y-79090000I200000J0D01*
G01*
X161070000Y-79090000D01*
G75*
G02*
X161270000Y-79290000I0J-200000D01*
G01*
X161270000Y-79690000D01*
G75*
G02*
X161070000Y-79890000I-200000J0D01*
G01*
G37*
G36*
G01*
X161070000Y-81540000D02*
X160520000Y-81540000D01*
G75*
G02*
X160320000Y-81340000I0J200000D01*
G01*
X160320000Y-80940000D01*
G75*
G02*
X160520000Y-80740000I200000J0D01*
G01*
X161070000Y-80740000D01*
G75*
G02*
X161270000Y-80940000I0J-200000D01*
G01*
X161270000Y-81340000D01*
G75*
G02*
X161070000Y-81540000I-200000J0D01*
G01*
G37*
%TD*%
%TO.C,R22*%
G36*
G01*
X141385000Y-79890000D02*
X140835000Y-79890000D01*
G75*
G02*
X140635000Y-79690000I0J200000D01*
G01*
X140635000Y-79290000D01*
G75*
G02*
X140835000Y-79090000I200000J0D01*
G01*
X141385000Y-79090000D01*
G75*
G02*
X141585000Y-79290000I0J-200000D01*
G01*
X141585000Y-79690000D01*
G75*
G02*
X141385000Y-79890000I-200000J0D01*
G01*
G37*
G36*
G01*
X141385000Y-81540000D02*
X140835000Y-81540000D01*
G75*
G02*
X140635000Y-81340000I0J200000D01*
G01*
X140635000Y-80940000D01*
G75*
G02*
X140835000Y-80740000I200000J0D01*
G01*
X141385000Y-80740000D01*
G75*
G02*
X141585000Y-80940000I0J-200000D01*
G01*
X141585000Y-81340000D01*
G75*
G02*
X141385000Y-81540000I-200000J0D01*
G01*
G37*
%TD*%
%TO.C,U1*%
G36*
G01*
X162850000Y-79767500D02*
X162550000Y-79767500D01*
G75*
G02*
X162400000Y-79617500I0J150000D01*
G01*
X162400000Y-77967500D01*
G75*
G02*
X162550000Y-77817500I150000J0D01*
G01*
X162850000Y-77817500D01*
G75*
G02*
X163000000Y-77967500I0J-150000D01*
G01*
X163000000Y-79617500D01*
G75*
G02*
X162850000Y-79767500I-150000J0D01*
G01*
G37*
G36*
G01*
X164120000Y-79767500D02*
X163820000Y-79767500D01*
G75*
G02*
X163670000Y-79617500I0J150000D01*
G01*
X163670000Y-77967500D01*
G75*
G02*
X163820000Y-77817500I150000J0D01*
G01*
X164120000Y-77817500D01*
G75*
G02*
X164270000Y-77967500I0J-150000D01*
G01*
X164270000Y-79617500D01*
G75*
G02*
X164120000Y-79767500I-150000J0D01*
G01*
G37*
G36*
G01*
X165390000Y-79767500D02*
X165090000Y-79767500D01*
G75*
G02*
X164940000Y-79617500I0J150000D01*
G01*
X164940000Y-77967500D01*
G75*
G02*
X165090000Y-77817500I150000J0D01*
G01*
X165390000Y-77817500D01*
G75*
G02*
X165540000Y-77967500I0J-150000D01*
G01*
X165540000Y-79617500D01*
G75*
G02*
X165390000Y-79767500I-150000J0D01*
G01*
G37*
G36*
G01*
X166660000Y-79767500D02*
X166360000Y-79767500D01*
G75*
G02*
X166210000Y-79617500I0J150000D01*
G01*
X166210000Y-77967500D01*
G75*
G02*
X166360000Y-77817500I150000J0D01*
G01*
X166660000Y-77817500D01*
G75*
G02*
X166810000Y-77967500I0J-150000D01*
G01*
X166810000Y-79617500D01*
G75*
G02*
X166660000Y-79767500I-150000J0D01*
G01*
G37*
G36*
G01*
X166660000Y-84717500D02*
X166360000Y-84717500D01*
G75*
G02*
X166210000Y-84567500I0J150000D01*
G01*
X166210000Y-82917500D01*
G75*
G02*
X166360000Y-82767500I150000J0D01*
G01*
X166660000Y-82767500D01*
G75*
G02*
X166810000Y-82917500I0J-150000D01*
G01*
X166810000Y-84567500D01*
G75*
G02*
X166660000Y-84717500I-150000J0D01*
G01*
G37*
G36*
G01*
X165390000Y-84717500D02*
X165090000Y-84717500D01*
G75*
G02*
X164940000Y-84567500I0J150000D01*
G01*
X164940000Y-82917500D01*
G75*
G02*
X165090000Y-82767500I150000J0D01*
G01*
X165390000Y-82767500D01*
G75*
G02*
X165540000Y-82917500I0J-150000D01*
G01*
X165540000Y-84567500D01*
G75*
G02*
X165390000Y-84717500I-150000J0D01*
G01*
G37*
G36*
G01*
X164120000Y-84717500D02*
X163820000Y-84717500D01*
G75*
G02*
X163670000Y-84567500I0J150000D01*
G01*
X163670000Y-82917500D01*
G75*
G02*
X163820000Y-82767500I150000J0D01*
G01*
X164120000Y-82767500D01*
G75*
G02*
X164270000Y-82917500I0J-150000D01*
G01*
X164270000Y-84567500D01*
G75*
G02*
X164120000Y-84717500I-150000J0D01*
G01*
G37*
G36*
G01*
X162850000Y-84717500D02*
X162550000Y-84717500D01*
G75*
G02*
X162400000Y-84567500I0J150000D01*
G01*
X162400000Y-82917500D01*
G75*
G02*
X162550000Y-82767500I150000J0D01*
G01*
X162850000Y-82767500D01*
G75*
G02*
X163000000Y-82917500I0J-150000D01*
G01*
X163000000Y-84567500D01*
G75*
G02*
X162850000Y-84717500I-150000J0D01*
G01*
G37*
%TD*%
%TO.C,C12*%
G36*
G01*
X165410000Y-85780000D02*
X165410000Y-86280000D01*
G75*
G02*
X165185000Y-86505000I-225000J0D01*
G01*
X164735000Y-86505000D01*
G75*
G02*
X164510000Y-86280000I0J225000D01*
G01*
X164510000Y-85780000D01*
G75*
G02*
X164735000Y-85555000I225000J0D01*
G01*
X165185000Y-85555000D01*
G75*
G02*
X165410000Y-85780000I0J-225000D01*
G01*
G37*
G36*
G01*
X166960000Y-85780000D02*
X166960000Y-86280000D01*
G75*
G02*
X166735000Y-86505000I-225000J0D01*
G01*
X166285000Y-86505000D01*
G75*
G02*
X166060000Y-86280000I0J225000D01*
G01*
X166060000Y-85780000D01*
G75*
G02*
X166285000Y-85555000I225000J0D01*
G01*
X166735000Y-85555000D01*
G75*
G02*
X166960000Y-85780000I0J-225000D01*
G01*
G37*
%TD*%
%TO.C,C13*%
G36*
G01*
X134590000Y-76755000D02*
X134590000Y-76255000D01*
G75*
G02*
X134815000Y-76030000I225000J0D01*
G01*
X135265000Y-76030000D01*
G75*
G02*
X135490000Y-76255000I0J-225000D01*
G01*
X135490000Y-76755000D01*
G75*
G02*
X135265000Y-76980000I-225000J0D01*
G01*
X134815000Y-76980000D01*
G75*
G02*
X134590000Y-76755000I0J225000D01*
G01*
G37*
G36*
G01*
X133040000Y-76755000D02*
X133040000Y-76255000D01*
G75*
G02*
X133265000Y-76030000I225000J0D01*
G01*
X133715000Y-76030000D01*
G75*
G02*
X133940000Y-76255000I0J-225000D01*
G01*
X133940000Y-76755000D01*
G75*
G02*
X133715000Y-76980000I-225000J0D01*
G01*
X133265000Y-76980000D01*
G75*
G02*
X133040000Y-76755000I0J225000D01*
G01*
G37*
%TD*%
%TO.C,C10*%
G36*
G01*
X136850000Y-86280000D02*
X136850000Y-85780000D01*
G75*
G02*
X137075000Y-85555000I225000J0D01*
G01*
X137525000Y-85555000D01*
G75*
G02*
X137750000Y-85780000I0J-225000D01*
G01*
X137750000Y-86280000D01*
G75*
G02*
X137525000Y-86505000I-225000J0D01*
G01*
X137075000Y-86505000D01*
G75*
G02*
X136850000Y-86280000I0J225000D01*
G01*
G37*
G36*
G01*
X135300000Y-86280000D02*
X135300000Y-85780000D01*
G75*
G02*
X135525000Y-85555000I225000J0D01*
G01*
X135975000Y-85555000D01*
G75*
G02*
X136200000Y-85780000I0J-225000D01*
G01*
X136200000Y-86280000D01*
G75*
G02*
X135975000Y-86505000I-225000J0D01*
G01*
X135525000Y-86505000D01*
G75*
G02*
X135300000Y-86280000I0J225000D01*
G01*
G37*
%TD*%
%TO.C,R31*%
G36*
G01*
X130357500Y-84550000D02*
X130907500Y-84550000D01*
G75*
G02*
X131107500Y-84750000I0J-200000D01*
G01*
X131107500Y-85150000D01*
G75*
G02*
X130907500Y-85350000I-200000J0D01*
G01*
X130357500Y-85350000D01*
G75*
G02*
X130157500Y-85150000I0J200000D01*
G01*
X130157500Y-84750000D01*
G75*
G02*
X130357500Y-84550000I200000J0D01*
G01*
G37*
G36*
G01*
X130357500Y-82900000D02*
X130907500Y-82900000D01*
G75*
G02*
X131107500Y-83100000I0J-200000D01*
G01*
X131107500Y-83500000D01*
G75*
G02*
X130907500Y-83700000I-200000J0D01*
G01*
X130357500Y-83700000D01*
G75*
G02*
X130157500Y-83500000I0J200000D01*
G01*
X130157500Y-83100000D01*
G75*
G02*
X130357500Y-82900000I200000J0D01*
G01*
G37*
%TD*%
%TO.C,R28*%
G36*
G01*
X128770000Y-84550000D02*
X129320000Y-84550000D01*
G75*
G02*
X129520000Y-84750000I0J-200000D01*
G01*
X129520000Y-85150000D01*
G75*
G02*
X129320000Y-85350000I-200000J0D01*
G01*
X128770000Y-85350000D01*
G75*
G02*
X128570000Y-85150000I0J200000D01*
G01*
X128570000Y-84750000D01*
G75*
G02*
X128770000Y-84550000I200000J0D01*
G01*
G37*
G36*
G01*
X128770000Y-82900000D02*
X129320000Y-82900000D01*
G75*
G02*
X129520000Y-83100000I0J-200000D01*
G01*
X129520000Y-83500000D01*
G75*
G02*
X129320000Y-83700000I-200000J0D01*
G01*
X128770000Y-83700000D01*
G75*
G02*
X128570000Y-83500000I0J200000D01*
G01*
X128570000Y-83100000D01*
G75*
G02*
X128770000Y-82900000I200000J0D01*
G01*
G37*
%TD*%
%TO.C,R25*%
G36*
G01*
X127732500Y-83700000D02*
X127182500Y-83700000D01*
G75*
G02*
X126982500Y-83500000I0J200000D01*
G01*
X126982500Y-83100000D01*
G75*
G02*
X127182500Y-82900000I200000J0D01*
G01*
X127732500Y-82900000D01*
G75*
G02*
X127932500Y-83100000I0J-200000D01*
G01*
X127932500Y-83500000D01*
G75*
G02*
X127732500Y-83700000I-200000J0D01*
G01*
G37*
G36*
G01*
X127732500Y-85350000D02*
X127182500Y-85350000D01*
G75*
G02*
X126982500Y-85150000I0J200000D01*
G01*
X126982500Y-84750000D01*
G75*
G02*
X127182500Y-84550000I200000J0D01*
G01*
X127732500Y-84550000D01*
G75*
G02*
X127932500Y-84750000I0J-200000D01*
G01*
X127932500Y-85150000D01*
G75*
G02*
X127732500Y-85350000I-200000J0D01*
G01*
G37*
%TD*%
%TO.C,U2*%
G36*
G01*
X137150000Y-82767500D02*
X137450000Y-82767500D01*
G75*
G02*
X137600000Y-82917500I0J-150000D01*
G01*
X137600000Y-84567500D01*
G75*
G02*
X137450000Y-84717500I-150000J0D01*
G01*
X137150000Y-84717500D01*
G75*
G02*
X137000000Y-84567500I0J150000D01*
G01*
X137000000Y-82917500D01*
G75*
G02*
X137150000Y-82767500I150000J0D01*
G01*
G37*
G36*
G01*
X135880000Y-82767500D02*
X136180000Y-82767500D01*
G75*
G02*
X136330000Y-82917500I0J-150000D01*
G01*
X136330000Y-84567500D01*
G75*
G02*
X136180000Y-84717500I-150000J0D01*
G01*
X135880000Y-84717500D01*
G75*
G02*
X135730000Y-84567500I0J150000D01*
G01*
X135730000Y-82917500D01*
G75*
G02*
X135880000Y-82767500I150000J0D01*
G01*
G37*
G36*
G01*
X134610000Y-82767500D02*
X134910000Y-82767500D01*
G75*
G02*
X135060000Y-82917500I0J-150000D01*
G01*
X135060000Y-84567500D01*
G75*
G02*
X134910000Y-84717500I-150000J0D01*
G01*
X134610000Y-84717500D01*
G75*
G02*
X134460000Y-84567500I0J150000D01*
G01*
X134460000Y-82917500D01*
G75*
G02*
X134610000Y-82767500I150000J0D01*
G01*
G37*
G36*
G01*
X133340000Y-82767500D02*
X133640000Y-82767500D01*
G75*
G02*
X133790000Y-82917500I0J-150000D01*
G01*
X133790000Y-84567500D01*
G75*
G02*
X133640000Y-84717500I-150000J0D01*
G01*
X133340000Y-84717500D01*
G75*
G02*
X133190000Y-84567500I0J150000D01*
G01*
X133190000Y-82917500D01*
G75*
G02*
X133340000Y-82767500I150000J0D01*
G01*
G37*
G36*
G01*
X133340000Y-77817500D02*
X133640000Y-77817500D01*
G75*
G02*
X133790000Y-77967500I0J-150000D01*
G01*
X133790000Y-79617500D01*
G75*
G02*
X133640000Y-79767500I-150000J0D01*
G01*
X133340000Y-79767500D01*
G75*
G02*
X133190000Y-79617500I0J150000D01*
G01*
X133190000Y-77967500D01*
G75*
G02*
X133340000Y-77817500I150000J0D01*
G01*
G37*
G36*
G01*
X134610000Y-77817500D02*
X134910000Y-77817500D01*
G75*
G02*
X135060000Y-77967500I0J-150000D01*
G01*
X135060000Y-79617500D01*
G75*
G02*
X134910000Y-79767500I-150000J0D01*
G01*
X134610000Y-79767500D01*
G75*
G02*
X134460000Y-79617500I0J150000D01*
G01*
X134460000Y-77967500D01*
G75*
G02*
X134610000Y-77817500I150000J0D01*
G01*
G37*
G36*
G01*
X135880000Y-77817500D02*
X136180000Y-77817500D01*
G75*
G02*
X136330000Y-77967500I0J-150000D01*
G01*
X136330000Y-79617500D01*
G75*
G02*
X136180000Y-79767500I-150000J0D01*
G01*
X135880000Y-79767500D01*
G75*
G02*
X135730000Y-79617500I0J150000D01*
G01*
X135730000Y-77967500D01*
G75*
G02*
X135880000Y-77817500I150000J0D01*
G01*
G37*
G36*
G01*
X137150000Y-77817500D02*
X137450000Y-77817500D01*
G75*
G02*
X137600000Y-77967500I0J-150000D01*
G01*
X137600000Y-79617500D01*
G75*
G02*
X137450000Y-79767500I-150000J0D01*
G01*
X137150000Y-79767500D01*
G75*
G02*
X137000000Y-79617500I0J150000D01*
G01*
X137000000Y-77967500D01*
G75*
G02*
X137150000Y-77817500I150000J0D01*
G01*
G37*
%TD*%
%TO.C,C23*%
G36*
G01*
X148087500Y-82922500D02*
X148087500Y-83422500D01*
G75*
G02*
X147862500Y-83647500I-225000J0D01*
G01*
X147412500Y-83647500D01*
G75*
G02*
X147187500Y-83422500I0J225000D01*
G01*
X147187500Y-82922500D01*
G75*
G02*
X147412500Y-82697500I225000J0D01*
G01*
X147862500Y-82697500D01*
G75*
G02*
X148087500Y-82922500I0J-225000D01*
G01*
G37*
G36*
G01*
X149637500Y-82922500D02*
X149637500Y-83422500D01*
G75*
G02*
X149412500Y-83647500I-225000J0D01*
G01*
X148962500Y-83647500D01*
G75*
G02*
X148737500Y-83422500I0J225000D01*
G01*
X148737500Y-82922500D01*
G75*
G02*
X148962500Y-82697500I225000J0D01*
G01*
X149412500Y-82697500D01*
G75*
G02*
X149637500Y-82922500I0J-225000D01*
G01*
G37*
%TD*%
%TO.C,C22*%
G36*
G01*
X151402500Y-82922500D02*
X151402500Y-83422500D01*
G75*
G02*
X151177500Y-83647500I-225000J0D01*
G01*
X150727500Y-83647500D01*
G75*
G02*
X150502500Y-83422500I0J225000D01*
G01*
X150502500Y-82922500D01*
G75*
G02*
X150727500Y-82697500I225000J0D01*
G01*
X151177500Y-82697500D01*
G75*
G02*
X151402500Y-82922500I0J-225000D01*
G01*
G37*
G36*
G01*
X152952500Y-82922500D02*
X152952500Y-83422500D01*
G75*
G02*
X152727500Y-83647500I-225000J0D01*
G01*
X152277500Y-83647500D01*
G75*
G02*
X152052500Y-83422500I0J225000D01*
G01*
X152052500Y-82922500D01*
G75*
G02*
X152277500Y-82697500I225000J0D01*
G01*
X152727500Y-82697500D01*
G75*
G02*
X152952500Y-82922500I0J-225000D01*
G01*
G37*
%TD*%
%TO.C,C20*%
G36*
G01*
X134947500Y-90000000D02*
X134947500Y-90950000D01*
G75*
G02*
X134697500Y-91200000I-250000J0D01*
G01*
X134197500Y-91200000D01*
G75*
G02*
X133947500Y-90950000I0J250000D01*
G01*
X133947500Y-90000000D01*
G75*
G02*
X134197500Y-89750000I250000J0D01*
G01*
X134697500Y-89750000D01*
G75*
G02*
X134947500Y-90000000I0J-250000D01*
G01*
G37*
G36*
G01*
X136847500Y-90000000D02*
X136847500Y-90950000D01*
G75*
G02*
X136597500Y-91200000I-250000J0D01*
G01*
X136097500Y-91200000D01*
G75*
G02*
X135847500Y-90950000I0J250000D01*
G01*
X135847500Y-90000000D01*
G75*
G02*
X136097500Y-89750000I250000J0D01*
G01*
X136597500Y-89750000D01*
G75*
G02*
X136847500Y-90000000I0J-250000D01*
G01*
G37*
%TD*%
%TO.C,C19*%
G36*
G01*
X134945000Y-87777500D02*
X134945000Y-88727500D01*
G75*
G02*
X134695000Y-88977500I-250000J0D01*
G01*
X134195000Y-88977500D01*
G75*
G02*
X133945000Y-88727500I0J250000D01*
G01*
X133945000Y-87777500D01*
G75*
G02*
X134195000Y-87527500I250000J0D01*
G01*
X134695000Y-87527500D01*
G75*
G02*
X134945000Y-87777500I0J-250000D01*
G01*
G37*
G36*
G01*
X136845000Y-87777500D02*
X136845000Y-88727500D01*
G75*
G02*
X136595000Y-88977500I-250000J0D01*
G01*
X136095000Y-88977500D01*
G75*
G02*
X135845000Y-88727500I0J250000D01*
G01*
X135845000Y-87777500D01*
G75*
G02*
X136095000Y-87527500I250000J0D01*
G01*
X136595000Y-87527500D01*
G75*
G02*
X136845000Y-87777500I0J-250000D01*
G01*
G37*
%TD*%
%TO.C,C16*%
G36*
G01*
X138757500Y-90000000D02*
X138757500Y-90950000D01*
G75*
G02*
X138507500Y-91200000I-250000J0D01*
G01*
X138007500Y-91200000D01*
G75*
G02*
X137757500Y-90950000I0J250000D01*
G01*
X137757500Y-90000000D01*
G75*
G02*
X138007500Y-89750000I250000J0D01*
G01*
X138507500Y-89750000D01*
G75*
G02*
X138757500Y-90000000I0J-250000D01*
G01*
G37*
G36*
G01*
X140657500Y-90000000D02*
X140657500Y-90950000D01*
G75*
G02*
X140407500Y-91200000I-250000J0D01*
G01*
X139907500Y-91200000D01*
G75*
G02*
X139657500Y-90950000I0J250000D01*
G01*
X139657500Y-90000000D01*
G75*
G02*
X139907500Y-89750000I250000J0D01*
G01*
X140407500Y-89750000D01*
G75*
G02*
X140657500Y-90000000I0J-250000D01*
G01*
G37*
%TD*%
%TO.C,C15*%
G36*
G01*
X138755000Y-87777500D02*
X138755000Y-88727500D01*
G75*
G02*
X138505000Y-88977500I-250000J0D01*
G01*
X138005000Y-88977500D01*
G75*
G02*
X137755000Y-88727500I0J250000D01*
G01*
X137755000Y-87777500D01*
G75*
G02*
X138005000Y-87527500I250000J0D01*
G01*
X138505000Y-87527500D01*
G75*
G02*
X138755000Y-87777500I0J-250000D01*
G01*
G37*
G36*
G01*
X140655000Y-87777500D02*
X140655000Y-88727500D01*
G75*
G02*
X140405000Y-88977500I-250000J0D01*
G01*
X139905000Y-88977500D01*
G75*
G02*
X139655000Y-88727500I0J250000D01*
G01*
X139655000Y-87777500D01*
G75*
G02*
X139905000Y-87527500I250000J0D01*
G01*
X140405000Y-87527500D01*
G75*
G02*
X140655000Y-87777500I0J-250000D01*
G01*
G37*
%TD*%
%TO.C,C7*%
G36*
G01*
X160347500Y-90000000D02*
X160347500Y-90950000D01*
G75*
G02*
X160097500Y-91200000I-250000J0D01*
G01*
X159597500Y-91200000D01*
G75*
G02*
X159347500Y-90950000I0J250000D01*
G01*
X159347500Y-90000000D01*
G75*
G02*
X159597500Y-89750000I250000J0D01*
G01*
X160097500Y-89750000D01*
G75*
G02*
X160347500Y-90000000I0J-250000D01*
G01*
G37*
G36*
G01*
X162247500Y-90000000D02*
X162247500Y-90950000D01*
G75*
G02*
X161997500Y-91200000I-250000J0D01*
G01*
X161497500Y-91200000D01*
G75*
G02*
X161247500Y-90950000I0J250000D01*
G01*
X161247500Y-90000000D01*
G75*
G02*
X161497500Y-89750000I250000J0D01*
G01*
X161997500Y-89750000D01*
G75*
G02*
X162247500Y-90000000I0J-250000D01*
G01*
G37*
%TD*%
%TO.C,C6*%
G36*
G01*
X160347500Y-87777500D02*
X160347500Y-88727500D01*
G75*
G02*
X160097500Y-88977500I-250000J0D01*
G01*
X159597500Y-88977500D01*
G75*
G02*
X159347500Y-88727500I0J250000D01*
G01*
X159347500Y-87777500D01*
G75*
G02*
X159597500Y-87527500I250000J0D01*
G01*
X160097500Y-87527500D01*
G75*
G02*
X160347500Y-87777500I0J-250000D01*
G01*
G37*
G36*
G01*
X162247500Y-87777500D02*
X162247500Y-88727500D01*
G75*
G02*
X161997500Y-88977500I-250000J0D01*
G01*
X161497500Y-88977500D01*
G75*
G02*
X161247500Y-88727500I0J250000D01*
G01*
X161247500Y-87777500D01*
G75*
G02*
X161497500Y-87527500I250000J0D01*
G01*
X161997500Y-87527500D01*
G75*
G02*
X162247500Y-87777500I0J-250000D01*
G01*
G37*
%TD*%
%TO.C,C3*%
G36*
G01*
X164152500Y-87777500D02*
X164152500Y-88727500D01*
G75*
G02*
X163902500Y-88977500I-250000J0D01*
G01*
X163402500Y-88977500D01*
G75*
G02*
X163152500Y-88727500I0J250000D01*
G01*
X163152500Y-87777500D01*
G75*
G02*
X163402500Y-87527500I250000J0D01*
G01*
X163902500Y-87527500D01*
G75*
G02*
X164152500Y-87777500I0J-250000D01*
G01*
G37*
G36*
G01*
X166052500Y-87777500D02*
X166052500Y-88727500D01*
G75*
G02*
X165802500Y-88977500I-250000J0D01*
G01*
X165302500Y-88977500D01*
G75*
G02*
X165052500Y-88727500I0J250000D01*
G01*
X165052500Y-87777500D01*
G75*
G02*
X165302500Y-87527500I250000J0D01*
G01*
X165802500Y-87527500D01*
G75*
G02*
X166052500Y-87777500I0J-250000D01*
G01*
G37*
%TD*%
%TO.C,C2*%
G36*
G01*
X164155000Y-90000000D02*
X164155000Y-90950000D01*
G75*
G02*
X163905000Y-91200000I-250000J0D01*
G01*
X163405000Y-91200000D01*
G75*
G02*
X163155000Y-90950000I0J250000D01*
G01*
X163155000Y-90000000D01*
G75*
G02*
X163405000Y-89750000I250000J0D01*
G01*
X163905000Y-89750000D01*
G75*
G02*
X164155000Y-90000000I0J-250000D01*
G01*
G37*
G36*
G01*
X166055000Y-90000000D02*
X166055000Y-90950000D01*
G75*
G02*
X165805000Y-91200000I-250000J0D01*
G01*
X165305000Y-91200000D01*
G75*
G02*
X165055000Y-90950000I0J250000D01*
G01*
X165055000Y-90000000D01*
G75*
G02*
X165305000Y-89750000I250000J0D01*
G01*
X165805000Y-89750000D01*
G75*
G02*
X166055000Y-90000000I0J-250000D01*
G01*
G37*
%TD*%
%TO.C,C1*%
G36*
G01*
X158072500Y-98570000D02*
X158072500Y-97620000D01*
G75*
G02*
X158322500Y-97370000I250000J0D01*
G01*
X158822500Y-97370000D01*
G75*
G02*
X159072500Y-97620000I0J-250000D01*
G01*
X159072500Y-98570000D01*
G75*
G02*
X158822500Y-98820000I-250000J0D01*
G01*
X158322500Y-98820000D01*
G75*
G02*
X158072500Y-98570000I0J250000D01*
G01*
G37*
G36*
G01*
X156172500Y-98570000D02*
X156172500Y-97620000D01*
G75*
G02*
X156422500Y-97370000I250000J0D01*
G01*
X156922500Y-97370000D01*
G75*
G02*
X157172500Y-97620000I0J-250000D01*
G01*
X157172500Y-98570000D01*
G75*
G02*
X156922500Y-98820000I-250000J0D01*
G01*
X156422500Y-98820000D01*
G75*
G02*
X156172500Y-98570000I0J250000D01*
G01*
G37*
%TD*%
D10*
%TO.C,K2*%
X161122500Y-100007500D03*
X164322500Y-100007500D03*
X166522500Y-100007500D03*
X168722500Y-100007500D03*
X168722500Y-93007500D03*
X166522500Y-93007500D03*
X164322500Y-93007500D03*
X161122500Y-93007500D03*
%TD*%
%TO.C,R34*%
G36*
G01*
X163125000Y-104402500D02*
X163125000Y-103852500D01*
G75*
G02*
X163325000Y-103652500I200000J0D01*
G01*
X163725000Y-103652500D01*
G75*
G02*
X163925000Y-103852500I0J-200000D01*
G01*
X163925000Y-104402500D01*
G75*
G02*
X163725000Y-104602500I-200000J0D01*
G01*
X163325000Y-104602500D01*
G75*
G02*
X163125000Y-104402500I0J200000D01*
G01*
G37*
G36*
G01*
X161475000Y-104402500D02*
X161475000Y-103852500D01*
G75*
G02*
X161675000Y-103652500I200000J0D01*
G01*
X162075000Y-103652500D01*
G75*
G02*
X162275000Y-103852500I0J-200000D01*
G01*
X162275000Y-104402500D01*
G75*
G02*
X162075000Y-104602500I-200000J0D01*
G01*
X161675000Y-104602500D01*
G75*
G02*
X161475000Y-104402500I0J200000D01*
G01*
G37*
%TD*%
%TO.C,R33*%
G36*
G01*
X158212500Y-88780000D02*
X157662500Y-88780000D01*
G75*
G02*
X157462500Y-88580000I0J200000D01*
G01*
X157462500Y-88180000D01*
G75*
G02*
X157662500Y-87980000I200000J0D01*
G01*
X158212500Y-87980000D01*
G75*
G02*
X158412500Y-88180000I0J-200000D01*
G01*
X158412500Y-88580000D01*
G75*
G02*
X158212500Y-88780000I-200000J0D01*
G01*
G37*
G36*
G01*
X158212500Y-90430000D02*
X157662500Y-90430000D01*
G75*
G02*
X157462500Y-90230000I0J200000D01*
G01*
X157462500Y-89830000D01*
G75*
G02*
X157662500Y-89630000I200000J0D01*
G01*
X158212500Y-89630000D01*
G75*
G02*
X158412500Y-89830000I0J-200000D01*
G01*
X158412500Y-90230000D01*
G75*
G02*
X158212500Y-90430000I-200000J0D01*
G01*
G37*
%TD*%
%TO.C,R30*%
G36*
G01*
X163125000Y-102815000D02*
X163125000Y-102265000D01*
G75*
G02*
X163325000Y-102065000I200000J0D01*
G01*
X163725000Y-102065000D01*
G75*
G02*
X163925000Y-102265000I0J-200000D01*
G01*
X163925000Y-102815000D01*
G75*
G02*
X163725000Y-103015000I-200000J0D01*
G01*
X163325000Y-103015000D01*
G75*
G02*
X163125000Y-102815000I0J200000D01*
G01*
G37*
G36*
G01*
X161475000Y-102815000D02*
X161475000Y-102265000D01*
G75*
G02*
X161675000Y-102065000I200000J0D01*
G01*
X162075000Y-102065000D01*
G75*
G02*
X162275000Y-102265000I0J-200000D01*
G01*
X162275000Y-102815000D01*
G75*
G02*
X162075000Y-103015000I-200000J0D01*
G01*
X161675000Y-103015000D01*
G75*
G02*
X161475000Y-102815000I0J200000D01*
G01*
G37*
%TD*%
%TO.C,R29*%
G36*
G01*
X142590000Y-84485000D02*
X142590000Y-85035000D01*
G75*
G02*
X142390000Y-85235000I-200000J0D01*
G01*
X141990000Y-85235000D01*
G75*
G02*
X141790000Y-85035000I0J200000D01*
G01*
X141790000Y-84485000D01*
G75*
G02*
X141990000Y-84285000I200000J0D01*
G01*
X142390000Y-84285000D01*
G75*
G02*
X142590000Y-84485000I0J-200000D01*
G01*
G37*
G36*
G01*
X144240000Y-84485000D02*
X144240000Y-85035000D01*
G75*
G02*
X144040000Y-85235000I-200000J0D01*
G01*
X143640000Y-85235000D01*
G75*
G02*
X143440000Y-85035000I0J200000D01*
G01*
X143440000Y-84485000D01*
G75*
G02*
X143640000Y-84285000I200000J0D01*
G01*
X144040000Y-84285000D01*
G75*
G02*
X144240000Y-84485000I0J-200000D01*
G01*
G37*
%TD*%
%TO.C,R26*%
G36*
G01*
X165450000Y-102265000D02*
X165450000Y-102815000D01*
G75*
G02*
X165250000Y-103015000I-200000J0D01*
G01*
X164850000Y-103015000D01*
G75*
G02*
X164650000Y-102815000I0J200000D01*
G01*
X164650000Y-102265000D01*
G75*
G02*
X164850000Y-102065000I200000J0D01*
G01*
X165250000Y-102065000D01*
G75*
G02*
X165450000Y-102265000I0J-200000D01*
G01*
G37*
G36*
G01*
X167100000Y-102265000D02*
X167100000Y-102815000D01*
G75*
G02*
X166900000Y-103015000I-200000J0D01*
G01*
X166500000Y-103015000D01*
G75*
G02*
X166300000Y-102815000I0J200000D01*
G01*
X166300000Y-102265000D01*
G75*
G02*
X166500000Y-102065000I200000J0D01*
G01*
X166900000Y-102065000D01*
G75*
G02*
X167100000Y-102265000I0J-200000D01*
G01*
G37*
%TD*%
%TO.C,R24*%
G36*
G01*
X139480000Y-79890000D02*
X138930000Y-79890000D01*
G75*
G02*
X138730000Y-79690000I0J200000D01*
G01*
X138730000Y-79290000D01*
G75*
G02*
X138930000Y-79090000I200000J0D01*
G01*
X139480000Y-79090000D01*
G75*
G02*
X139680000Y-79290000I0J-200000D01*
G01*
X139680000Y-79690000D01*
G75*
G02*
X139480000Y-79890000I-200000J0D01*
G01*
G37*
G36*
G01*
X139480000Y-81540000D02*
X138930000Y-81540000D01*
G75*
G02*
X138730000Y-81340000I0J200000D01*
G01*
X138730000Y-80940000D01*
G75*
G02*
X138930000Y-80740000I200000J0D01*
G01*
X139480000Y-80740000D01*
G75*
G02*
X139680000Y-80940000I0J-200000D01*
G01*
X139680000Y-81340000D01*
G75*
G02*
X139480000Y-81540000I-200000J0D01*
G01*
G37*
%TD*%
%TO.C,R23*%
G36*
G01*
X165450000Y-103852500D02*
X165450000Y-104402500D01*
G75*
G02*
X165250000Y-104602500I-200000J0D01*
G01*
X164850000Y-104602500D01*
G75*
G02*
X164650000Y-104402500I0J200000D01*
G01*
X164650000Y-103852500D01*
G75*
G02*
X164850000Y-103652500I200000J0D01*
G01*
X165250000Y-103652500D01*
G75*
G02*
X165450000Y-103852500I0J-200000D01*
G01*
G37*
G36*
G01*
X167100000Y-103852500D02*
X167100000Y-104402500D01*
G75*
G02*
X166900000Y-104602500I-200000J0D01*
G01*
X166500000Y-104602500D01*
G75*
G02*
X166300000Y-104402500I0J200000D01*
G01*
X166300000Y-103852500D01*
G75*
G02*
X166500000Y-103652500I200000J0D01*
G01*
X166900000Y-103652500D01*
G75*
G02*
X167100000Y-103852500I0J-200000D01*
G01*
G37*
%TD*%
%TO.C,R21*%
G36*
G01*
X145195000Y-102750000D02*
X144645000Y-102750000D01*
G75*
G02*
X144445000Y-102550000I0J200000D01*
G01*
X144445000Y-102150000D01*
G75*
G02*
X144645000Y-101950000I200000J0D01*
G01*
X145195000Y-101950000D01*
G75*
G02*
X145395000Y-102150000I0J-200000D01*
G01*
X145395000Y-102550000D01*
G75*
G02*
X145195000Y-102750000I-200000J0D01*
G01*
G37*
G36*
G01*
X145195000Y-104400000D02*
X144645000Y-104400000D01*
G75*
G02*
X144445000Y-104200000I0J200000D01*
G01*
X144445000Y-103800000D01*
G75*
G02*
X144645000Y-103600000I200000J0D01*
G01*
X145195000Y-103600000D01*
G75*
G02*
X145395000Y-103800000I0J-200000D01*
G01*
X145395000Y-104200000D01*
G75*
G02*
X145195000Y-104400000I-200000J0D01*
G01*
G37*
%TD*%
%TO.C,R20*%
G36*
G01*
X153702500Y-103535000D02*
X153702500Y-104085000D01*
G75*
G02*
X153502500Y-104285000I-200000J0D01*
G01*
X153102500Y-104285000D01*
G75*
G02*
X152902500Y-104085000I0J200000D01*
G01*
X152902500Y-103535000D01*
G75*
G02*
X153102500Y-103335000I200000J0D01*
G01*
X153502500Y-103335000D01*
G75*
G02*
X153702500Y-103535000I0J-200000D01*
G01*
G37*
G36*
G01*
X155352500Y-103535000D02*
X155352500Y-104085000D01*
G75*
G02*
X155152500Y-104285000I-200000J0D01*
G01*
X154752500Y-104285000D01*
G75*
G02*
X154552500Y-104085000I0J200000D01*
G01*
X154552500Y-103535000D01*
G75*
G02*
X154752500Y-103335000I200000J0D01*
G01*
X155152500Y-103335000D01*
G75*
G02*
X155352500Y-103535000I0J-200000D01*
G01*
G37*
%TD*%
%TO.C,R19*%
G36*
G01*
X149892500Y-99725000D02*
X149892500Y-100275000D01*
G75*
G02*
X149692500Y-100475000I-200000J0D01*
G01*
X149292500Y-100475000D01*
G75*
G02*
X149092500Y-100275000I0J200000D01*
G01*
X149092500Y-99725000D01*
G75*
G02*
X149292500Y-99525000I200000J0D01*
G01*
X149692500Y-99525000D01*
G75*
G02*
X149892500Y-99725000I0J-200000D01*
G01*
G37*
G36*
G01*
X151542500Y-99725000D02*
X151542500Y-100275000D01*
G75*
G02*
X151342500Y-100475000I-200000J0D01*
G01*
X150942500Y-100475000D01*
G75*
G02*
X150742500Y-100275000I0J200000D01*
G01*
X150742500Y-99725000D01*
G75*
G02*
X150942500Y-99525000I200000J0D01*
G01*
X151342500Y-99525000D01*
G75*
G02*
X151542500Y-99725000I0J-200000D01*
G01*
G37*
%TD*%
%TO.C,R18*%
G36*
G01*
X145195000Y-99575000D02*
X144645000Y-99575000D01*
G75*
G02*
X144445000Y-99375000I0J200000D01*
G01*
X144445000Y-98975000D01*
G75*
G02*
X144645000Y-98775000I200000J0D01*
G01*
X145195000Y-98775000D01*
G75*
G02*
X145395000Y-98975000I0J-200000D01*
G01*
X145395000Y-99375000D01*
G75*
G02*
X145195000Y-99575000I-200000J0D01*
G01*
G37*
G36*
G01*
X145195000Y-101225000D02*
X144645000Y-101225000D01*
G75*
G02*
X144445000Y-101025000I0J200000D01*
G01*
X144445000Y-100625000D01*
G75*
G02*
X144645000Y-100425000I200000J0D01*
G01*
X145195000Y-100425000D01*
G75*
G02*
X145395000Y-100625000I0J-200000D01*
G01*
X145395000Y-101025000D01*
G75*
G02*
X145195000Y-101225000I-200000J0D01*
G01*
G37*
%TD*%
%TO.C,R17*%
G36*
G01*
X144645000Y-94075000D02*
X145195000Y-94075000D01*
G75*
G02*
X145395000Y-94275000I0J-200000D01*
G01*
X145395000Y-94675000D01*
G75*
G02*
X145195000Y-94875000I-200000J0D01*
G01*
X144645000Y-94875000D01*
G75*
G02*
X144445000Y-94675000I0J200000D01*
G01*
X144445000Y-94275000D01*
G75*
G02*
X144645000Y-94075000I200000J0D01*
G01*
G37*
G36*
G01*
X144645000Y-92425000D02*
X145195000Y-92425000D01*
G75*
G02*
X145395000Y-92625000I0J-200000D01*
G01*
X145395000Y-93025000D01*
G75*
G02*
X145195000Y-93225000I-200000J0D01*
G01*
X144645000Y-93225000D01*
G75*
G02*
X144445000Y-93025000I0J200000D01*
G01*
X144445000Y-92625000D01*
G75*
G02*
X144645000Y-92425000I200000J0D01*
G01*
G37*
%TD*%
%TO.C,R16*%
G36*
G01*
X136875000Y-103852500D02*
X136875000Y-104402500D01*
G75*
G02*
X136675000Y-104602500I-200000J0D01*
G01*
X136275000Y-104602500D01*
G75*
G02*
X136075000Y-104402500I0J200000D01*
G01*
X136075000Y-103852500D01*
G75*
G02*
X136275000Y-103652500I200000J0D01*
G01*
X136675000Y-103652500D01*
G75*
G02*
X136875000Y-103852500I0J-200000D01*
G01*
G37*
G36*
G01*
X138525000Y-103852500D02*
X138525000Y-104402500D01*
G75*
G02*
X138325000Y-104602500I-200000J0D01*
G01*
X137925000Y-104602500D01*
G75*
G02*
X137725000Y-104402500I0J200000D01*
G01*
X137725000Y-103852500D01*
G75*
G02*
X137925000Y-103652500I200000J0D01*
G01*
X138325000Y-103652500D01*
G75*
G02*
X138525000Y-103852500I0J-200000D01*
G01*
G37*
%TD*%
%TO.C,R13*%
G36*
G01*
X169092500Y-84550000D02*
X169642500Y-84550000D01*
G75*
G02*
X169842500Y-84750000I0J-200000D01*
G01*
X169842500Y-85150000D01*
G75*
G02*
X169642500Y-85350000I-200000J0D01*
G01*
X169092500Y-85350000D01*
G75*
G02*
X168892500Y-85150000I0J200000D01*
G01*
X168892500Y-84750000D01*
G75*
G02*
X169092500Y-84550000I200000J0D01*
G01*
G37*
G36*
G01*
X169092500Y-82900000D02*
X169642500Y-82900000D01*
G75*
G02*
X169842500Y-83100000I0J-200000D01*
G01*
X169842500Y-83500000D01*
G75*
G02*
X169642500Y-83700000I-200000J0D01*
G01*
X169092500Y-83700000D01*
G75*
G02*
X168892500Y-83500000I0J200000D01*
G01*
X168892500Y-83100000D01*
G75*
G02*
X169092500Y-82900000I200000J0D01*
G01*
G37*
%TD*%
%TO.C,R12*%
G36*
G01*
X136875000Y-102265000D02*
X136875000Y-102815000D01*
G75*
G02*
X136675000Y-103015000I-200000J0D01*
G01*
X136275000Y-103015000D01*
G75*
G02*
X136075000Y-102815000I0J200000D01*
G01*
X136075000Y-102265000D01*
G75*
G02*
X136275000Y-102065000I200000J0D01*
G01*
X136675000Y-102065000D01*
G75*
G02*
X136875000Y-102265000I0J-200000D01*
G01*
G37*
G36*
G01*
X138525000Y-102265000D02*
X138525000Y-102815000D01*
G75*
G02*
X138325000Y-103015000I-200000J0D01*
G01*
X137925000Y-103015000D01*
G75*
G02*
X137725000Y-102815000I0J200000D01*
G01*
X137725000Y-102265000D01*
G75*
G02*
X137925000Y-102065000I200000J0D01*
G01*
X138325000Y-102065000D01*
G75*
G02*
X138525000Y-102265000I0J-200000D01*
G01*
G37*
%TD*%
%TO.C,R11*%
G36*
G01*
X157410000Y-85035000D02*
X157410000Y-84485000D01*
G75*
G02*
X157610000Y-84285000I200000J0D01*
G01*
X158010000Y-84285000D01*
G75*
G02*
X158210000Y-84485000I0J-200000D01*
G01*
X158210000Y-85035000D01*
G75*
G02*
X158010000Y-85235000I-200000J0D01*
G01*
X157610000Y-85235000D01*
G75*
G02*
X157410000Y-85035000I0J200000D01*
G01*
G37*
G36*
G01*
X155760000Y-85035000D02*
X155760000Y-84485000D01*
G75*
G02*
X155960000Y-84285000I200000J0D01*
G01*
X156360000Y-84285000D01*
G75*
G02*
X156560000Y-84485000I0J-200000D01*
G01*
X156560000Y-85035000D01*
G75*
G02*
X156360000Y-85235000I-200000J0D01*
G01*
X155960000Y-85235000D01*
G75*
G02*
X155760000Y-85035000I0J200000D01*
G01*
G37*
%TD*%
%TO.C,R10*%
G36*
G01*
X170997500Y-84550000D02*
X171547500Y-84550000D01*
G75*
G02*
X171747500Y-84750000I0J-200000D01*
G01*
X171747500Y-85150000D01*
G75*
G02*
X171547500Y-85350000I-200000J0D01*
G01*
X170997500Y-85350000D01*
G75*
G02*
X170797500Y-85150000I0J200000D01*
G01*
X170797500Y-84750000D01*
G75*
G02*
X170997500Y-84550000I200000J0D01*
G01*
G37*
G36*
G01*
X170997500Y-82900000D02*
X171547500Y-82900000D01*
G75*
G02*
X171747500Y-83100000I0J-200000D01*
G01*
X171747500Y-83500000D01*
G75*
G02*
X171547500Y-83700000I-200000J0D01*
G01*
X170997500Y-83700000D01*
G75*
G02*
X170797500Y-83500000I0J200000D01*
G01*
X170797500Y-83100000D01*
G75*
G02*
X170997500Y-82900000I200000J0D01*
G01*
G37*
%TD*%
%TO.C,R9*%
G36*
G01*
X156560000Y-82580000D02*
X156560000Y-83130000D01*
G75*
G02*
X156360000Y-83330000I-200000J0D01*
G01*
X155960000Y-83330000D01*
G75*
G02*
X155760000Y-83130000I0J200000D01*
G01*
X155760000Y-82580000D01*
G75*
G02*
X155960000Y-82380000I200000J0D01*
G01*
X156360000Y-82380000D01*
G75*
G02*
X156560000Y-82580000I0J-200000D01*
G01*
G37*
G36*
G01*
X158210000Y-82580000D02*
X158210000Y-83130000D01*
G75*
G02*
X158010000Y-83330000I-200000J0D01*
G01*
X157610000Y-83330000D01*
G75*
G02*
X157410000Y-83130000I0J200000D01*
G01*
X157410000Y-82580000D01*
G75*
G02*
X157610000Y-82380000I200000J0D01*
G01*
X158010000Y-82380000D01*
G75*
G02*
X158210000Y-82580000I0J-200000D01*
G01*
G37*
%TD*%
%TO.C,R8*%
G36*
G01*
X134550000Y-102815000D02*
X134550000Y-102265000D01*
G75*
G02*
X134750000Y-102065000I200000J0D01*
G01*
X135150000Y-102065000D01*
G75*
G02*
X135350000Y-102265000I0J-200000D01*
G01*
X135350000Y-102815000D01*
G75*
G02*
X135150000Y-103015000I-200000J0D01*
G01*
X134750000Y-103015000D01*
G75*
G02*
X134550000Y-102815000I0J200000D01*
G01*
G37*
G36*
G01*
X132900000Y-102815000D02*
X132900000Y-102265000D01*
G75*
G02*
X133100000Y-102065000I200000J0D01*
G01*
X133500000Y-102065000D01*
G75*
G02*
X133700000Y-102265000I0J-200000D01*
G01*
X133700000Y-102815000D01*
G75*
G02*
X133500000Y-103015000I-200000J0D01*
G01*
X133100000Y-103015000D01*
G75*
G02*
X132900000Y-102815000I0J200000D01*
G01*
G37*
%TD*%
%TO.C,R7*%
G36*
G01*
X173452500Y-83700000D02*
X172902500Y-83700000D01*
G75*
G02*
X172702500Y-83500000I0J200000D01*
G01*
X172702500Y-83100000D01*
G75*
G02*
X172902500Y-82900000I200000J0D01*
G01*
X173452500Y-82900000D01*
G75*
G02*
X173652500Y-83100000I0J-200000D01*
G01*
X173652500Y-83500000D01*
G75*
G02*
X173452500Y-83700000I-200000J0D01*
G01*
G37*
G36*
G01*
X173452500Y-85350000D02*
X172902500Y-85350000D01*
G75*
G02*
X172702500Y-85150000I0J200000D01*
G01*
X172702500Y-84750000D01*
G75*
G02*
X172902500Y-84550000I200000J0D01*
G01*
X173452500Y-84550000D01*
G75*
G02*
X173652500Y-84750000I0J-200000D01*
G01*
X173652500Y-85150000D01*
G75*
G02*
X173452500Y-85350000I-200000J0D01*
G01*
G37*
%TD*%
%TO.C,R5*%
G36*
G01*
X134550000Y-104402500D02*
X134550000Y-103852500D01*
G75*
G02*
X134750000Y-103652500I200000J0D01*
G01*
X135150000Y-103652500D01*
G75*
G02*
X135350000Y-103852500I0J-200000D01*
G01*
X135350000Y-104402500D01*
G75*
G02*
X135150000Y-104602500I-200000J0D01*
G01*
X134750000Y-104602500D01*
G75*
G02*
X134550000Y-104402500I0J200000D01*
G01*
G37*
G36*
G01*
X132900000Y-104402500D02*
X132900000Y-103852500D01*
G75*
G02*
X133100000Y-103652500I200000J0D01*
G01*
X133500000Y-103652500D01*
G75*
G02*
X133700000Y-103852500I0J-200000D01*
G01*
X133700000Y-104402500D01*
G75*
G02*
X133500000Y-104602500I-200000J0D01*
G01*
X133100000Y-104602500D01*
G75*
G02*
X132900000Y-104402500I0J200000D01*
G01*
G37*
%TD*%
%TO.C,R4*%
G36*
G01*
X159165000Y-79890000D02*
X158615000Y-79890000D01*
G75*
G02*
X158415000Y-79690000I0J200000D01*
G01*
X158415000Y-79290000D01*
G75*
G02*
X158615000Y-79090000I200000J0D01*
G01*
X159165000Y-79090000D01*
G75*
G02*
X159365000Y-79290000I0J-200000D01*
G01*
X159365000Y-79690000D01*
G75*
G02*
X159165000Y-79890000I-200000J0D01*
G01*
G37*
G36*
G01*
X159165000Y-81540000D02*
X158615000Y-81540000D01*
G75*
G02*
X158415000Y-81340000I0J200000D01*
G01*
X158415000Y-80940000D01*
G75*
G02*
X158615000Y-80740000I200000J0D01*
G01*
X159165000Y-80740000D01*
G75*
G02*
X159365000Y-80940000I0J-200000D01*
G01*
X159365000Y-81340000D01*
G75*
G02*
X159165000Y-81540000I-200000J0D01*
G01*
G37*
%TD*%
%TO.C,R3*%
G36*
G01*
X158045000Y-100275000D02*
X158045000Y-99725000D01*
G75*
G02*
X158245000Y-99525000I200000J0D01*
G01*
X158645000Y-99525000D01*
G75*
G02*
X158845000Y-99725000I0J-200000D01*
G01*
X158845000Y-100275000D01*
G75*
G02*
X158645000Y-100475000I-200000J0D01*
G01*
X158245000Y-100475000D01*
G75*
G02*
X158045000Y-100275000I0J200000D01*
G01*
G37*
G36*
G01*
X156395000Y-100275000D02*
X156395000Y-99725000D01*
G75*
G02*
X156595000Y-99525000I200000J0D01*
G01*
X156995000Y-99525000D01*
G75*
G02*
X157195000Y-99725000I0J-200000D01*
G01*
X157195000Y-100275000D01*
G75*
G02*
X156995000Y-100475000I-200000J0D01*
G01*
X156595000Y-100475000D01*
G75*
G02*
X156395000Y-100275000I0J200000D01*
G01*
G37*
%TD*%
%TO.C,R2*%
G36*
G01*
X169157500Y-91067500D02*
X169157500Y-90517500D01*
G75*
G02*
X169357500Y-90317500I200000J0D01*
G01*
X169757500Y-90317500D01*
G75*
G02*
X169957500Y-90517500I0J-200000D01*
G01*
X169957500Y-91067500D01*
G75*
G02*
X169757500Y-91267500I-200000J0D01*
G01*
X169357500Y-91267500D01*
G75*
G02*
X169157500Y-91067500I0J200000D01*
G01*
G37*
G36*
G01*
X167507500Y-91067500D02*
X167507500Y-90517500D01*
G75*
G02*
X167707500Y-90317500I200000J0D01*
G01*
X168107500Y-90317500D01*
G75*
G02*
X168307500Y-90517500I0J-200000D01*
G01*
X168307500Y-91067500D01*
G75*
G02*
X168107500Y-91267500I-200000J0D01*
G01*
X167707500Y-91267500D01*
G75*
G02*
X167507500Y-91067500I0J200000D01*
G01*
G37*
%TD*%
%TO.C,R1*%
G36*
G01*
X153385000Y-97820000D02*
X153385000Y-98370000D01*
G75*
G02*
X153185000Y-98570000I-200000J0D01*
G01*
X152785000Y-98570000D01*
G75*
G02*
X152585000Y-98370000I0J200000D01*
G01*
X152585000Y-97820000D01*
G75*
G02*
X152785000Y-97620000I200000J0D01*
G01*
X153185000Y-97620000D01*
G75*
G02*
X153385000Y-97820000I0J-200000D01*
G01*
G37*
G36*
G01*
X155035000Y-97820000D02*
X155035000Y-98370000D01*
G75*
G02*
X154835000Y-98570000I-200000J0D01*
G01*
X154435000Y-98570000D01*
G75*
G02*
X154235000Y-98370000I0J200000D01*
G01*
X154235000Y-97820000D01*
G75*
G02*
X154435000Y-97620000I200000J0D01*
G01*
X154835000Y-97620000D01*
G75*
G02*
X155035000Y-97820000I0J-200000D01*
G01*
G37*
%TD*%
D11*
%TO.C,Q3*%
X151317500Y-102857500D03*
X149317500Y-103807500D03*
X149317500Y-101907500D03*
%TD*%
D12*
%TO.C,Q2*%
X154127500Y-99952500D03*
X155077500Y-101952500D03*
X153177500Y-101952500D03*
%TD*%
%TO.C,Q1*%
X153810000Y-94237500D03*
X154760000Y-96237500D03*
X152860000Y-96237500D03*
%TD*%
%TO.C,L1*%
G36*
G01*
X158245000Y-96253750D02*
X158245000Y-95491250D01*
G75*
G02*
X158463750Y-95272500I218750J0D01*
G01*
X158901250Y-95272500D01*
G75*
G02*
X159120000Y-95491250I0J-218750D01*
G01*
X159120000Y-96253750D01*
G75*
G02*
X158901250Y-96472500I-218750J0D01*
G01*
X158463750Y-96472500D01*
G75*
G02*
X158245000Y-96253750I0J218750D01*
G01*
G37*
G36*
G01*
X156120000Y-96253750D02*
X156120000Y-95491250D01*
G75*
G02*
X156338750Y-95272500I218750J0D01*
G01*
X156776250Y-95272500D01*
G75*
G02*
X156995000Y-95491250I0J-218750D01*
G01*
X156995000Y-96253750D01*
G75*
G02*
X156776250Y-96472500I-218750J0D01*
G01*
X156338750Y-96472500D01*
G75*
G02*
X156120000Y-96253750I0J218750D01*
G01*
G37*
%TD*%
D10*
%TO.C,K1*%
X138877500Y-93007500D03*
X135677500Y-93007500D03*
X133477500Y-93007500D03*
X131277500Y-93007500D03*
X131277500Y-100007500D03*
X133477500Y-100007500D03*
X135677500Y-100007500D03*
X138877500Y-100007500D03*
%TD*%
D13*
%TO.C,D4*%
X147142500Y-103717500D03*
X147142500Y-100217500D03*
%TD*%
D14*
%TO.C,D3*%
X150062500Y-97777500D03*
X146762500Y-97777500D03*
%TD*%
%TO.C,D2*%
G36*
G01*
X145176250Y-96475000D02*
X144663750Y-96475000D01*
G75*
G02*
X144445000Y-96256250I0J218750D01*
G01*
X144445000Y-95818750D01*
G75*
G02*
X144663750Y-95600000I218750J0D01*
G01*
X145176250Y-95600000D01*
G75*
G02*
X145395000Y-95818750I0J-218750D01*
G01*
X145395000Y-96256250D01*
G75*
G02*
X145176250Y-96475000I-218750J0D01*
G01*
G37*
G36*
G01*
X145176250Y-98050000D02*
X144663750Y-98050000D01*
G75*
G02*
X144445000Y-97831250I0J218750D01*
G01*
X144445000Y-97393750D01*
G75*
G02*
X144663750Y-97175000I218750J0D01*
G01*
X145176250Y-97175000D01*
G75*
G02*
X145395000Y-97393750I0J-218750D01*
G01*
X145395000Y-97831250D01*
G75*
G02*
X145176250Y-98050000I-218750J0D01*
G01*
G37*
%TD*%
D15*
%TO.C,D1*%
X146980000Y-95237500D03*
X150480000Y-95237500D03*
%TD*%
%TO.C,C9*%
G36*
G01*
X163150000Y-76255000D02*
X163150000Y-76755000D01*
G75*
G02*
X162925000Y-76980000I-225000J0D01*
G01*
X162475000Y-76980000D01*
G75*
G02*
X162250000Y-76755000I0J225000D01*
G01*
X162250000Y-76255000D01*
G75*
G02*
X162475000Y-76030000I225000J0D01*
G01*
X162925000Y-76030000D01*
G75*
G02*
X163150000Y-76255000I0J-225000D01*
G01*
G37*
G36*
G01*
X164700000Y-76255000D02*
X164700000Y-76755000D01*
G75*
G02*
X164475000Y-76980000I-225000J0D01*
G01*
X164025000Y-76980000D01*
G75*
G02*
X163800000Y-76755000I0J225000D01*
G01*
X163800000Y-76255000D01*
G75*
G02*
X164025000Y-76030000I225000J0D01*
G01*
X164475000Y-76030000D01*
G75*
G02*
X164700000Y-76255000I0J-225000D01*
G01*
G37*
%TD*%
M02*
