%TF.GenerationSoftware,KiCad,Pcbnew,(5.1.9-0-10_14)*%
%TF.CreationDate,2021-03-07T16:31:49+01:00*%
%TF.ProjectId,W-Output HP,572d4f75-7470-4757-9420-48502e6b6963,1*%
%TF.SameCoordinates,Original*%
%TF.FileFunction,Copper,L4,Bot*%
%TF.FilePolarity,Positive*%
%FSLAX46Y46*%
G04 Gerber Fmt 4.6, Leading zero omitted, Abs format (unit mm)*
G04 Created by KiCad (PCBNEW (5.1.9-0-10_14)) date 2021-03-07 16:31:49*
%MOMM*%
%LPD*%
G01*
G04 APERTURE LIST*
%TA.AperFunction,ComponentPad*%
%ADD10C,2.900000*%
%TD*%
%TA.AperFunction,ComponentPad*%
%ADD11C,3.400000*%
%TD*%
%TA.AperFunction,ComponentPad*%
%ADD12O,1.700000X1.700000*%
%TD*%
%TA.AperFunction,ComponentPad*%
%ADD13R,1.700000X1.700000*%
%TD*%
%TA.AperFunction,ComponentPad*%
%ADD14C,1.600000*%
%TD*%
%TA.AperFunction,ComponentPad*%
%ADD15R,1.600000X1.600000*%
%TD*%
%TA.AperFunction,SMDPad,CuDef*%
%ADD16R,10.800000X9.400000*%
%TD*%
%TA.AperFunction,SMDPad,CuDef*%
%ADD17R,1.100000X4.600000*%
%TD*%
%TA.AperFunction,ComponentPad*%
%ADD18C,5.600000*%
%TD*%
%TA.AperFunction,ViaPad*%
%ADD19C,0.600000*%
%TD*%
%TA.AperFunction,Conductor*%
%ADD20C,0.400000*%
%TD*%
%TA.AperFunction,Conductor*%
%ADD21C,0.200000*%
%TD*%
%TA.AperFunction,Conductor*%
%ADD22C,0.254000*%
%TD*%
%TA.AperFunction,Conductor*%
%ADD23C,0.100000*%
%TD*%
G04 APERTURE END LIST*
D10*
%TO.P,J5,G*%
%TO.N,Earth*%
X162000000Y-112300000D03*
%TO.P,J5,3*%
%TO.N,/R+*%
X162000000Y-107220000D03*
D11*
%TO.P,J5,1*%
%TO.N,Earth*%
X158190000Y-107220000D03*
%TO.P,J5,2*%
%TO.N,/R-*%
X165810000Y-107220000D03*
%TD*%
D12*
%TO.P,J3,3*%
%TO.N,/R+*%
X152540000Y-106985000D03*
%TO.P,J3,2*%
%TO.N,/L+*%
X150000000Y-106985000D03*
D13*
%TO.P,J3,1*%
%TO.N,GND*%
X147460000Y-106985000D03*
%TD*%
D14*
%TO.P,C21,2*%
%TO.N,GND*%
X153810000Y-79957500D03*
D15*
%TO.P,C21,1*%
%TO.N,VCC*%
X153810000Y-77457500D03*
%TD*%
D14*
%TO.P,C8,2*%
%TO.N,VEE*%
X146190000Y-79957500D03*
D15*
%TO.P,C8,1*%
%TO.N,GND*%
X146190000Y-77457500D03*
%TD*%
D12*
%TO.P,J2,8*%
%TO.N,/Rp*%
X127200000Y-112780000D03*
%TO.P,J2,7*%
%TO.N,/Rn*%
X127200000Y-110240000D03*
%TO.P,J2,6*%
%TO.N,GND*%
X127200000Y-107700000D03*
%TO.P,J2,5*%
%TO.N,VEE*%
X127200000Y-105160000D03*
%TO.P,J2,4*%
%TO.N,VCC*%
X127200000Y-102620000D03*
%TO.P,J2,3*%
%TO.N,GND*%
X127200000Y-100080000D03*
%TO.P,J2,2*%
%TO.N,Net-(J2-Pad2)*%
X127200000Y-97540000D03*
D13*
%TO.P,J2,1*%
%TO.N,GND*%
X127200000Y-95000000D03*
%TD*%
D12*
%TO.P,J1,10*%
%TO.N,/Lp*%
X172560000Y-112780000D03*
%TO.P,J1,9*%
%TO.N,/Ln*%
X172560000Y-110240000D03*
%TO.P,J1,8*%
%TO.N,GND*%
X172560000Y-107700000D03*
%TO.P,J1,7*%
%TO.N,Net-(J1-Pad7)*%
X172560000Y-105160000D03*
%TO.P,J1,6*%
%TO.N,Net-(J1-Pad6)*%
X172560000Y-102620000D03*
%TO.P,J1,5*%
%TO.N,Net-(J1-Pad5)*%
X172560000Y-100080000D03*
%TO.P,J1,4*%
%TO.N,Net-(J1-Pad4)*%
X172560000Y-97540000D03*
%TO.P,J1,3*%
%TO.N,GND*%
X172560000Y-95000000D03*
%TO.P,J1,2*%
%TO.N,Net-(J1-Pad2)*%
X172560000Y-92460000D03*
D13*
%TO.P,J1,1*%
%TO.N,GND*%
X172560000Y-89920000D03*
%TD*%
D10*
%TO.P,J4,G*%
%TO.N,Earth*%
X138000000Y-112300000D03*
%TO.P,J4,3*%
%TO.N,/L+*%
X138000000Y-107220000D03*
D11*
%TO.P,J4,1*%
%TO.N,Earth*%
X134190000Y-107220000D03*
%TO.P,J4,2*%
%TO.N,/L-*%
X141810000Y-107220000D03*
%TD*%
D16*
%TO.P,U5,3*%
%TO.N,VEE*%
X162700000Y-98295000D03*
D17*
%TO.P,U5,5*%
%TO.N,VCC*%
X166100000Y-89145000D03*
%TO.P,U5,4*%
%TO.N,Net-(JP7-Pad1)*%
X164400000Y-89145000D03*
%TO.P,U5,3*%
%TO.N,VEE*%
X162700000Y-89145000D03*
%TO.P,U5,2*%
%TO.N,Net-(C17-Pad2)*%
X161000000Y-89145000D03*
%TO.P,U5,1*%
%TO.N,Net-(R33-Pad2)*%
X159300000Y-89145000D03*
%TD*%
D16*
%TO.P,U4,3*%
%TO.N,VEE*%
X137300000Y-98295000D03*
D17*
%TO.P,U4,5*%
%TO.N,VCC*%
X140700000Y-89145000D03*
%TO.P,U4,4*%
%TO.N,Net-(JP2-Pad1)*%
X139000000Y-89145000D03*
%TO.P,U4,3*%
%TO.N,VEE*%
X137300000Y-89145000D03*
%TO.P,U4,2*%
%TO.N,Net-(C4-Pad2)*%
X135600000Y-89145000D03*
%TO.P,U4,1*%
%TO.N,Net-(R15-Pad2)*%
X133900000Y-89145000D03*
%TD*%
D18*
%TO.P,H4,1*%
%TO.N,Earth*%
X171000000Y-121000000D03*
%TD*%
%TO.P,H3,1*%
%TO.N,Earth*%
X129000000Y-121000000D03*
%TD*%
%TO.P,H2,1*%
%TO.N,Earth*%
X171000000Y-79000000D03*
%TD*%
%TO.P,H1,1*%
%TO.N,Earth*%
X129000000Y-79000000D03*
%TD*%
D19*
%TO.N,VCC*%
X141110000Y-88252500D03*
X141110000Y-90475000D03*
X166510000Y-90475000D03*
X166510000Y-88252500D03*
X146507500Y-92697500D03*
X161747500Y-76505000D03*
X153492500Y-83172500D03*
X147777500Y-97777500D03*
X143967500Y-99047500D03*
X138237250Y-86022375D03*
%TO.N,GND*%
X134445000Y-86350000D03*
X129045000Y-85712500D03*
X171272500Y-85712500D03*
X159842500Y-86347500D03*
X163652500Y-86347500D03*
X136030000Y-76505000D03*
X165240000Y-76505000D03*
X145555000Y-82220000D03*
X154445000Y-82220000D03*
X150317500Y-85077500D03*
X149682500Y-92697500D03*
X134760000Y-85395000D03*
X163652500Y-85395000D03*
X150000000Y-83172500D03*
X147142500Y-104762500D03*
X155715000Y-103810000D03*
X155985000Y-101952500D03*
X157302500Y-104762500D03*
X142697500Y-104762500D03*
X163335000Y-92060000D03*
X163335000Y-93015000D03*
X159207500Y-91872002D03*
X164605000Y-105080000D03*
X155715000Y-97142500D03*
X150315000Y-103807500D03*
X135712500Y-103492500D03*
X138887500Y-86347500D03*
X131585000Y-89205000D03*
X141681500Y-89332000D03*
X127775000Y-90157500D03*
%TO.N,VEE*%
X137300000Y-88252500D03*
X137300000Y-90475000D03*
X162700000Y-90475000D03*
X162700000Y-88252500D03*
X153492500Y-85077500D03*
X132537500Y-76505000D03*
X167462500Y-86030000D03*
X144920000Y-104762500D03*
X157937500Y-90792500D03*
X132537500Y-90792500D03*
X146825000Y-83172500D03*
%TO.N,Net-(JP2-Pad1)*%
X132537500Y-93015000D03*
%TO.N,Net-(JP7-Pad1)*%
X167780000Y-92697500D03*
%TO.N,Net-(J1-Pad2)*%
X170400000Y-92460000D03*
%TO.N,Net-(J1-Pad4)*%
X170320000Y-97460000D03*
%TO.N,Net-(R15-Pad2)*%
X132537500Y-87617500D03*
%TO.N,Net-(R33-Pad2)*%
X157937500Y-87617500D03*
%TO.N,Net-(C4-Pad2)*%
X141745000Y-85712500D03*
%TO.N,Net-(C17-Pad2)*%
X159294480Y-92784480D03*
%TD*%
D20*
%TO.N,VCC*%
X140700000Y-88662500D02*
X141110000Y-88252500D01*
X140700000Y-89145000D02*
X140700000Y-88662500D01*
X140700000Y-90065000D02*
X141110000Y-90475000D01*
X140700000Y-89145000D02*
X140700000Y-90065000D01*
X166100000Y-90065000D02*
X166510000Y-90475000D01*
X166100000Y-89145000D02*
X166100000Y-90065000D01*
X166100000Y-88662500D02*
X166510000Y-88252500D01*
X166100000Y-89145000D02*
X166100000Y-88662500D01*
%TO.N,VEE*%
X137300000Y-89145000D02*
X137300000Y-88252500D01*
X137300000Y-89145000D02*
X137300000Y-90475000D01*
X162700000Y-89145000D02*
X162700000Y-90475000D01*
X162700000Y-89145000D02*
X162700000Y-88252500D01*
D21*
%TO.N,Net-(JP2-Pad1)*%
X139000000Y-89145000D02*
X139000000Y-89727500D01*
X139000000Y-92697500D02*
X139000000Y-89145000D01*
X138682500Y-93015000D02*
X139000000Y-92697500D01*
X132537500Y-93015000D02*
X138682500Y-93015000D01*
%TO.N,Net-(JP7-Pad1)*%
X167780000Y-92697500D02*
X165240000Y-92697500D01*
X164400000Y-91857500D02*
X164400000Y-89145000D01*
X165240000Y-92697500D02*
X164400000Y-91857500D01*
D20*
%TO.N,Net-(J1-Pad2)*%
X172800000Y-92460000D02*
X170400000Y-92460000D01*
D21*
%TO.N,Net-(J1-Pad4)*%
X170400000Y-97540000D02*
X170320000Y-97460000D01*
X172800000Y-97540000D02*
X170400000Y-97540000D01*
%TO.N,Net-(R15-Pad2)*%
X133900000Y-89145000D02*
X133900000Y-88345000D01*
X133900000Y-89145000D02*
X133900000Y-87710000D01*
X133807500Y-87617500D02*
X132537500Y-87617500D01*
X133900000Y-87710000D02*
X133807500Y-87617500D01*
%TO.N,Net-(R33-Pad2)*%
X159300000Y-89145000D02*
X159300000Y-87710000D01*
X159207500Y-87617500D02*
X157937500Y-87617500D01*
X159300000Y-87710000D02*
X159207500Y-87617500D01*
%TO.N,Net-(C4-Pad2)*%
X135600000Y-85507500D02*
X135600000Y-89145000D01*
X141745000Y-85712500D02*
X141745000Y-84760000D01*
X141745000Y-84760000D02*
X141427500Y-84442500D01*
X141427500Y-84442500D02*
X136030000Y-84442500D01*
X135600000Y-84872500D02*
X135600000Y-85507500D01*
X136030000Y-84442500D02*
X135600000Y-84872500D01*
%TO.N,Net-(C17-Pad2)*%
X161000000Y-91857500D02*
X161000000Y-89145000D01*
X161000000Y-92492500D02*
X161000000Y-91857500D01*
X159294480Y-92784480D02*
X160708020Y-92784480D01*
X160708020Y-92784480D02*
X161000000Y-92492500D01*
%TD*%
D22*
%TO.N,VEE*%
X174114994Y-75419222D02*
X174225614Y-75452620D01*
X174327639Y-75506868D01*
X174417179Y-75579895D01*
X174490833Y-75668925D01*
X174545792Y-75770572D01*
X174579960Y-75880949D01*
X174594001Y-76014538D01*
X174594000Y-123980146D01*
X174580778Y-124114994D01*
X174547379Y-124225615D01*
X174493132Y-124327639D01*
X174420106Y-124417179D01*
X174331072Y-124490834D01*
X174229428Y-124545792D01*
X174119051Y-124579960D01*
X173985472Y-124594000D01*
X126019854Y-124594000D01*
X125885006Y-124580778D01*
X125774385Y-124547379D01*
X125672361Y-124493132D01*
X125582821Y-124420106D01*
X125509166Y-124331072D01*
X125454208Y-124229428D01*
X125420040Y-124119051D01*
X125406000Y-123985472D01*
X125406000Y-120686699D01*
X125819000Y-120686699D01*
X125819000Y-121313301D01*
X125941245Y-121927863D01*
X126181035Y-122506768D01*
X126529156Y-123027769D01*
X126972231Y-123470844D01*
X127493232Y-123818965D01*
X128072137Y-124058755D01*
X128686699Y-124181000D01*
X129313301Y-124181000D01*
X129927863Y-124058755D01*
X130506768Y-123818965D01*
X131027769Y-123470844D01*
X131470844Y-123027769D01*
X131818965Y-122506768D01*
X132058755Y-121927863D01*
X132181000Y-121313301D01*
X132181000Y-121073682D01*
X140629000Y-121073682D01*
X140629000Y-121306318D01*
X140674386Y-121534485D01*
X140763412Y-121749413D01*
X140892658Y-121942843D01*
X141057157Y-122107342D01*
X141250587Y-122236588D01*
X141465515Y-122325614D01*
X141693682Y-122371000D01*
X141926318Y-122371000D01*
X142154485Y-122325614D01*
X142369413Y-122236588D01*
X142562843Y-122107342D01*
X142727342Y-121942843D01*
X142856588Y-121749413D01*
X142945614Y-121534485D01*
X142991000Y-121306318D01*
X142991000Y-121073682D01*
X164629000Y-121073682D01*
X164629000Y-121306318D01*
X164674386Y-121534485D01*
X164763412Y-121749413D01*
X164892658Y-121942843D01*
X165057157Y-122107342D01*
X165250587Y-122236588D01*
X165465515Y-122325614D01*
X165693682Y-122371000D01*
X165926318Y-122371000D01*
X166154485Y-122325614D01*
X166369413Y-122236588D01*
X166562843Y-122107342D01*
X166727342Y-121942843D01*
X166856588Y-121749413D01*
X166945614Y-121534485D01*
X166991000Y-121306318D01*
X166991000Y-121073682D01*
X166945614Y-120845515D01*
X166879831Y-120686699D01*
X167819000Y-120686699D01*
X167819000Y-121313301D01*
X167941245Y-121927863D01*
X168181035Y-122506768D01*
X168529156Y-123027769D01*
X168972231Y-123470844D01*
X169493232Y-123818965D01*
X170072137Y-124058755D01*
X170686699Y-124181000D01*
X171313301Y-124181000D01*
X171927863Y-124058755D01*
X172506768Y-123818965D01*
X173027769Y-123470844D01*
X173470844Y-123027769D01*
X173818965Y-122506768D01*
X174058755Y-121927863D01*
X174181000Y-121313301D01*
X174181000Y-120686699D01*
X174058755Y-120072137D01*
X173818965Y-119493232D01*
X173470844Y-118972231D01*
X173027769Y-118529156D01*
X172506768Y-118181035D01*
X171927863Y-117941245D01*
X171313301Y-117819000D01*
X170686699Y-117819000D01*
X170072137Y-117941245D01*
X169493232Y-118181035D01*
X168972231Y-118529156D01*
X168529156Y-118972231D01*
X168181035Y-119493232D01*
X167941245Y-120072137D01*
X167819000Y-120686699D01*
X166879831Y-120686699D01*
X166856588Y-120630587D01*
X166727342Y-120437157D01*
X166562843Y-120272658D01*
X166369413Y-120143412D01*
X166154485Y-120054386D01*
X165926318Y-120009000D01*
X165693682Y-120009000D01*
X165465515Y-120054386D01*
X165250587Y-120143412D01*
X165057157Y-120272658D01*
X164892658Y-120437157D01*
X164763412Y-120630587D01*
X164674386Y-120845515D01*
X164629000Y-121073682D01*
X142991000Y-121073682D01*
X142945614Y-120845515D01*
X142856588Y-120630587D01*
X142727342Y-120437157D01*
X142562843Y-120272658D01*
X142369413Y-120143412D01*
X142154485Y-120054386D01*
X141926318Y-120009000D01*
X141693682Y-120009000D01*
X141465515Y-120054386D01*
X141250587Y-120143412D01*
X141057157Y-120272658D01*
X140892658Y-120437157D01*
X140763412Y-120630587D01*
X140674386Y-120845515D01*
X140629000Y-121073682D01*
X132181000Y-121073682D01*
X132181000Y-120686699D01*
X132058755Y-120072137D01*
X131818965Y-119493232D01*
X131470844Y-118972231D01*
X131027769Y-118529156D01*
X130506768Y-118181035D01*
X129927863Y-117941245D01*
X129313301Y-117819000D01*
X128686699Y-117819000D01*
X128072137Y-117941245D01*
X127493232Y-118181035D01*
X126972231Y-118529156D01*
X126529156Y-118972231D01*
X126181035Y-119493232D01*
X125941245Y-120072137D01*
X125819000Y-120686699D01*
X125406000Y-120686699D01*
X125406000Y-115905744D01*
X126043000Y-115905744D01*
X126043000Y-116094256D01*
X126079777Y-116279147D01*
X126151917Y-116453310D01*
X126256649Y-116610052D01*
X126389948Y-116743351D01*
X126546690Y-116848083D01*
X126720853Y-116920223D01*
X126905744Y-116957000D01*
X127094256Y-116957000D01*
X127279147Y-116920223D01*
X127453310Y-116848083D01*
X127610052Y-116743351D01*
X127743351Y-116610052D01*
X127848083Y-116453310D01*
X127920223Y-116279147D01*
X127957000Y-116094256D01*
X127957000Y-115993682D01*
X133009000Y-115993682D01*
X133009000Y-116226318D01*
X133054386Y-116454485D01*
X133143412Y-116669413D01*
X133272658Y-116862843D01*
X133437157Y-117027342D01*
X133630587Y-117156588D01*
X133845515Y-117245614D01*
X134073682Y-117291000D01*
X134306318Y-117291000D01*
X134534485Y-117245614D01*
X134749413Y-117156588D01*
X134942843Y-117027342D01*
X135107342Y-116862843D01*
X135236588Y-116669413D01*
X135325614Y-116454485D01*
X135371000Y-116226318D01*
X135371000Y-115993682D01*
X157009000Y-115993682D01*
X157009000Y-116226318D01*
X157054386Y-116454485D01*
X157143412Y-116669413D01*
X157272658Y-116862843D01*
X157437157Y-117027342D01*
X157630587Y-117156588D01*
X157845515Y-117245614D01*
X158073682Y-117291000D01*
X158306318Y-117291000D01*
X158534485Y-117245614D01*
X158749413Y-117156588D01*
X158942843Y-117027342D01*
X159107342Y-116862843D01*
X159236588Y-116669413D01*
X159325614Y-116454485D01*
X159371000Y-116226318D01*
X159371000Y-115993682D01*
X159353508Y-115905744D01*
X172043000Y-115905744D01*
X172043000Y-116094256D01*
X172079777Y-116279147D01*
X172151917Y-116453310D01*
X172256649Y-116610052D01*
X172389948Y-116743351D01*
X172546690Y-116848083D01*
X172720853Y-116920223D01*
X172905744Y-116957000D01*
X173094256Y-116957000D01*
X173279147Y-116920223D01*
X173453310Y-116848083D01*
X173610052Y-116743351D01*
X173743351Y-116610052D01*
X173848083Y-116453310D01*
X173920223Y-116279147D01*
X173957000Y-116094256D01*
X173957000Y-115905744D01*
X173920223Y-115720853D01*
X173848083Y-115546690D01*
X173743351Y-115389948D01*
X173610052Y-115256649D01*
X173453310Y-115151917D01*
X173279147Y-115079777D01*
X173094256Y-115043000D01*
X172905744Y-115043000D01*
X172720853Y-115079777D01*
X172546690Y-115151917D01*
X172389948Y-115256649D01*
X172256649Y-115389948D01*
X172151917Y-115546690D01*
X172079777Y-115720853D01*
X172043000Y-115905744D01*
X159353508Y-115905744D01*
X159325614Y-115765515D01*
X159236588Y-115550587D01*
X159107342Y-115357157D01*
X158942843Y-115192658D01*
X158749413Y-115063412D01*
X158534485Y-114974386D01*
X158306318Y-114929000D01*
X158073682Y-114929000D01*
X157845515Y-114974386D01*
X157630587Y-115063412D01*
X157437157Y-115192658D01*
X157272658Y-115357157D01*
X157143412Y-115550587D01*
X157054386Y-115765515D01*
X157009000Y-115993682D01*
X135371000Y-115993682D01*
X135325614Y-115765515D01*
X135236588Y-115550587D01*
X135107342Y-115357157D01*
X134942843Y-115192658D01*
X134749413Y-115063412D01*
X134534485Y-114974386D01*
X134306318Y-114929000D01*
X134073682Y-114929000D01*
X133845515Y-114974386D01*
X133630587Y-115063412D01*
X133437157Y-115192658D01*
X133272658Y-115357157D01*
X133143412Y-115550587D01*
X133054386Y-115765515D01*
X133009000Y-115993682D01*
X127957000Y-115993682D01*
X127957000Y-115905744D01*
X127920223Y-115720853D01*
X127848083Y-115546690D01*
X127743351Y-115389948D01*
X127610052Y-115256649D01*
X127453310Y-115151917D01*
X127279147Y-115079777D01*
X127094256Y-115043000D01*
X126905744Y-115043000D01*
X126720853Y-115079777D01*
X126546690Y-115151917D01*
X126389948Y-115256649D01*
X126256649Y-115389948D01*
X126151917Y-115546690D01*
X126079777Y-115720853D01*
X126043000Y-115905744D01*
X125406000Y-115905744D01*
X125406000Y-112658757D01*
X125969000Y-112658757D01*
X125969000Y-112901243D01*
X126016307Y-113139069D01*
X126109102Y-113363097D01*
X126243820Y-113564717D01*
X126415283Y-113736180D01*
X126616903Y-113870898D01*
X126840931Y-113963693D01*
X127078757Y-114011000D01*
X127321243Y-114011000D01*
X127559069Y-113963693D01*
X127783097Y-113870898D01*
X127984717Y-113736180D01*
X128156180Y-113564717D01*
X128290898Y-113363097D01*
X128383693Y-113139069D01*
X128431000Y-112901243D01*
X128431000Y-112658757D01*
X128383693Y-112420931D01*
X128290898Y-112196903D01*
X128239288Y-112119662D01*
X136169000Y-112119662D01*
X136169000Y-112480338D01*
X136239365Y-112834083D01*
X136377389Y-113167304D01*
X136577770Y-113467194D01*
X136832806Y-113722230D01*
X137132696Y-113922611D01*
X137465917Y-114060635D01*
X137819662Y-114131000D01*
X138180338Y-114131000D01*
X138534083Y-114060635D01*
X138867304Y-113922611D01*
X139167194Y-113722230D01*
X139422230Y-113467194D01*
X139622611Y-113167304D01*
X139760635Y-112834083D01*
X139831000Y-112480338D01*
X139831000Y-112119662D01*
X160169000Y-112119662D01*
X160169000Y-112480338D01*
X160239365Y-112834083D01*
X160377389Y-113167304D01*
X160577770Y-113467194D01*
X160832806Y-113722230D01*
X161132696Y-113922611D01*
X161465917Y-114060635D01*
X161819662Y-114131000D01*
X162180338Y-114131000D01*
X162534083Y-114060635D01*
X162867304Y-113922611D01*
X163167194Y-113722230D01*
X163422230Y-113467194D01*
X163622611Y-113167304D01*
X163760635Y-112834083D01*
X163795509Y-112658757D01*
X171329000Y-112658757D01*
X171329000Y-112901243D01*
X171376307Y-113139069D01*
X171469102Y-113363097D01*
X171603820Y-113564717D01*
X171775283Y-113736180D01*
X171976903Y-113870898D01*
X172200931Y-113963693D01*
X172438757Y-114011000D01*
X172681243Y-114011000D01*
X172919069Y-113963693D01*
X173143097Y-113870898D01*
X173344717Y-113736180D01*
X173516180Y-113564717D01*
X173650898Y-113363097D01*
X173743693Y-113139069D01*
X173791000Y-112901243D01*
X173791000Y-112658757D01*
X173743693Y-112420931D01*
X173650898Y-112196903D01*
X173516180Y-111995283D01*
X173344717Y-111823820D01*
X173143097Y-111689102D01*
X172919069Y-111596307D01*
X172681243Y-111549000D01*
X172438757Y-111549000D01*
X172200931Y-111596307D01*
X171976903Y-111689102D01*
X171775283Y-111823820D01*
X171603820Y-111995283D01*
X171469102Y-112196903D01*
X171376307Y-112420931D01*
X171329000Y-112658757D01*
X163795509Y-112658757D01*
X163831000Y-112480338D01*
X163831000Y-112119662D01*
X163760635Y-111765917D01*
X163622611Y-111432696D01*
X163422230Y-111132806D01*
X163167194Y-110877770D01*
X162867304Y-110677389D01*
X162534083Y-110539365D01*
X162180338Y-110469000D01*
X161819662Y-110469000D01*
X161465917Y-110539365D01*
X161132696Y-110677389D01*
X160832806Y-110877770D01*
X160577770Y-111132806D01*
X160377389Y-111432696D01*
X160239365Y-111765917D01*
X160169000Y-112119662D01*
X139831000Y-112119662D01*
X139760635Y-111765917D01*
X139622611Y-111432696D01*
X139422230Y-111132806D01*
X139167194Y-110877770D01*
X138867304Y-110677389D01*
X138534083Y-110539365D01*
X138180338Y-110469000D01*
X137819662Y-110469000D01*
X137465917Y-110539365D01*
X137132696Y-110677389D01*
X136832806Y-110877770D01*
X136577770Y-111132806D01*
X136377389Y-111432696D01*
X136239365Y-111765917D01*
X136169000Y-112119662D01*
X128239288Y-112119662D01*
X128156180Y-111995283D01*
X127984717Y-111823820D01*
X127783097Y-111689102D01*
X127559069Y-111596307D01*
X127321243Y-111549000D01*
X127078757Y-111549000D01*
X126840931Y-111596307D01*
X126616903Y-111689102D01*
X126415283Y-111823820D01*
X126243820Y-111995283D01*
X126109102Y-112196903D01*
X126016307Y-112420931D01*
X125969000Y-112658757D01*
X125406000Y-112658757D01*
X125406000Y-110118757D01*
X125969000Y-110118757D01*
X125969000Y-110361243D01*
X126016307Y-110599069D01*
X126109102Y-110823097D01*
X126243820Y-111024717D01*
X126415283Y-111196180D01*
X126616903Y-111330898D01*
X126840931Y-111423693D01*
X127078757Y-111471000D01*
X127321243Y-111471000D01*
X127559069Y-111423693D01*
X127783097Y-111330898D01*
X127984717Y-111196180D01*
X128156180Y-111024717D01*
X128290898Y-110823097D01*
X128383693Y-110599069D01*
X128431000Y-110361243D01*
X128431000Y-110118757D01*
X171329000Y-110118757D01*
X171329000Y-110361243D01*
X171376307Y-110599069D01*
X171469102Y-110823097D01*
X171603820Y-111024717D01*
X171775283Y-111196180D01*
X171976903Y-111330898D01*
X172200931Y-111423693D01*
X172438757Y-111471000D01*
X172681243Y-111471000D01*
X172919069Y-111423693D01*
X173143097Y-111330898D01*
X173344717Y-111196180D01*
X173516180Y-111024717D01*
X173650898Y-110823097D01*
X173743693Y-110599069D01*
X173791000Y-110361243D01*
X173791000Y-110118757D01*
X173743693Y-109880931D01*
X173650898Y-109656903D01*
X173516180Y-109455283D01*
X173344717Y-109283820D01*
X173143097Y-109149102D01*
X172919069Y-109056307D01*
X172681243Y-109009000D01*
X172438757Y-109009000D01*
X172200931Y-109056307D01*
X171976903Y-109149102D01*
X171775283Y-109283820D01*
X171603820Y-109455283D01*
X171469102Y-109656903D01*
X171376307Y-109880931D01*
X171329000Y-110118757D01*
X128431000Y-110118757D01*
X128383693Y-109880931D01*
X128290898Y-109656903D01*
X128156180Y-109455283D01*
X127984717Y-109283820D01*
X127783097Y-109149102D01*
X127559069Y-109056307D01*
X127321243Y-109009000D01*
X127078757Y-109009000D01*
X126840931Y-109056307D01*
X126616903Y-109149102D01*
X126415283Y-109283820D01*
X126243820Y-109455283D01*
X126109102Y-109656903D01*
X126016307Y-109880931D01*
X125969000Y-110118757D01*
X125406000Y-110118757D01*
X125406000Y-107578757D01*
X125969000Y-107578757D01*
X125969000Y-107821243D01*
X126016307Y-108059069D01*
X126109102Y-108283097D01*
X126243820Y-108484717D01*
X126415283Y-108656180D01*
X126616903Y-108790898D01*
X126840931Y-108883693D01*
X127078757Y-108931000D01*
X127321243Y-108931000D01*
X127559069Y-108883693D01*
X127783097Y-108790898D01*
X127984717Y-108656180D01*
X128156180Y-108484717D01*
X128290898Y-108283097D01*
X128383693Y-108059069D01*
X128431000Y-107821243D01*
X128431000Y-107578757D01*
X128383693Y-107340931D01*
X128290898Y-107116903D01*
X128222835Y-107015039D01*
X132109000Y-107015039D01*
X132109000Y-107424961D01*
X132188972Y-107827005D01*
X132345842Y-108205723D01*
X132573582Y-108546560D01*
X132863440Y-108836418D01*
X133204277Y-109064158D01*
X133582995Y-109221028D01*
X133985039Y-109301000D01*
X134394961Y-109301000D01*
X134797005Y-109221028D01*
X135175723Y-109064158D01*
X135516560Y-108836418D01*
X135806418Y-108546560D01*
X136034158Y-108205723D01*
X136191028Y-107827005D01*
X136222449Y-107669042D01*
X136239365Y-107754083D01*
X136377389Y-108087304D01*
X136577770Y-108387194D01*
X136832806Y-108642230D01*
X137132696Y-108842611D01*
X137465917Y-108980635D01*
X137819662Y-109051000D01*
X138180338Y-109051000D01*
X138534083Y-108980635D01*
X138867304Y-108842611D01*
X139167194Y-108642230D01*
X139422230Y-108387194D01*
X139622611Y-108087304D01*
X139760635Y-107754083D01*
X139777551Y-107669042D01*
X139808972Y-107827005D01*
X139965842Y-108205723D01*
X140193582Y-108546560D01*
X140483440Y-108836418D01*
X140824277Y-109064158D01*
X141202995Y-109221028D01*
X141605039Y-109301000D01*
X142014961Y-109301000D01*
X142417005Y-109221028D01*
X142795723Y-109064158D01*
X143136560Y-108836418D01*
X143426418Y-108546560D01*
X143654158Y-108205723D01*
X143811028Y-107827005D01*
X143891000Y-107424961D01*
X143891000Y-107015039D01*
X143811028Y-106612995D01*
X143654158Y-106234277D01*
X143587824Y-106135000D01*
X146227157Y-106135000D01*
X146227157Y-107835000D01*
X146234513Y-107909689D01*
X146256299Y-107981508D01*
X146291678Y-108047696D01*
X146339289Y-108105711D01*
X146397304Y-108153322D01*
X146463492Y-108188701D01*
X146535311Y-108210487D01*
X146610000Y-108217843D01*
X148310000Y-108217843D01*
X148384689Y-108210487D01*
X148456508Y-108188701D01*
X148522696Y-108153322D01*
X148580711Y-108105711D01*
X148628322Y-108047696D01*
X148663701Y-107981508D01*
X148685487Y-107909689D01*
X148692843Y-107835000D01*
X148692843Y-106863757D01*
X148769000Y-106863757D01*
X148769000Y-107106243D01*
X148816307Y-107344069D01*
X148909102Y-107568097D01*
X149043820Y-107769717D01*
X149215283Y-107941180D01*
X149416903Y-108075898D01*
X149640931Y-108168693D01*
X149878757Y-108216000D01*
X150121243Y-108216000D01*
X150359069Y-108168693D01*
X150583097Y-108075898D01*
X150784717Y-107941180D01*
X150956180Y-107769717D01*
X151090898Y-107568097D01*
X151183693Y-107344069D01*
X151231000Y-107106243D01*
X151231000Y-106863757D01*
X151309000Y-106863757D01*
X151309000Y-107106243D01*
X151356307Y-107344069D01*
X151449102Y-107568097D01*
X151583820Y-107769717D01*
X151755283Y-107941180D01*
X151956903Y-108075898D01*
X152180931Y-108168693D01*
X152418757Y-108216000D01*
X152661243Y-108216000D01*
X152899069Y-108168693D01*
X153123097Y-108075898D01*
X153324717Y-107941180D01*
X153496180Y-107769717D01*
X153630898Y-107568097D01*
X153723693Y-107344069D01*
X153771000Y-107106243D01*
X153771000Y-107015039D01*
X156109000Y-107015039D01*
X156109000Y-107424961D01*
X156188972Y-107827005D01*
X156345842Y-108205723D01*
X156573582Y-108546560D01*
X156863440Y-108836418D01*
X157204277Y-109064158D01*
X157582995Y-109221028D01*
X157985039Y-109301000D01*
X158394961Y-109301000D01*
X158797005Y-109221028D01*
X159175723Y-109064158D01*
X159516560Y-108836418D01*
X159806418Y-108546560D01*
X160034158Y-108205723D01*
X160191028Y-107827005D01*
X160222449Y-107669042D01*
X160239365Y-107754083D01*
X160377389Y-108087304D01*
X160577770Y-108387194D01*
X160832806Y-108642230D01*
X161132696Y-108842611D01*
X161465917Y-108980635D01*
X161819662Y-109051000D01*
X162180338Y-109051000D01*
X162534083Y-108980635D01*
X162867304Y-108842611D01*
X163167194Y-108642230D01*
X163422230Y-108387194D01*
X163622611Y-108087304D01*
X163760635Y-107754083D01*
X163777551Y-107669042D01*
X163808972Y-107827005D01*
X163965842Y-108205723D01*
X164193582Y-108546560D01*
X164483440Y-108836418D01*
X164824277Y-109064158D01*
X165202995Y-109221028D01*
X165605039Y-109301000D01*
X166014961Y-109301000D01*
X166417005Y-109221028D01*
X166795723Y-109064158D01*
X167136560Y-108836418D01*
X167426418Y-108546560D01*
X167654158Y-108205723D01*
X167811028Y-107827005D01*
X167860407Y-107578757D01*
X171329000Y-107578757D01*
X171329000Y-107821243D01*
X171376307Y-108059069D01*
X171469102Y-108283097D01*
X171603820Y-108484717D01*
X171775283Y-108656180D01*
X171976903Y-108790898D01*
X172200931Y-108883693D01*
X172438757Y-108931000D01*
X172681243Y-108931000D01*
X172919069Y-108883693D01*
X173143097Y-108790898D01*
X173344717Y-108656180D01*
X173516180Y-108484717D01*
X173650898Y-108283097D01*
X173743693Y-108059069D01*
X173791000Y-107821243D01*
X173791000Y-107578757D01*
X173743693Y-107340931D01*
X173650898Y-107116903D01*
X173516180Y-106915283D01*
X173344717Y-106743820D01*
X173143097Y-106609102D01*
X172919069Y-106516307D01*
X172681243Y-106469000D01*
X172438757Y-106469000D01*
X172200931Y-106516307D01*
X171976903Y-106609102D01*
X171775283Y-106743820D01*
X171603820Y-106915283D01*
X171469102Y-107116903D01*
X171376307Y-107340931D01*
X171329000Y-107578757D01*
X167860407Y-107578757D01*
X167891000Y-107424961D01*
X167891000Y-107015039D01*
X167811028Y-106612995D01*
X167654158Y-106234277D01*
X167426418Y-105893440D01*
X167136560Y-105603582D01*
X166795723Y-105375842D01*
X166417005Y-105218972D01*
X166014961Y-105139000D01*
X165605039Y-105139000D01*
X165274528Y-105204743D01*
X165286000Y-105147073D01*
X165286000Y-105038757D01*
X171329000Y-105038757D01*
X171329000Y-105281243D01*
X171376307Y-105519069D01*
X171469102Y-105743097D01*
X171603820Y-105944717D01*
X171775283Y-106116180D01*
X171976903Y-106250898D01*
X172200931Y-106343693D01*
X172438757Y-106391000D01*
X172681243Y-106391000D01*
X172919069Y-106343693D01*
X173143097Y-106250898D01*
X173344717Y-106116180D01*
X173516180Y-105944717D01*
X173650898Y-105743097D01*
X173743693Y-105519069D01*
X173791000Y-105281243D01*
X173791000Y-105038757D01*
X173743693Y-104800931D01*
X173650898Y-104576903D01*
X173516180Y-104375283D01*
X173344717Y-104203820D01*
X173143097Y-104069102D01*
X172919069Y-103976307D01*
X172681243Y-103929000D01*
X172438757Y-103929000D01*
X172200931Y-103976307D01*
X171976903Y-104069102D01*
X171775283Y-104203820D01*
X171603820Y-104375283D01*
X171469102Y-104576903D01*
X171376307Y-104800931D01*
X171329000Y-105038757D01*
X165286000Y-105038757D01*
X165286000Y-105012927D01*
X165259829Y-104881360D01*
X165208494Y-104757426D01*
X165133967Y-104645888D01*
X165039112Y-104551033D01*
X164927574Y-104476506D01*
X164803640Y-104425171D01*
X164672073Y-104399000D01*
X164537927Y-104399000D01*
X164406360Y-104425171D01*
X164282426Y-104476506D01*
X164170888Y-104551033D01*
X164076033Y-104645888D01*
X164001506Y-104757426D01*
X163950171Y-104881360D01*
X163924000Y-105012927D01*
X163924000Y-105147073D01*
X163950171Y-105278640D01*
X164001506Y-105402574D01*
X164076033Y-105514112D01*
X164170888Y-105608967D01*
X164282426Y-105683494D01*
X164368058Y-105718964D01*
X164193582Y-105893440D01*
X163965842Y-106234277D01*
X163808972Y-106612995D01*
X163777551Y-106770958D01*
X163760635Y-106685917D01*
X163622611Y-106352696D01*
X163422230Y-106052806D01*
X163167194Y-105797770D01*
X162867304Y-105597389D01*
X162534083Y-105459365D01*
X162180338Y-105389000D01*
X161819662Y-105389000D01*
X161465917Y-105459365D01*
X161132696Y-105597389D01*
X160832806Y-105797770D01*
X160577770Y-106052806D01*
X160377389Y-106352696D01*
X160239365Y-106685917D01*
X160222449Y-106770958D01*
X160191028Y-106612995D01*
X160034158Y-106234277D01*
X159806418Y-105893440D01*
X159516560Y-105603582D01*
X159175723Y-105375842D01*
X158797005Y-105218972D01*
X158394961Y-105139000D01*
X157985039Y-105139000D01*
X157852323Y-105165399D01*
X157905994Y-105085074D01*
X157957329Y-104961140D01*
X157983500Y-104829573D01*
X157983500Y-104695427D01*
X157957329Y-104563860D01*
X157905994Y-104439926D01*
X157831467Y-104328388D01*
X157736612Y-104233533D01*
X157625074Y-104159006D01*
X157501140Y-104107671D01*
X157369573Y-104081500D01*
X157235427Y-104081500D01*
X157103860Y-104107671D01*
X156979926Y-104159006D01*
X156868388Y-104233533D01*
X156773533Y-104328388D01*
X156699006Y-104439926D01*
X156647671Y-104563860D01*
X156621500Y-104695427D01*
X156621500Y-104829573D01*
X156647671Y-104961140D01*
X156699006Y-105085074D01*
X156773533Y-105196612D01*
X156868388Y-105291467D01*
X156979926Y-105365994D01*
X157103860Y-105417329D01*
X157133395Y-105423204D01*
X156863440Y-105603582D01*
X156573582Y-105893440D01*
X156345842Y-106234277D01*
X156188972Y-106612995D01*
X156109000Y-107015039D01*
X153771000Y-107015039D01*
X153771000Y-106863757D01*
X153723693Y-106625931D01*
X153630898Y-106401903D01*
X153496180Y-106200283D01*
X153324717Y-106028820D01*
X153123097Y-105894102D01*
X152899069Y-105801307D01*
X152661243Y-105754000D01*
X152418757Y-105754000D01*
X152180931Y-105801307D01*
X151956903Y-105894102D01*
X151755283Y-106028820D01*
X151583820Y-106200283D01*
X151449102Y-106401903D01*
X151356307Y-106625931D01*
X151309000Y-106863757D01*
X151231000Y-106863757D01*
X151183693Y-106625931D01*
X151090898Y-106401903D01*
X150956180Y-106200283D01*
X150784717Y-106028820D01*
X150583097Y-105894102D01*
X150359069Y-105801307D01*
X150121243Y-105754000D01*
X149878757Y-105754000D01*
X149640931Y-105801307D01*
X149416903Y-105894102D01*
X149215283Y-106028820D01*
X149043820Y-106200283D01*
X148909102Y-106401903D01*
X148816307Y-106625931D01*
X148769000Y-106863757D01*
X148692843Y-106863757D01*
X148692843Y-106135000D01*
X148685487Y-106060311D01*
X148663701Y-105988492D01*
X148628322Y-105922304D01*
X148580711Y-105864289D01*
X148522696Y-105816678D01*
X148456508Y-105781299D01*
X148384689Y-105759513D01*
X148310000Y-105752157D01*
X146610000Y-105752157D01*
X146535311Y-105759513D01*
X146463492Y-105781299D01*
X146397304Y-105816678D01*
X146339289Y-105864289D01*
X146291678Y-105922304D01*
X146256299Y-105988492D01*
X146234513Y-106060311D01*
X146227157Y-106135000D01*
X143587824Y-106135000D01*
X143426418Y-105893440D01*
X143136560Y-105603582D01*
X142866605Y-105423204D01*
X142896140Y-105417329D01*
X143020074Y-105365994D01*
X143131612Y-105291467D01*
X143226467Y-105196612D01*
X143300994Y-105085074D01*
X143352329Y-104961140D01*
X143378500Y-104829573D01*
X143378500Y-104695427D01*
X146461500Y-104695427D01*
X146461500Y-104829573D01*
X146487671Y-104961140D01*
X146539006Y-105085074D01*
X146613533Y-105196612D01*
X146708388Y-105291467D01*
X146819926Y-105365994D01*
X146943860Y-105417329D01*
X147075427Y-105443500D01*
X147209573Y-105443500D01*
X147341140Y-105417329D01*
X147465074Y-105365994D01*
X147576612Y-105291467D01*
X147671467Y-105196612D01*
X147745994Y-105085074D01*
X147797329Y-104961140D01*
X147823500Y-104829573D01*
X147823500Y-104695427D01*
X147797329Y-104563860D01*
X147745994Y-104439926D01*
X147671467Y-104328388D01*
X147576612Y-104233533D01*
X147465074Y-104159006D01*
X147341140Y-104107671D01*
X147209573Y-104081500D01*
X147075427Y-104081500D01*
X146943860Y-104107671D01*
X146819926Y-104159006D01*
X146708388Y-104233533D01*
X146613533Y-104328388D01*
X146539006Y-104439926D01*
X146487671Y-104563860D01*
X146461500Y-104695427D01*
X143378500Y-104695427D01*
X143352329Y-104563860D01*
X143300994Y-104439926D01*
X143226467Y-104328388D01*
X143131612Y-104233533D01*
X143020074Y-104159006D01*
X142896140Y-104107671D01*
X142764573Y-104081500D01*
X142630427Y-104081500D01*
X142498860Y-104107671D01*
X142374926Y-104159006D01*
X142263388Y-104233533D01*
X142168533Y-104328388D01*
X142094006Y-104439926D01*
X142042671Y-104563860D01*
X142016500Y-104695427D01*
X142016500Y-104829573D01*
X142042671Y-104961140D01*
X142094006Y-105085074D01*
X142147677Y-105165399D01*
X142014961Y-105139000D01*
X141605039Y-105139000D01*
X141202995Y-105218972D01*
X140824277Y-105375842D01*
X140483440Y-105603582D01*
X140193582Y-105893440D01*
X139965842Y-106234277D01*
X139808972Y-106612995D01*
X139777551Y-106770958D01*
X139760635Y-106685917D01*
X139622611Y-106352696D01*
X139422230Y-106052806D01*
X139167194Y-105797770D01*
X138867304Y-105597389D01*
X138534083Y-105459365D01*
X138180338Y-105389000D01*
X137819662Y-105389000D01*
X137465917Y-105459365D01*
X137132696Y-105597389D01*
X136832806Y-105797770D01*
X136577770Y-106052806D01*
X136377389Y-106352696D01*
X136239365Y-106685917D01*
X136222449Y-106770958D01*
X136191028Y-106612995D01*
X136034158Y-106234277D01*
X135806418Y-105893440D01*
X135516560Y-105603582D01*
X135175723Y-105375842D01*
X134797005Y-105218972D01*
X134394961Y-105139000D01*
X133985039Y-105139000D01*
X133582995Y-105218972D01*
X133204277Y-105375842D01*
X132863440Y-105603582D01*
X132573582Y-105893440D01*
X132345842Y-106234277D01*
X132188972Y-106612995D01*
X132109000Y-107015039D01*
X128222835Y-107015039D01*
X128156180Y-106915283D01*
X127984717Y-106743820D01*
X127783097Y-106609102D01*
X127559069Y-106516307D01*
X127321243Y-106469000D01*
X127078757Y-106469000D01*
X126840931Y-106516307D01*
X126616903Y-106609102D01*
X126415283Y-106743820D01*
X126243820Y-106915283D01*
X126109102Y-107116903D01*
X126016307Y-107340931D01*
X125969000Y-107578757D01*
X125406000Y-107578757D01*
X125406000Y-102498757D01*
X125969000Y-102498757D01*
X125969000Y-102741243D01*
X126016307Y-102979069D01*
X126109102Y-103203097D01*
X126243820Y-103404717D01*
X126415283Y-103576180D01*
X126616903Y-103710898D01*
X126840931Y-103803693D01*
X127078757Y-103851000D01*
X127321243Y-103851000D01*
X127559069Y-103803693D01*
X127783097Y-103710898D01*
X127984717Y-103576180D01*
X128135470Y-103425427D01*
X135031500Y-103425427D01*
X135031500Y-103559573D01*
X135057671Y-103691140D01*
X135109006Y-103815074D01*
X135183533Y-103926612D01*
X135278388Y-104021467D01*
X135389926Y-104095994D01*
X135513860Y-104147329D01*
X135645427Y-104173500D01*
X135779573Y-104173500D01*
X135911140Y-104147329D01*
X136035074Y-104095994D01*
X136146612Y-104021467D01*
X136241467Y-103926612D01*
X136315994Y-103815074D01*
X136346913Y-103740427D01*
X149634000Y-103740427D01*
X149634000Y-103874573D01*
X149660171Y-104006140D01*
X149711506Y-104130074D01*
X149786033Y-104241612D01*
X149880888Y-104336467D01*
X149992426Y-104410994D01*
X150116360Y-104462329D01*
X150247927Y-104488500D01*
X150382073Y-104488500D01*
X150513640Y-104462329D01*
X150637574Y-104410994D01*
X150749112Y-104336467D01*
X150843967Y-104241612D01*
X150918494Y-104130074D01*
X150969829Y-104006140D01*
X150996000Y-103874573D01*
X150996000Y-103742927D01*
X155034000Y-103742927D01*
X155034000Y-103877073D01*
X155060171Y-104008640D01*
X155111506Y-104132574D01*
X155186033Y-104244112D01*
X155280888Y-104338967D01*
X155392426Y-104413494D01*
X155516360Y-104464829D01*
X155647927Y-104491000D01*
X155782073Y-104491000D01*
X155913640Y-104464829D01*
X156037574Y-104413494D01*
X156149112Y-104338967D01*
X156243967Y-104244112D01*
X156318494Y-104132574D01*
X156369829Y-104008640D01*
X156396000Y-103877073D01*
X156396000Y-103742927D01*
X156369829Y-103611360D01*
X156318494Y-103487426D01*
X156243967Y-103375888D01*
X156149112Y-103281033D01*
X156037574Y-103206506D01*
X155913640Y-103155171D01*
X155782073Y-103129000D01*
X155647927Y-103129000D01*
X155516360Y-103155171D01*
X155392426Y-103206506D01*
X155280888Y-103281033D01*
X155186033Y-103375888D01*
X155111506Y-103487426D01*
X155060171Y-103611360D01*
X155034000Y-103742927D01*
X150996000Y-103742927D01*
X150996000Y-103740427D01*
X150969829Y-103608860D01*
X150918494Y-103484926D01*
X150843967Y-103373388D01*
X150749112Y-103278533D01*
X150637574Y-103204006D01*
X150513640Y-103152671D01*
X150382073Y-103126500D01*
X150247927Y-103126500D01*
X150116360Y-103152671D01*
X149992426Y-103204006D01*
X149880888Y-103278533D01*
X149786033Y-103373388D01*
X149711506Y-103484926D01*
X149660171Y-103608860D01*
X149634000Y-103740427D01*
X136346913Y-103740427D01*
X136367329Y-103691140D01*
X136393500Y-103559573D01*
X136393500Y-103425427D01*
X136367329Y-103293860D01*
X136315994Y-103169926D01*
X136241467Y-103058388D01*
X136146612Y-102963533D01*
X136035074Y-102889006D01*
X135911140Y-102837671D01*
X135779573Y-102811500D01*
X135645427Y-102811500D01*
X135513860Y-102837671D01*
X135389926Y-102889006D01*
X135278388Y-102963533D01*
X135183533Y-103058388D01*
X135109006Y-103169926D01*
X135057671Y-103293860D01*
X135031500Y-103425427D01*
X128135470Y-103425427D01*
X128156180Y-103404717D01*
X128290898Y-103203097D01*
X128383693Y-102979069D01*
X128431000Y-102741243D01*
X128431000Y-102498757D01*
X128383693Y-102260931D01*
X128290898Y-102036903D01*
X128189686Y-101885427D01*
X155304000Y-101885427D01*
X155304000Y-102019573D01*
X155330171Y-102151140D01*
X155381506Y-102275074D01*
X155456033Y-102386612D01*
X155550888Y-102481467D01*
X155662426Y-102555994D01*
X155786360Y-102607329D01*
X155917927Y-102633500D01*
X156052073Y-102633500D01*
X156183640Y-102607329D01*
X156307574Y-102555994D01*
X156393235Y-102498757D01*
X171329000Y-102498757D01*
X171329000Y-102741243D01*
X171376307Y-102979069D01*
X171469102Y-103203097D01*
X171603820Y-103404717D01*
X171775283Y-103576180D01*
X171976903Y-103710898D01*
X172200931Y-103803693D01*
X172438757Y-103851000D01*
X172681243Y-103851000D01*
X172919069Y-103803693D01*
X173143097Y-103710898D01*
X173344717Y-103576180D01*
X173516180Y-103404717D01*
X173650898Y-103203097D01*
X173743693Y-102979069D01*
X173791000Y-102741243D01*
X173791000Y-102498757D01*
X173743693Y-102260931D01*
X173650898Y-102036903D01*
X173516180Y-101835283D01*
X173344717Y-101663820D01*
X173143097Y-101529102D01*
X172919069Y-101436307D01*
X172681243Y-101389000D01*
X172438757Y-101389000D01*
X172200931Y-101436307D01*
X171976903Y-101529102D01*
X171775283Y-101663820D01*
X171603820Y-101835283D01*
X171469102Y-102036903D01*
X171376307Y-102260931D01*
X171329000Y-102498757D01*
X156393235Y-102498757D01*
X156419112Y-102481467D01*
X156513967Y-102386612D01*
X156588494Y-102275074D01*
X156639829Y-102151140D01*
X156666000Y-102019573D01*
X156666000Y-101885427D01*
X156639829Y-101753860D01*
X156588494Y-101629926D01*
X156513967Y-101518388D01*
X156419112Y-101423533D01*
X156307574Y-101349006D01*
X156183640Y-101297671D01*
X156052073Y-101271500D01*
X155917927Y-101271500D01*
X155786360Y-101297671D01*
X155662426Y-101349006D01*
X155550888Y-101423533D01*
X155456033Y-101518388D01*
X155381506Y-101629926D01*
X155330171Y-101753860D01*
X155304000Y-101885427D01*
X128189686Y-101885427D01*
X128156180Y-101835283D01*
X127984717Y-101663820D01*
X127783097Y-101529102D01*
X127559069Y-101436307D01*
X127321243Y-101389000D01*
X127078757Y-101389000D01*
X126840931Y-101436307D01*
X126616903Y-101529102D01*
X126415283Y-101663820D01*
X126243820Y-101835283D01*
X126109102Y-102036903D01*
X126016307Y-102260931D01*
X125969000Y-102498757D01*
X125406000Y-102498757D01*
X125406000Y-99958757D01*
X125969000Y-99958757D01*
X125969000Y-100201243D01*
X126016307Y-100439069D01*
X126109102Y-100663097D01*
X126243820Y-100864717D01*
X126415283Y-101036180D01*
X126616903Y-101170898D01*
X126840931Y-101263693D01*
X127078757Y-101311000D01*
X127321243Y-101311000D01*
X127559069Y-101263693D01*
X127783097Y-101170898D01*
X127984717Y-101036180D01*
X128156180Y-100864717D01*
X128290898Y-100663097D01*
X128383693Y-100439069D01*
X128431000Y-100201243D01*
X128431000Y-99958757D01*
X171329000Y-99958757D01*
X171329000Y-100201243D01*
X171376307Y-100439069D01*
X171469102Y-100663097D01*
X171603820Y-100864717D01*
X171775283Y-101036180D01*
X171976903Y-101170898D01*
X172200931Y-101263693D01*
X172438757Y-101311000D01*
X172681243Y-101311000D01*
X172919069Y-101263693D01*
X173143097Y-101170898D01*
X173344717Y-101036180D01*
X173516180Y-100864717D01*
X173650898Y-100663097D01*
X173743693Y-100439069D01*
X173791000Y-100201243D01*
X173791000Y-99958757D01*
X173743693Y-99720931D01*
X173650898Y-99496903D01*
X173516180Y-99295283D01*
X173344717Y-99123820D01*
X173143097Y-98989102D01*
X172919069Y-98896307D01*
X172681243Y-98849000D01*
X172438757Y-98849000D01*
X172200931Y-98896307D01*
X171976903Y-98989102D01*
X171775283Y-99123820D01*
X171603820Y-99295283D01*
X171469102Y-99496903D01*
X171376307Y-99720931D01*
X171329000Y-99958757D01*
X128431000Y-99958757D01*
X128383693Y-99720931D01*
X128290898Y-99496903D01*
X128156180Y-99295283D01*
X127984717Y-99123820D01*
X127783097Y-98989102D01*
X127762154Y-98980427D01*
X143286500Y-98980427D01*
X143286500Y-99114573D01*
X143312671Y-99246140D01*
X143364006Y-99370074D01*
X143438533Y-99481612D01*
X143533388Y-99576467D01*
X143644926Y-99650994D01*
X143768860Y-99702329D01*
X143900427Y-99728500D01*
X144034573Y-99728500D01*
X144166140Y-99702329D01*
X144290074Y-99650994D01*
X144401612Y-99576467D01*
X144496467Y-99481612D01*
X144570994Y-99370074D01*
X144622329Y-99246140D01*
X144648500Y-99114573D01*
X144648500Y-98980427D01*
X144622329Y-98848860D01*
X144570994Y-98724926D01*
X144496467Y-98613388D01*
X144401612Y-98518533D01*
X144290074Y-98444006D01*
X144166140Y-98392671D01*
X144034573Y-98366500D01*
X143900427Y-98366500D01*
X143768860Y-98392671D01*
X143644926Y-98444006D01*
X143533388Y-98518533D01*
X143438533Y-98613388D01*
X143364006Y-98724926D01*
X143312671Y-98848860D01*
X143286500Y-98980427D01*
X127762154Y-98980427D01*
X127559069Y-98896307D01*
X127321243Y-98849000D01*
X127078757Y-98849000D01*
X126840931Y-98896307D01*
X126616903Y-98989102D01*
X126415283Y-99123820D01*
X126243820Y-99295283D01*
X126109102Y-99496903D01*
X126016307Y-99720931D01*
X125969000Y-99958757D01*
X125406000Y-99958757D01*
X125406000Y-97418757D01*
X125969000Y-97418757D01*
X125969000Y-97661243D01*
X126016307Y-97899069D01*
X126109102Y-98123097D01*
X126243820Y-98324717D01*
X126415283Y-98496180D01*
X126616903Y-98630898D01*
X126840931Y-98723693D01*
X127078757Y-98771000D01*
X127321243Y-98771000D01*
X127559069Y-98723693D01*
X127783097Y-98630898D01*
X127984717Y-98496180D01*
X128156180Y-98324717D01*
X128290898Y-98123097D01*
X128383693Y-97899069D01*
X128421216Y-97710427D01*
X147096500Y-97710427D01*
X147096500Y-97844573D01*
X147122671Y-97976140D01*
X147174006Y-98100074D01*
X147248533Y-98211612D01*
X147343388Y-98306467D01*
X147454926Y-98380994D01*
X147578860Y-98432329D01*
X147710427Y-98458500D01*
X147844573Y-98458500D01*
X147976140Y-98432329D01*
X148100074Y-98380994D01*
X148211612Y-98306467D01*
X148306467Y-98211612D01*
X148380994Y-98100074D01*
X148432329Y-97976140D01*
X148458500Y-97844573D01*
X148458500Y-97710427D01*
X148432329Y-97578860D01*
X148380994Y-97454926D01*
X148306467Y-97343388D01*
X148211612Y-97248533D01*
X148100074Y-97174006D01*
X147976140Y-97122671D01*
X147844573Y-97096500D01*
X147710427Y-97096500D01*
X147578860Y-97122671D01*
X147454926Y-97174006D01*
X147343388Y-97248533D01*
X147248533Y-97343388D01*
X147174006Y-97454926D01*
X147122671Y-97578860D01*
X147096500Y-97710427D01*
X128421216Y-97710427D01*
X128431000Y-97661243D01*
X128431000Y-97418757D01*
X128383693Y-97180931D01*
X128339993Y-97075427D01*
X155034000Y-97075427D01*
X155034000Y-97209573D01*
X155060171Y-97341140D01*
X155111506Y-97465074D01*
X155186033Y-97576612D01*
X155280888Y-97671467D01*
X155392426Y-97745994D01*
X155516360Y-97797329D01*
X155647927Y-97823500D01*
X155782073Y-97823500D01*
X155913640Y-97797329D01*
X156037574Y-97745994D01*
X156149112Y-97671467D01*
X156243967Y-97576612D01*
X156318494Y-97465074D01*
X156348378Y-97392927D01*
X169639000Y-97392927D01*
X169639000Y-97527073D01*
X169665171Y-97658640D01*
X169716506Y-97782574D01*
X169791033Y-97894112D01*
X169885888Y-97988967D01*
X169997426Y-98063494D01*
X170121360Y-98114829D01*
X170252927Y-98141000D01*
X170387073Y-98141000D01*
X170518640Y-98114829D01*
X170642574Y-98063494D01*
X170706171Y-98021000D01*
X171426812Y-98021000D01*
X171469102Y-98123097D01*
X171603820Y-98324717D01*
X171775283Y-98496180D01*
X171976903Y-98630898D01*
X172200931Y-98723693D01*
X172438757Y-98771000D01*
X172681243Y-98771000D01*
X172919069Y-98723693D01*
X173143097Y-98630898D01*
X173344717Y-98496180D01*
X173516180Y-98324717D01*
X173650898Y-98123097D01*
X173743693Y-97899069D01*
X173791000Y-97661243D01*
X173791000Y-97418757D01*
X173743693Y-97180931D01*
X173650898Y-96956903D01*
X173516180Y-96755283D01*
X173344717Y-96583820D01*
X173143097Y-96449102D01*
X172919069Y-96356307D01*
X172681243Y-96309000D01*
X172438757Y-96309000D01*
X172200931Y-96356307D01*
X171976903Y-96449102D01*
X171775283Y-96583820D01*
X171603820Y-96755283D01*
X171469102Y-96956903D01*
X171426812Y-97059000D01*
X170871092Y-97059000D01*
X170848967Y-97025888D01*
X170754112Y-96931033D01*
X170642574Y-96856506D01*
X170518640Y-96805171D01*
X170387073Y-96779000D01*
X170252927Y-96779000D01*
X170121360Y-96805171D01*
X169997426Y-96856506D01*
X169885888Y-96931033D01*
X169791033Y-97025888D01*
X169716506Y-97137426D01*
X169665171Y-97261360D01*
X169639000Y-97392927D01*
X156348378Y-97392927D01*
X156369829Y-97341140D01*
X156396000Y-97209573D01*
X156396000Y-97075427D01*
X156369829Y-96943860D01*
X156318494Y-96819926D01*
X156243967Y-96708388D01*
X156149112Y-96613533D01*
X156037574Y-96539006D01*
X155913640Y-96487671D01*
X155782073Y-96461500D01*
X155647927Y-96461500D01*
X155516360Y-96487671D01*
X155392426Y-96539006D01*
X155280888Y-96613533D01*
X155186033Y-96708388D01*
X155111506Y-96819926D01*
X155060171Y-96943860D01*
X155034000Y-97075427D01*
X128339993Y-97075427D01*
X128290898Y-96956903D01*
X128156180Y-96755283D01*
X127984717Y-96583820D01*
X127783097Y-96449102D01*
X127559069Y-96356307D01*
X127321243Y-96309000D01*
X127078757Y-96309000D01*
X126840931Y-96356307D01*
X126616903Y-96449102D01*
X126415283Y-96583820D01*
X126243820Y-96755283D01*
X126109102Y-96956903D01*
X126016307Y-97180931D01*
X125969000Y-97418757D01*
X125406000Y-97418757D01*
X125406000Y-94150000D01*
X125967157Y-94150000D01*
X125967157Y-95850000D01*
X125974513Y-95924689D01*
X125996299Y-95996508D01*
X126031678Y-96062696D01*
X126079289Y-96120711D01*
X126137304Y-96168322D01*
X126203492Y-96203701D01*
X126275311Y-96225487D01*
X126350000Y-96232843D01*
X128050000Y-96232843D01*
X128124689Y-96225487D01*
X128196508Y-96203701D01*
X128262696Y-96168322D01*
X128320711Y-96120711D01*
X128368322Y-96062696D01*
X128403701Y-95996508D01*
X128425487Y-95924689D01*
X128432843Y-95850000D01*
X128432843Y-94878757D01*
X171329000Y-94878757D01*
X171329000Y-95121243D01*
X171376307Y-95359069D01*
X171469102Y-95583097D01*
X171603820Y-95784717D01*
X171775283Y-95956180D01*
X171976903Y-96090898D01*
X172200931Y-96183693D01*
X172438757Y-96231000D01*
X172681243Y-96231000D01*
X172919069Y-96183693D01*
X173143097Y-96090898D01*
X173344717Y-95956180D01*
X173516180Y-95784717D01*
X173650898Y-95583097D01*
X173743693Y-95359069D01*
X173791000Y-95121243D01*
X173791000Y-94878757D01*
X173743693Y-94640931D01*
X173650898Y-94416903D01*
X173516180Y-94215283D01*
X173344717Y-94043820D01*
X173143097Y-93909102D01*
X172919069Y-93816307D01*
X172681243Y-93769000D01*
X172438757Y-93769000D01*
X172200931Y-93816307D01*
X171976903Y-93909102D01*
X171775283Y-94043820D01*
X171603820Y-94215283D01*
X171469102Y-94416903D01*
X171376307Y-94640931D01*
X171329000Y-94878757D01*
X128432843Y-94878757D01*
X128432843Y-94150000D01*
X128425487Y-94075311D01*
X128403701Y-94003492D01*
X128368322Y-93937304D01*
X128320711Y-93879289D01*
X128262696Y-93831678D01*
X128196508Y-93796299D01*
X128124689Y-93774513D01*
X128050000Y-93767157D01*
X126350000Y-93767157D01*
X126275311Y-93774513D01*
X126203492Y-93796299D01*
X126137304Y-93831678D01*
X126079289Y-93879289D01*
X126031678Y-93937304D01*
X125996299Y-94003492D01*
X125974513Y-94075311D01*
X125967157Y-94150000D01*
X125406000Y-94150000D01*
X125406000Y-92947927D01*
X131856500Y-92947927D01*
X131856500Y-93082073D01*
X131882671Y-93213640D01*
X131934006Y-93337574D01*
X132008533Y-93449112D01*
X132103388Y-93543967D01*
X132214926Y-93618494D01*
X132338860Y-93669829D01*
X132470427Y-93696000D01*
X132604573Y-93696000D01*
X132736140Y-93669829D01*
X132860074Y-93618494D01*
X132971612Y-93543967D01*
X133019579Y-93496000D01*
X138658874Y-93496000D01*
X138682500Y-93498327D01*
X138706126Y-93496000D01*
X138776792Y-93489040D01*
X138867461Y-93461536D01*
X138951022Y-93416872D01*
X139024264Y-93356764D01*
X139039330Y-93338406D01*
X139323406Y-93054330D01*
X139341764Y-93039264D01*
X139401872Y-92966022D01*
X139446536Y-92882461D01*
X139474040Y-92791792D01*
X139477071Y-92761023D01*
X139483327Y-92697500D01*
X139481000Y-92673874D01*
X139481000Y-92630427D01*
X145826500Y-92630427D01*
X145826500Y-92764573D01*
X145852671Y-92896140D01*
X145904006Y-93020074D01*
X145978533Y-93131612D01*
X146073388Y-93226467D01*
X146184926Y-93300994D01*
X146308860Y-93352329D01*
X146440427Y-93378500D01*
X146574573Y-93378500D01*
X146706140Y-93352329D01*
X146830074Y-93300994D01*
X146941612Y-93226467D01*
X147036467Y-93131612D01*
X147110994Y-93020074D01*
X147162329Y-92896140D01*
X147188500Y-92764573D01*
X147188500Y-92630427D01*
X149001500Y-92630427D01*
X149001500Y-92764573D01*
X149027671Y-92896140D01*
X149079006Y-93020074D01*
X149153533Y-93131612D01*
X149248388Y-93226467D01*
X149359926Y-93300994D01*
X149483860Y-93352329D01*
X149615427Y-93378500D01*
X149749573Y-93378500D01*
X149881140Y-93352329D01*
X150005074Y-93300994D01*
X150116612Y-93226467D01*
X150211467Y-93131612D01*
X150285994Y-93020074D01*
X150337329Y-92896140D01*
X150363500Y-92764573D01*
X150363500Y-92630427D01*
X150337329Y-92498860D01*
X150285994Y-92374926D01*
X150211467Y-92263388D01*
X150116612Y-92168533D01*
X150005074Y-92094006D01*
X149881140Y-92042671D01*
X149749573Y-92016500D01*
X149615427Y-92016500D01*
X149483860Y-92042671D01*
X149359926Y-92094006D01*
X149248388Y-92168533D01*
X149153533Y-92263388D01*
X149079006Y-92374926D01*
X149027671Y-92498860D01*
X149001500Y-92630427D01*
X147188500Y-92630427D01*
X147162329Y-92498860D01*
X147110994Y-92374926D01*
X147036467Y-92263388D01*
X146941612Y-92168533D01*
X146830074Y-92094006D01*
X146706140Y-92042671D01*
X146574573Y-92016500D01*
X146440427Y-92016500D01*
X146308860Y-92042671D01*
X146184926Y-92094006D01*
X146073388Y-92168533D01*
X145978533Y-92263388D01*
X145904006Y-92374926D01*
X145852671Y-92498860D01*
X145826500Y-92630427D01*
X139481000Y-92630427D01*
X139481000Y-91827843D01*
X139550000Y-91827843D01*
X139624689Y-91820487D01*
X139696508Y-91798701D01*
X139762696Y-91763322D01*
X139820711Y-91715711D01*
X139850000Y-91680022D01*
X139879289Y-91715711D01*
X139937304Y-91763322D01*
X140003492Y-91798701D01*
X140075311Y-91820487D01*
X140150000Y-91827843D01*
X141250000Y-91827843D01*
X141324689Y-91820487D01*
X141396508Y-91798701D01*
X141462696Y-91763322D01*
X141520711Y-91715711D01*
X141568322Y-91657696D01*
X141603701Y-91591508D01*
X141625487Y-91519689D01*
X141632843Y-91445000D01*
X141632843Y-90915236D01*
X141638967Y-90909112D01*
X141713494Y-90797574D01*
X141764829Y-90673640D01*
X141791000Y-90542073D01*
X141791000Y-90407927D01*
X141764829Y-90276360D01*
X141713494Y-90152426D01*
X141638967Y-90040888D01*
X141632843Y-90034764D01*
X141632843Y-90013000D01*
X141748573Y-90013000D01*
X141880140Y-89986829D01*
X142004074Y-89935494D01*
X142115612Y-89860967D01*
X142210467Y-89766112D01*
X142284994Y-89654574D01*
X142336329Y-89530640D01*
X142362500Y-89399073D01*
X142362500Y-89264927D01*
X142336329Y-89133360D01*
X142284994Y-89009426D01*
X142210467Y-88897888D01*
X142115612Y-88803033D01*
X142004074Y-88728506D01*
X141880140Y-88677171D01*
X141748573Y-88651000D01*
X141662762Y-88651000D01*
X141713494Y-88575074D01*
X141764829Y-88451140D01*
X141791000Y-88319573D01*
X141791000Y-88185427D01*
X141764829Y-88053860D01*
X141713494Y-87929926D01*
X141638967Y-87818388D01*
X141632843Y-87812264D01*
X141632843Y-87550427D01*
X157256500Y-87550427D01*
X157256500Y-87684573D01*
X157282671Y-87816140D01*
X157334006Y-87940074D01*
X157408533Y-88051612D01*
X157503388Y-88146467D01*
X157614926Y-88220994D01*
X157738860Y-88272329D01*
X157870427Y-88298500D01*
X158004573Y-88298500D01*
X158136140Y-88272329D01*
X158260074Y-88220994D01*
X158367157Y-88149444D01*
X158367157Y-91445000D01*
X158374513Y-91519689D01*
X158396299Y-91591508D01*
X158431678Y-91657696D01*
X158479289Y-91715711D01*
X158535131Y-91761539D01*
X158526500Y-91804929D01*
X158526500Y-91939075D01*
X158552671Y-92070642D01*
X158604006Y-92194576D01*
X158678533Y-92306114D01*
X158748399Y-92375980D01*
X158690986Y-92461906D01*
X158639651Y-92585840D01*
X158613480Y-92717407D01*
X158613480Y-92851553D01*
X158639651Y-92983120D01*
X158690986Y-93107054D01*
X158765513Y-93218592D01*
X158860368Y-93313447D01*
X158971906Y-93387974D01*
X159095840Y-93439309D01*
X159227407Y-93465480D01*
X159361553Y-93465480D01*
X159493120Y-93439309D01*
X159617054Y-93387974D01*
X159728592Y-93313447D01*
X159776559Y-93265480D01*
X160684394Y-93265480D01*
X160708020Y-93267807D01*
X160731646Y-93265480D01*
X160802312Y-93258520D01*
X160892981Y-93231016D01*
X160976542Y-93186352D01*
X161049784Y-93126244D01*
X161064850Y-93107886D01*
X161323406Y-92849330D01*
X161341764Y-92834264D01*
X161401872Y-92761022D01*
X161446536Y-92677461D01*
X161470179Y-92599519D01*
X161474040Y-92586793D01*
X161483327Y-92492501D01*
X161481000Y-92468874D01*
X161481000Y-91992927D01*
X162654000Y-91992927D01*
X162654000Y-92127073D01*
X162680171Y-92258640D01*
X162731506Y-92382574D01*
X162806033Y-92494112D01*
X162849421Y-92537500D01*
X162806033Y-92580888D01*
X162731506Y-92692426D01*
X162680171Y-92816360D01*
X162654000Y-92947927D01*
X162654000Y-93082073D01*
X162680171Y-93213640D01*
X162731506Y-93337574D01*
X162806033Y-93449112D01*
X162900888Y-93543967D01*
X163012426Y-93618494D01*
X163136360Y-93669829D01*
X163267927Y-93696000D01*
X163402073Y-93696000D01*
X163533640Y-93669829D01*
X163657574Y-93618494D01*
X163769112Y-93543967D01*
X163863967Y-93449112D01*
X163938494Y-93337574D01*
X163989829Y-93213640D01*
X164016000Y-93082073D01*
X164016000Y-92947927D01*
X163989829Y-92816360D01*
X163938494Y-92692426D01*
X163863967Y-92580888D01*
X163820579Y-92537500D01*
X163863967Y-92494112D01*
X163938494Y-92382574D01*
X163989829Y-92258640D01*
X164012682Y-92143756D01*
X164058236Y-92199264D01*
X164076594Y-92214330D01*
X164883175Y-93020911D01*
X164898236Y-93039264D01*
X164971478Y-93099372D01*
X165055039Y-93144036D01*
X165145708Y-93171540D01*
X165216374Y-93178500D01*
X165216375Y-93178500D01*
X165239999Y-93180827D01*
X165263623Y-93178500D01*
X167297921Y-93178500D01*
X167345888Y-93226467D01*
X167457426Y-93300994D01*
X167581360Y-93352329D01*
X167712927Y-93378500D01*
X167847073Y-93378500D01*
X167978640Y-93352329D01*
X168102574Y-93300994D01*
X168214112Y-93226467D01*
X168308967Y-93131612D01*
X168383494Y-93020074D01*
X168434829Y-92896140D01*
X168461000Y-92764573D01*
X168461000Y-92630427D01*
X168434829Y-92498860D01*
X168390951Y-92392927D01*
X169719000Y-92392927D01*
X169719000Y-92527073D01*
X169745171Y-92658640D01*
X169796506Y-92782574D01*
X169871033Y-92894112D01*
X169965888Y-92988967D01*
X170077426Y-93063494D01*
X170201360Y-93114829D01*
X170332927Y-93141000D01*
X170467073Y-93141000D01*
X170598640Y-93114829D01*
X170722574Y-93063494D01*
X170756239Y-93041000D01*
X171468233Y-93041000D01*
X171469102Y-93043097D01*
X171603820Y-93244717D01*
X171775283Y-93416180D01*
X171976903Y-93550898D01*
X172200931Y-93643693D01*
X172438757Y-93691000D01*
X172681243Y-93691000D01*
X172919069Y-93643693D01*
X173143097Y-93550898D01*
X173344717Y-93416180D01*
X173516180Y-93244717D01*
X173650898Y-93043097D01*
X173743693Y-92819069D01*
X173791000Y-92581243D01*
X173791000Y-92338757D01*
X173743693Y-92100931D01*
X173650898Y-91876903D01*
X173516180Y-91675283D01*
X173344717Y-91503820D01*
X173143097Y-91369102D01*
X172919069Y-91276307D01*
X172681243Y-91229000D01*
X172438757Y-91229000D01*
X172200931Y-91276307D01*
X171976903Y-91369102D01*
X171775283Y-91503820D01*
X171603820Y-91675283D01*
X171469102Y-91876903D01*
X171468233Y-91879000D01*
X170756239Y-91879000D01*
X170722574Y-91856506D01*
X170598640Y-91805171D01*
X170467073Y-91779000D01*
X170332927Y-91779000D01*
X170201360Y-91805171D01*
X170077426Y-91856506D01*
X169965888Y-91931033D01*
X169871033Y-92025888D01*
X169796506Y-92137426D01*
X169745171Y-92261360D01*
X169719000Y-92392927D01*
X168390951Y-92392927D01*
X168383494Y-92374926D01*
X168308967Y-92263388D01*
X168214112Y-92168533D01*
X168102574Y-92094006D01*
X167978640Y-92042671D01*
X167847073Y-92016500D01*
X167712927Y-92016500D01*
X167581360Y-92042671D01*
X167457426Y-92094006D01*
X167345888Y-92168533D01*
X167297921Y-92216500D01*
X165439237Y-92216500D01*
X165038910Y-91816173D01*
X165096508Y-91798701D01*
X165162696Y-91763322D01*
X165220711Y-91715711D01*
X165250000Y-91680022D01*
X165279289Y-91715711D01*
X165337304Y-91763322D01*
X165403492Y-91798701D01*
X165475311Y-91820487D01*
X165550000Y-91827843D01*
X166650000Y-91827843D01*
X166724689Y-91820487D01*
X166796508Y-91798701D01*
X166862696Y-91763322D01*
X166920711Y-91715711D01*
X166968322Y-91657696D01*
X167003701Y-91591508D01*
X167025487Y-91519689D01*
X167032843Y-91445000D01*
X167032843Y-90915236D01*
X167038967Y-90909112D01*
X167113494Y-90797574D01*
X167164829Y-90673640D01*
X167191000Y-90542073D01*
X167191000Y-90407927D01*
X167164829Y-90276360D01*
X167113494Y-90152426D01*
X167038967Y-90040888D01*
X167032843Y-90034764D01*
X167032843Y-89070000D01*
X171327157Y-89070000D01*
X171327157Y-90770000D01*
X171334513Y-90844689D01*
X171356299Y-90916508D01*
X171391678Y-90982696D01*
X171439289Y-91040711D01*
X171497304Y-91088322D01*
X171563492Y-91123701D01*
X171635311Y-91145487D01*
X171710000Y-91152843D01*
X173410000Y-91152843D01*
X173484689Y-91145487D01*
X173556508Y-91123701D01*
X173622696Y-91088322D01*
X173680711Y-91040711D01*
X173728322Y-90982696D01*
X173763701Y-90916508D01*
X173785487Y-90844689D01*
X173792843Y-90770000D01*
X173792843Y-89070000D01*
X173785487Y-88995311D01*
X173763701Y-88923492D01*
X173728322Y-88857304D01*
X173680711Y-88799289D01*
X173622696Y-88751678D01*
X173556508Y-88716299D01*
X173484689Y-88694513D01*
X173410000Y-88687157D01*
X171710000Y-88687157D01*
X171635311Y-88694513D01*
X171563492Y-88716299D01*
X171497304Y-88751678D01*
X171439289Y-88799289D01*
X171391678Y-88857304D01*
X171356299Y-88923492D01*
X171334513Y-88995311D01*
X171327157Y-89070000D01*
X167032843Y-89070000D01*
X167032843Y-88692736D01*
X167038967Y-88686612D01*
X167113494Y-88575074D01*
X167164829Y-88451140D01*
X167191000Y-88319573D01*
X167191000Y-88185427D01*
X167164829Y-88053860D01*
X167113494Y-87929926D01*
X167038967Y-87818388D01*
X167032843Y-87812264D01*
X167032843Y-86845000D01*
X167025487Y-86770311D01*
X167003701Y-86698492D01*
X166968322Y-86632304D01*
X166920711Y-86574289D01*
X166862696Y-86526678D01*
X166796508Y-86491299D01*
X166724689Y-86469513D01*
X166650000Y-86462157D01*
X165550000Y-86462157D01*
X165475311Y-86469513D01*
X165403492Y-86491299D01*
X165337304Y-86526678D01*
X165279289Y-86574289D01*
X165250000Y-86609978D01*
X165220711Y-86574289D01*
X165162696Y-86526678D01*
X165096508Y-86491299D01*
X165024689Y-86469513D01*
X164950000Y-86462157D01*
X164324035Y-86462157D01*
X164333500Y-86414573D01*
X164333500Y-86280427D01*
X164307329Y-86148860D01*
X164255994Y-86024926D01*
X164181467Y-85913388D01*
X164139329Y-85871250D01*
X164181467Y-85829112D01*
X164255994Y-85717574D01*
X164285878Y-85645427D01*
X170591500Y-85645427D01*
X170591500Y-85779573D01*
X170617671Y-85911140D01*
X170669006Y-86035074D01*
X170743533Y-86146612D01*
X170838388Y-86241467D01*
X170949926Y-86315994D01*
X171073860Y-86367329D01*
X171205427Y-86393500D01*
X171339573Y-86393500D01*
X171471140Y-86367329D01*
X171595074Y-86315994D01*
X171706612Y-86241467D01*
X171801467Y-86146612D01*
X171875994Y-86035074D01*
X171927329Y-85911140D01*
X171953500Y-85779573D01*
X171953500Y-85645427D01*
X171927329Y-85513860D01*
X171875994Y-85389926D01*
X171801467Y-85278388D01*
X171706612Y-85183533D01*
X171595074Y-85109006D01*
X171471140Y-85057671D01*
X171339573Y-85031500D01*
X171205427Y-85031500D01*
X171073860Y-85057671D01*
X170949926Y-85109006D01*
X170838388Y-85183533D01*
X170743533Y-85278388D01*
X170669006Y-85389926D01*
X170617671Y-85513860D01*
X170591500Y-85645427D01*
X164285878Y-85645427D01*
X164307329Y-85593640D01*
X164333500Y-85462073D01*
X164333500Y-85327927D01*
X164307329Y-85196360D01*
X164255994Y-85072426D01*
X164181467Y-84960888D01*
X164086612Y-84866033D01*
X163975074Y-84791506D01*
X163851140Y-84740171D01*
X163719573Y-84714000D01*
X163585427Y-84714000D01*
X163453860Y-84740171D01*
X163329926Y-84791506D01*
X163218388Y-84866033D01*
X163123533Y-84960888D01*
X163049006Y-85072426D01*
X162997671Y-85196360D01*
X162971500Y-85327927D01*
X162971500Y-85462073D01*
X162997671Y-85593640D01*
X163049006Y-85717574D01*
X163123533Y-85829112D01*
X163165671Y-85871250D01*
X163123533Y-85913388D01*
X163049006Y-86024926D01*
X162997671Y-86148860D01*
X162971500Y-86280427D01*
X162971500Y-86414573D01*
X162997671Y-86546140D01*
X163049006Y-86670074D01*
X163123533Y-86781612D01*
X163218388Y-86876467D01*
X163329926Y-86950994D01*
X163453860Y-87002329D01*
X163467157Y-87004974D01*
X163467157Y-91391946D01*
X163402073Y-91379000D01*
X163267927Y-91379000D01*
X163136360Y-91405171D01*
X163012426Y-91456506D01*
X162900888Y-91531033D01*
X162806033Y-91625888D01*
X162731506Y-91737426D01*
X162680171Y-91861360D01*
X162654000Y-91992927D01*
X161481000Y-91992927D01*
X161481000Y-91827843D01*
X161550000Y-91827843D01*
X161624689Y-91820487D01*
X161696508Y-91798701D01*
X161762696Y-91763322D01*
X161820711Y-91715711D01*
X161868322Y-91657696D01*
X161903701Y-91591508D01*
X161925487Y-91519689D01*
X161932843Y-91445000D01*
X161932843Y-86845000D01*
X161925487Y-86770311D01*
X161903701Y-86698492D01*
X161868322Y-86632304D01*
X161820711Y-86574289D01*
X161762696Y-86526678D01*
X161696508Y-86491299D01*
X161624689Y-86469513D01*
X161550000Y-86462157D01*
X160514035Y-86462157D01*
X160523500Y-86414573D01*
X160523500Y-86280427D01*
X160497329Y-86148860D01*
X160445994Y-86024926D01*
X160371467Y-85913388D01*
X160276612Y-85818533D01*
X160165074Y-85744006D01*
X160041140Y-85692671D01*
X159909573Y-85666500D01*
X159775427Y-85666500D01*
X159643860Y-85692671D01*
X159519926Y-85744006D01*
X159408388Y-85818533D01*
X159313533Y-85913388D01*
X159239006Y-86024926D01*
X159187671Y-86148860D01*
X159161500Y-86280427D01*
X159161500Y-86414573D01*
X159170965Y-86462157D01*
X158750000Y-86462157D01*
X158675311Y-86469513D01*
X158603492Y-86491299D01*
X158537304Y-86526678D01*
X158479289Y-86574289D01*
X158431678Y-86632304D01*
X158396299Y-86698492D01*
X158374513Y-86770311D01*
X158367157Y-86845000D01*
X158367157Y-87085556D01*
X158260074Y-87014006D01*
X158136140Y-86962671D01*
X158004573Y-86936500D01*
X157870427Y-86936500D01*
X157738860Y-86962671D01*
X157614926Y-87014006D01*
X157503388Y-87088533D01*
X157408533Y-87183388D01*
X157334006Y-87294926D01*
X157282671Y-87418860D01*
X157256500Y-87550427D01*
X141632843Y-87550427D01*
X141632843Y-86845000D01*
X141625487Y-86770311D01*
X141603701Y-86698492D01*
X141568322Y-86632304D01*
X141520711Y-86574289D01*
X141462696Y-86526678D01*
X141396508Y-86491299D01*
X141324689Y-86469513D01*
X141250000Y-86462157D01*
X140150000Y-86462157D01*
X140075311Y-86469513D01*
X140003492Y-86491299D01*
X139937304Y-86526678D01*
X139879289Y-86574289D01*
X139850000Y-86609978D01*
X139820711Y-86574289D01*
X139762696Y-86526678D01*
X139696508Y-86491299D01*
X139624689Y-86469513D01*
X139558861Y-86463030D01*
X139568500Y-86414573D01*
X139568500Y-86280427D01*
X139542329Y-86148860D01*
X139490994Y-86024926D01*
X139416467Y-85913388D01*
X139321612Y-85818533D01*
X139210074Y-85744006D01*
X139086140Y-85692671D01*
X138954573Y-85666500D01*
X138820427Y-85666500D01*
X138818720Y-85666840D01*
X138766217Y-85588263D01*
X138671362Y-85493408D01*
X138559824Y-85418881D01*
X138435890Y-85367546D01*
X138304323Y-85341375D01*
X138170177Y-85341375D01*
X138038610Y-85367546D01*
X137914676Y-85418881D01*
X137803138Y-85493408D01*
X137708283Y-85588263D01*
X137633756Y-85699801D01*
X137582421Y-85823735D01*
X137556250Y-85955302D01*
X137556250Y-86089448D01*
X137582421Y-86221015D01*
X137633756Y-86344949D01*
X137708283Y-86456487D01*
X137803138Y-86551342D01*
X137914676Y-86625869D01*
X138038610Y-86677204D01*
X138101040Y-86689622D01*
X138096299Y-86698492D01*
X138074513Y-86770311D01*
X138067157Y-86845000D01*
X138067157Y-91445000D01*
X138074513Y-91519689D01*
X138096299Y-91591508D01*
X138131678Y-91657696D01*
X138179289Y-91715711D01*
X138237304Y-91763322D01*
X138303492Y-91798701D01*
X138375311Y-91820487D01*
X138450000Y-91827843D01*
X138519000Y-91827843D01*
X138519000Y-92498264D01*
X138483264Y-92534000D01*
X133019579Y-92534000D01*
X132971612Y-92486033D01*
X132860074Y-92411506D01*
X132736140Y-92360171D01*
X132604573Y-92334000D01*
X132470427Y-92334000D01*
X132338860Y-92360171D01*
X132214926Y-92411506D01*
X132103388Y-92486033D01*
X132008533Y-92580888D01*
X131934006Y-92692426D01*
X131882671Y-92816360D01*
X131856500Y-92947927D01*
X125406000Y-92947927D01*
X125406000Y-90090427D01*
X127094000Y-90090427D01*
X127094000Y-90224573D01*
X127120171Y-90356140D01*
X127171506Y-90480074D01*
X127246033Y-90591612D01*
X127340888Y-90686467D01*
X127452426Y-90760994D01*
X127576360Y-90812329D01*
X127707927Y-90838500D01*
X127842073Y-90838500D01*
X127973640Y-90812329D01*
X128097574Y-90760994D01*
X128209112Y-90686467D01*
X128303967Y-90591612D01*
X128378494Y-90480074D01*
X128429829Y-90356140D01*
X128456000Y-90224573D01*
X128456000Y-90090427D01*
X128429829Y-89958860D01*
X128378494Y-89834926D01*
X128303967Y-89723388D01*
X128209112Y-89628533D01*
X128097574Y-89554006D01*
X127973640Y-89502671D01*
X127842073Y-89476500D01*
X127707927Y-89476500D01*
X127576360Y-89502671D01*
X127452426Y-89554006D01*
X127340888Y-89628533D01*
X127246033Y-89723388D01*
X127171506Y-89834926D01*
X127120171Y-89958860D01*
X127094000Y-90090427D01*
X125406000Y-90090427D01*
X125406000Y-89137927D01*
X130904000Y-89137927D01*
X130904000Y-89272073D01*
X130930171Y-89403640D01*
X130981506Y-89527574D01*
X131056033Y-89639112D01*
X131150888Y-89733967D01*
X131262426Y-89808494D01*
X131386360Y-89859829D01*
X131517927Y-89886000D01*
X131652073Y-89886000D01*
X131783640Y-89859829D01*
X131907574Y-89808494D01*
X132019112Y-89733967D01*
X132113967Y-89639112D01*
X132188494Y-89527574D01*
X132239829Y-89403640D01*
X132266000Y-89272073D01*
X132266000Y-89137927D01*
X132239829Y-89006360D01*
X132188494Y-88882426D01*
X132113967Y-88770888D01*
X132019112Y-88676033D01*
X131907574Y-88601506D01*
X131783640Y-88550171D01*
X131652073Y-88524000D01*
X131517927Y-88524000D01*
X131386360Y-88550171D01*
X131262426Y-88601506D01*
X131150888Y-88676033D01*
X131056033Y-88770888D01*
X130981506Y-88882426D01*
X130930171Y-89006360D01*
X130904000Y-89137927D01*
X125406000Y-89137927D01*
X125406000Y-87550427D01*
X131856500Y-87550427D01*
X131856500Y-87684573D01*
X131882671Y-87816140D01*
X131934006Y-87940074D01*
X132008533Y-88051612D01*
X132103388Y-88146467D01*
X132214926Y-88220994D01*
X132338860Y-88272329D01*
X132470427Y-88298500D01*
X132604573Y-88298500D01*
X132736140Y-88272329D01*
X132860074Y-88220994D01*
X132967157Y-88149444D01*
X132967157Y-91445000D01*
X132974513Y-91519689D01*
X132996299Y-91591508D01*
X133031678Y-91657696D01*
X133079289Y-91715711D01*
X133137304Y-91763322D01*
X133203492Y-91798701D01*
X133275311Y-91820487D01*
X133350000Y-91827843D01*
X134450000Y-91827843D01*
X134524689Y-91820487D01*
X134596508Y-91798701D01*
X134662696Y-91763322D01*
X134720711Y-91715711D01*
X134750000Y-91680022D01*
X134779289Y-91715711D01*
X134837304Y-91763322D01*
X134903492Y-91798701D01*
X134975311Y-91820487D01*
X135050000Y-91827843D01*
X136150000Y-91827843D01*
X136224689Y-91820487D01*
X136296508Y-91798701D01*
X136362696Y-91763322D01*
X136420711Y-91715711D01*
X136468322Y-91657696D01*
X136503701Y-91591508D01*
X136525487Y-91519689D01*
X136532843Y-91445000D01*
X136532843Y-86845000D01*
X136525487Y-86770311D01*
X136503701Y-86698492D01*
X136468322Y-86632304D01*
X136420711Y-86574289D01*
X136362696Y-86526678D01*
X136296508Y-86491299D01*
X136224689Y-86469513D01*
X136150000Y-86462157D01*
X136081000Y-86462157D01*
X136081000Y-85071736D01*
X136229237Y-84923500D01*
X141228264Y-84923500D01*
X141264001Y-84959237D01*
X141264001Y-85230420D01*
X141216033Y-85278388D01*
X141141506Y-85389926D01*
X141090171Y-85513860D01*
X141064000Y-85645427D01*
X141064000Y-85779573D01*
X141090171Y-85911140D01*
X141141506Y-86035074D01*
X141216033Y-86146612D01*
X141310888Y-86241467D01*
X141422426Y-86315994D01*
X141546360Y-86367329D01*
X141677927Y-86393500D01*
X141812073Y-86393500D01*
X141943640Y-86367329D01*
X142067574Y-86315994D01*
X142179112Y-86241467D01*
X142273967Y-86146612D01*
X142348494Y-86035074D01*
X142399829Y-85911140D01*
X142426000Y-85779573D01*
X142426000Y-85645427D01*
X142399829Y-85513860D01*
X142348494Y-85389926D01*
X142273967Y-85278388D01*
X142226000Y-85230421D01*
X142226000Y-85010427D01*
X149636500Y-85010427D01*
X149636500Y-85144573D01*
X149662671Y-85276140D01*
X149714006Y-85400074D01*
X149788533Y-85511612D01*
X149883388Y-85606467D01*
X149994926Y-85680994D01*
X150118860Y-85732329D01*
X150250427Y-85758500D01*
X150384573Y-85758500D01*
X150516140Y-85732329D01*
X150640074Y-85680994D01*
X150751612Y-85606467D01*
X150846467Y-85511612D01*
X150920994Y-85400074D01*
X150972329Y-85276140D01*
X150998500Y-85144573D01*
X150998500Y-85010427D01*
X150972329Y-84878860D01*
X150920994Y-84754926D01*
X150846467Y-84643388D01*
X150751612Y-84548533D01*
X150640074Y-84474006D01*
X150516140Y-84422671D01*
X150384573Y-84396500D01*
X150250427Y-84396500D01*
X150118860Y-84422671D01*
X149994926Y-84474006D01*
X149883388Y-84548533D01*
X149788533Y-84643388D01*
X149714006Y-84754926D01*
X149662671Y-84878860D01*
X149636500Y-85010427D01*
X142226000Y-85010427D01*
X142226000Y-84783626D01*
X142228327Y-84760000D01*
X142219040Y-84665707D01*
X142207438Y-84627461D01*
X142191536Y-84575039D01*
X142146872Y-84491478D01*
X142086764Y-84418236D01*
X142068406Y-84403170D01*
X141784330Y-84119094D01*
X141769264Y-84100736D01*
X141696022Y-84040628D01*
X141612461Y-83995964D01*
X141521792Y-83968460D01*
X141451126Y-83961500D01*
X141427500Y-83959173D01*
X141403874Y-83961500D01*
X136053626Y-83961500D01*
X136030000Y-83959173D01*
X135935707Y-83968460D01*
X135908203Y-83976804D01*
X135845039Y-83995964D01*
X135761478Y-84040628D01*
X135688236Y-84100736D01*
X135673174Y-84119089D01*
X135276593Y-84515670D01*
X135258236Y-84530736D01*
X135198128Y-84603978D01*
X135153464Y-84687540D01*
X135137499Y-84740171D01*
X135125960Y-84778208D01*
X135122052Y-84817884D01*
X135082574Y-84791506D01*
X134958640Y-84740171D01*
X134827073Y-84714000D01*
X134692927Y-84714000D01*
X134561360Y-84740171D01*
X134437426Y-84791506D01*
X134325888Y-84866033D01*
X134231033Y-84960888D01*
X134156506Y-85072426D01*
X134105171Y-85196360D01*
X134079000Y-85327927D01*
X134079000Y-85462073D01*
X134105171Y-85593640D01*
X134156506Y-85717574D01*
X134164260Y-85729178D01*
X134122426Y-85746506D01*
X134010888Y-85821033D01*
X133916033Y-85915888D01*
X133841506Y-86027426D01*
X133790171Y-86151360D01*
X133764000Y-86282927D01*
X133764000Y-86417073D01*
X133772968Y-86462157D01*
X133350000Y-86462157D01*
X133275311Y-86469513D01*
X133203492Y-86491299D01*
X133137304Y-86526678D01*
X133079289Y-86574289D01*
X133031678Y-86632304D01*
X132996299Y-86698492D01*
X132974513Y-86770311D01*
X132967157Y-86845000D01*
X132967157Y-87085556D01*
X132860074Y-87014006D01*
X132736140Y-86962671D01*
X132604573Y-86936500D01*
X132470427Y-86936500D01*
X132338860Y-86962671D01*
X132214926Y-87014006D01*
X132103388Y-87088533D01*
X132008533Y-87183388D01*
X131934006Y-87294926D01*
X131882671Y-87418860D01*
X131856500Y-87550427D01*
X125406000Y-87550427D01*
X125406000Y-85645427D01*
X128364000Y-85645427D01*
X128364000Y-85779573D01*
X128390171Y-85911140D01*
X128441506Y-86035074D01*
X128516033Y-86146612D01*
X128610888Y-86241467D01*
X128722426Y-86315994D01*
X128846360Y-86367329D01*
X128977927Y-86393500D01*
X129112073Y-86393500D01*
X129243640Y-86367329D01*
X129367574Y-86315994D01*
X129479112Y-86241467D01*
X129573967Y-86146612D01*
X129648494Y-86035074D01*
X129699829Y-85911140D01*
X129726000Y-85779573D01*
X129726000Y-85645427D01*
X129699829Y-85513860D01*
X129648494Y-85389926D01*
X129573967Y-85278388D01*
X129479112Y-85183533D01*
X129367574Y-85109006D01*
X129243640Y-85057671D01*
X129112073Y-85031500D01*
X128977927Y-85031500D01*
X128846360Y-85057671D01*
X128722426Y-85109006D01*
X128610888Y-85183533D01*
X128516033Y-85278388D01*
X128441506Y-85389926D01*
X128390171Y-85513860D01*
X128364000Y-85645427D01*
X125406000Y-85645427D01*
X125406000Y-83105427D01*
X149319000Y-83105427D01*
X149319000Y-83239573D01*
X149345171Y-83371140D01*
X149396506Y-83495074D01*
X149471033Y-83606612D01*
X149565888Y-83701467D01*
X149677426Y-83775994D01*
X149801360Y-83827329D01*
X149932927Y-83853500D01*
X150067073Y-83853500D01*
X150198640Y-83827329D01*
X150322574Y-83775994D01*
X150434112Y-83701467D01*
X150528967Y-83606612D01*
X150603494Y-83495074D01*
X150654829Y-83371140D01*
X150681000Y-83239573D01*
X150681000Y-83105427D01*
X152811500Y-83105427D01*
X152811500Y-83239573D01*
X152837671Y-83371140D01*
X152889006Y-83495074D01*
X152963533Y-83606612D01*
X153058388Y-83701467D01*
X153169926Y-83775994D01*
X153293860Y-83827329D01*
X153425427Y-83853500D01*
X153559573Y-83853500D01*
X153691140Y-83827329D01*
X153815074Y-83775994D01*
X153926612Y-83701467D01*
X154021467Y-83606612D01*
X154095994Y-83495074D01*
X154147329Y-83371140D01*
X154173500Y-83239573D01*
X154173500Y-83105427D01*
X154147329Y-82973860D01*
X154095994Y-82849926D01*
X154042769Y-82770269D01*
X154122426Y-82823494D01*
X154246360Y-82874829D01*
X154377927Y-82901000D01*
X154512073Y-82901000D01*
X154643640Y-82874829D01*
X154767574Y-82823494D01*
X154879112Y-82748967D01*
X154973967Y-82654112D01*
X155048494Y-82542574D01*
X155099829Y-82418640D01*
X155126000Y-82287073D01*
X155126000Y-82152927D01*
X155099829Y-82021360D01*
X155048494Y-81897426D01*
X154973967Y-81785888D01*
X154879112Y-81691033D01*
X154767574Y-81616506D01*
X154643640Y-81565171D01*
X154512073Y-81539000D01*
X154377927Y-81539000D01*
X154246360Y-81565171D01*
X154122426Y-81616506D01*
X154010888Y-81691033D01*
X153916033Y-81785888D01*
X153841506Y-81897426D01*
X153790171Y-82021360D01*
X153764000Y-82152927D01*
X153764000Y-82287073D01*
X153790171Y-82418640D01*
X153841506Y-82542574D01*
X153894731Y-82622231D01*
X153815074Y-82569006D01*
X153691140Y-82517671D01*
X153559573Y-82491500D01*
X153425427Y-82491500D01*
X153293860Y-82517671D01*
X153169926Y-82569006D01*
X153058388Y-82643533D01*
X152963533Y-82738388D01*
X152889006Y-82849926D01*
X152837671Y-82973860D01*
X152811500Y-83105427D01*
X150681000Y-83105427D01*
X150654829Y-82973860D01*
X150603494Y-82849926D01*
X150528967Y-82738388D01*
X150434112Y-82643533D01*
X150322574Y-82569006D01*
X150198640Y-82517671D01*
X150067073Y-82491500D01*
X149932927Y-82491500D01*
X149801360Y-82517671D01*
X149677426Y-82569006D01*
X149565888Y-82643533D01*
X149471033Y-82738388D01*
X149396506Y-82849926D01*
X149345171Y-82973860D01*
X149319000Y-83105427D01*
X125406000Y-83105427D01*
X125406000Y-78686699D01*
X125819000Y-78686699D01*
X125819000Y-79313301D01*
X125941245Y-79927863D01*
X126181035Y-80506768D01*
X126529156Y-81027769D01*
X126972231Y-81470844D01*
X127493232Y-81818965D01*
X128072137Y-82058755D01*
X128686699Y-82181000D01*
X129313301Y-82181000D01*
X129454432Y-82152927D01*
X144874000Y-82152927D01*
X144874000Y-82287073D01*
X144900171Y-82418640D01*
X144951506Y-82542574D01*
X145026033Y-82654112D01*
X145120888Y-82748967D01*
X145232426Y-82823494D01*
X145356360Y-82874829D01*
X145487927Y-82901000D01*
X145622073Y-82901000D01*
X145753640Y-82874829D01*
X145877574Y-82823494D01*
X145989112Y-82748967D01*
X146083967Y-82654112D01*
X146158494Y-82542574D01*
X146209829Y-82418640D01*
X146236000Y-82287073D01*
X146236000Y-82152927D01*
X146209829Y-82021360D01*
X146158494Y-81897426D01*
X146083967Y-81785888D01*
X145989112Y-81691033D01*
X145877574Y-81616506D01*
X145753640Y-81565171D01*
X145622073Y-81539000D01*
X145487927Y-81539000D01*
X145356360Y-81565171D01*
X145232426Y-81616506D01*
X145120888Y-81691033D01*
X145026033Y-81785888D01*
X144951506Y-81897426D01*
X144900171Y-82021360D01*
X144874000Y-82152927D01*
X129454432Y-82152927D01*
X129927863Y-82058755D01*
X130506768Y-81818965D01*
X131027769Y-81470844D01*
X131470844Y-81027769D01*
X131818965Y-80506768D01*
X132058755Y-79927863D01*
X132075997Y-79841182D01*
X152629000Y-79841182D01*
X152629000Y-80073818D01*
X152674386Y-80301985D01*
X152763412Y-80516913D01*
X152892658Y-80710343D01*
X153057157Y-80874842D01*
X153250587Y-81004088D01*
X153465515Y-81093114D01*
X153693682Y-81138500D01*
X153926318Y-81138500D01*
X154154485Y-81093114D01*
X154369413Y-81004088D01*
X154562843Y-80874842D01*
X154727342Y-80710343D01*
X154856588Y-80516913D01*
X154945614Y-80301985D01*
X154991000Y-80073818D01*
X154991000Y-79841182D01*
X154945614Y-79613015D01*
X154856588Y-79398087D01*
X154727342Y-79204657D01*
X154562843Y-79040158D01*
X154369413Y-78910912D01*
X154154485Y-78821886D01*
X153926318Y-78776500D01*
X153693682Y-78776500D01*
X153465515Y-78821886D01*
X153250587Y-78910912D01*
X153057157Y-79040158D01*
X152892658Y-79204657D01*
X152763412Y-79398087D01*
X152674386Y-79613015D01*
X152629000Y-79841182D01*
X132075997Y-79841182D01*
X132181000Y-79313301D01*
X132181000Y-78686699D01*
X132058755Y-78072137D01*
X131818965Y-77493232D01*
X131470844Y-76972231D01*
X131027769Y-76529156D01*
X130891235Y-76437927D01*
X135349000Y-76437927D01*
X135349000Y-76572073D01*
X135375171Y-76703640D01*
X135426506Y-76827574D01*
X135501033Y-76939112D01*
X135595888Y-77033967D01*
X135707426Y-77108494D01*
X135831360Y-77159829D01*
X135962927Y-77186000D01*
X136097073Y-77186000D01*
X136228640Y-77159829D01*
X136352574Y-77108494D01*
X136464112Y-77033967D01*
X136558967Y-76939112D01*
X136633494Y-76827574D01*
X136684829Y-76703640D01*
X136694007Y-76657500D01*
X145007157Y-76657500D01*
X145007157Y-78257500D01*
X145014513Y-78332189D01*
X145036299Y-78404008D01*
X145071678Y-78470196D01*
X145119289Y-78528211D01*
X145177304Y-78575822D01*
X145243492Y-78611201D01*
X145315311Y-78632987D01*
X145390000Y-78640343D01*
X146990000Y-78640343D01*
X147064689Y-78632987D01*
X147136508Y-78611201D01*
X147202696Y-78575822D01*
X147260711Y-78528211D01*
X147308322Y-78470196D01*
X147343701Y-78404008D01*
X147365487Y-78332189D01*
X147372843Y-78257500D01*
X147372843Y-77905744D01*
X149043000Y-77905744D01*
X149043000Y-78094256D01*
X149079777Y-78279147D01*
X149151917Y-78453310D01*
X149256649Y-78610052D01*
X149389948Y-78743351D01*
X149546690Y-78848083D01*
X149720853Y-78920223D01*
X149905744Y-78957000D01*
X150094256Y-78957000D01*
X150279147Y-78920223D01*
X150453310Y-78848083D01*
X150610052Y-78743351D01*
X150666704Y-78686699D01*
X167819000Y-78686699D01*
X167819000Y-79313301D01*
X167941245Y-79927863D01*
X168181035Y-80506768D01*
X168529156Y-81027769D01*
X168972231Y-81470844D01*
X169493232Y-81818965D01*
X170072137Y-82058755D01*
X170686699Y-82181000D01*
X171313301Y-82181000D01*
X171927863Y-82058755D01*
X172506768Y-81818965D01*
X173027769Y-81470844D01*
X173470844Y-81027769D01*
X173818965Y-80506768D01*
X174058755Y-79927863D01*
X174181000Y-79313301D01*
X174181000Y-78686699D01*
X174058755Y-78072137D01*
X173818965Y-77493232D01*
X173470844Y-76972231D01*
X173027769Y-76529156D01*
X172506768Y-76181035D01*
X171927863Y-75941245D01*
X171313301Y-75819000D01*
X170686699Y-75819000D01*
X170072137Y-75941245D01*
X169493232Y-76181035D01*
X168972231Y-76529156D01*
X168529156Y-76972231D01*
X168181035Y-77493232D01*
X167941245Y-78072137D01*
X167819000Y-78686699D01*
X150666704Y-78686699D01*
X150743351Y-78610052D01*
X150848083Y-78453310D01*
X150920223Y-78279147D01*
X150957000Y-78094256D01*
X150957000Y-77905744D01*
X150920223Y-77720853D01*
X150848083Y-77546690D01*
X150743351Y-77389948D01*
X150610052Y-77256649D01*
X150453310Y-77151917D01*
X150279147Y-77079777D01*
X150094256Y-77043000D01*
X149905744Y-77043000D01*
X149720853Y-77079777D01*
X149546690Y-77151917D01*
X149389948Y-77256649D01*
X149256649Y-77389948D01*
X149151917Y-77546690D01*
X149079777Y-77720853D01*
X149043000Y-77905744D01*
X147372843Y-77905744D01*
X147372843Y-76657500D01*
X152627157Y-76657500D01*
X152627157Y-78257500D01*
X152634513Y-78332189D01*
X152656299Y-78404008D01*
X152691678Y-78470196D01*
X152739289Y-78528211D01*
X152797304Y-78575822D01*
X152863492Y-78611201D01*
X152935311Y-78632987D01*
X153010000Y-78640343D01*
X154610000Y-78640343D01*
X154684689Y-78632987D01*
X154756508Y-78611201D01*
X154822696Y-78575822D01*
X154880711Y-78528211D01*
X154928322Y-78470196D01*
X154963701Y-78404008D01*
X154985487Y-78332189D01*
X154992843Y-78257500D01*
X154992843Y-76657500D01*
X154985487Y-76582811D01*
X154963701Y-76510992D01*
X154928322Y-76444804D01*
X154922679Y-76437927D01*
X161066500Y-76437927D01*
X161066500Y-76572073D01*
X161092671Y-76703640D01*
X161144006Y-76827574D01*
X161218533Y-76939112D01*
X161313388Y-77033967D01*
X161424926Y-77108494D01*
X161548860Y-77159829D01*
X161680427Y-77186000D01*
X161814573Y-77186000D01*
X161946140Y-77159829D01*
X162070074Y-77108494D01*
X162181612Y-77033967D01*
X162276467Y-76939112D01*
X162350994Y-76827574D01*
X162402329Y-76703640D01*
X162428500Y-76572073D01*
X162428500Y-76437927D01*
X164559000Y-76437927D01*
X164559000Y-76572073D01*
X164585171Y-76703640D01*
X164636506Y-76827574D01*
X164711033Y-76939112D01*
X164805888Y-77033967D01*
X164917426Y-77108494D01*
X165041360Y-77159829D01*
X165172927Y-77186000D01*
X165307073Y-77186000D01*
X165438640Y-77159829D01*
X165562574Y-77108494D01*
X165674112Y-77033967D01*
X165768967Y-76939112D01*
X165843494Y-76827574D01*
X165894829Y-76703640D01*
X165921000Y-76572073D01*
X165921000Y-76437927D01*
X165894829Y-76306360D01*
X165843494Y-76182426D01*
X165768967Y-76070888D01*
X165674112Y-75976033D01*
X165562574Y-75901506D01*
X165438640Y-75850171D01*
X165307073Y-75824000D01*
X165172927Y-75824000D01*
X165041360Y-75850171D01*
X164917426Y-75901506D01*
X164805888Y-75976033D01*
X164711033Y-76070888D01*
X164636506Y-76182426D01*
X164585171Y-76306360D01*
X164559000Y-76437927D01*
X162428500Y-76437927D01*
X162402329Y-76306360D01*
X162350994Y-76182426D01*
X162276467Y-76070888D01*
X162181612Y-75976033D01*
X162070074Y-75901506D01*
X161946140Y-75850171D01*
X161814573Y-75824000D01*
X161680427Y-75824000D01*
X161548860Y-75850171D01*
X161424926Y-75901506D01*
X161313388Y-75976033D01*
X161218533Y-76070888D01*
X161144006Y-76182426D01*
X161092671Y-76306360D01*
X161066500Y-76437927D01*
X154922679Y-76437927D01*
X154880711Y-76386789D01*
X154822696Y-76339178D01*
X154756508Y-76303799D01*
X154684689Y-76282013D01*
X154610000Y-76274657D01*
X153010000Y-76274657D01*
X152935311Y-76282013D01*
X152863492Y-76303799D01*
X152797304Y-76339178D01*
X152739289Y-76386789D01*
X152691678Y-76444804D01*
X152656299Y-76510992D01*
X152634513Y-76582811D01*
X152627157Y-76657500D01*
X147372843Y-76657500D01*
X147365487Y-76582811D01*
X147343701Y-76510992D01*
X147308322Y-76444804D01*
X147260711Y-76386789D01*
X147202696Y-76339178D01*
X147136508Y-76303799D01*
X147064689Y-76282013D01*
X146990000Y-76274657D01*
X145390000Y-76274657D01*
X145315311Y-76282013D01*
X145243492Y-76303799D01*
X145177304Y-76339178D01*
X145119289Y-76386789D01*
X145071678Y-76444804D01*
X145036299Y-76510992D01*
X145014513Y-76582811D01*
X145007157Y-76657500D01*
X136694007Y-76657500D01*
X136711000Y-76572073D01*
X136711000Y-76437927D01*
X136684829Y-76306360D01*
X136633494Y-76182426D01*
X136558967Y-76070888D01*
X136464112Y-75976033D01*
X136352574Y-75901506D01*
X136228640Y-75850171D01*
X136097073Y-75824000D01*
X135962927Y-75824000D01*
X135831360Y-75850171D01*
X135707426Y-75901506D01*
X135595888Y-75976033D01*
X135501033Y-76070888D01*
X135426506Y-76182426D01*
X135375171Y-76306360D01*
X135349000Y-76437927D01*
X130891235Y-76437927D01*
X130506768Y-76181035D01*
X129927863Y-75941245D01*
X129313301Y-75819000D01*
X128686699Y-75819000D01*
X128072137Y-75941245D01*
X127493232Y-76181035D01*
X126972231Y-76529156D01*
X126529156Y-76972231D01*
X126181035Y-77493232D01*
X125941245Y-78072137D01*
X125819000Y-78686699D01*
X125406000Y-78686699D01*
X125406000Y-76019854D01*
X125419222Y-75885006D01*
X125452620Y-75774386D01*
X125506868Y-75672361D01*
X125579895Y-75582821D01*
X125668925Y-75509167D01*
X125770572Y-75454208D01*
X125880949Y-75420040D01*
X126014528Y-75406000D01*
X173980146Y-75406000D01*
X174114994Y-75419222D01*
%TA.AperFunction,Conductor*%
D23*
G36*
X174114994Y-75419222D02*
G01*
X174225614Y-75452620D01*
X174327639Y-75506868D01*
X174417179Y-75579895D01*
X174490833Y-75668925D01*
X174545792Y-75770572D01*
X174579960Y-75880949D01*
X174594001Y-76014538D01*
X174594000Y-123980146D01*
X174580778Y-124114994D01*
X174547379Y-124225615D01*
X174493132Y-124327639D01*
X174420106Y-124417179D01*
X174331072Y-124490834D01*
X174229428Y-124545792D01*
X174119051Y-124579960D01*
X173985472Y-124594000D01*
X126019854Y-124594000D01*
X125885006Y-124580778D01*
X125774385Y-124547379D01*
X125672361Y-124493132D01*
X125582821Y-124420106D01*
X125509166Y-124331072D01*
X125454208Y-124229428D01*
X125420040Y-124119051D01*
X125406000Y-123985472D01*
X125406000Y-120686699D01*
X125819000Y-120686699D01*
X125819000Y-121313301D01*
X125941245Y-121927863D01*
X126181035Y-122506768D01*
X126529156Y-123027769D01*
X126972231Y-123470844D01*
X127493232Y-123818965D01*
X128072137Y-124058755D01*
X128686699Y-124181000D01*
X129313301Y-124181000D01*
X129927863Y-124058755D01*
X130506768Y-123818965D01*
X131027769Y-123470844D01*
X131470844Y-123027769D01*
X131818965Y-122506768D01*
X132058755Y-121927863D01*
X132181000Y-121313301D01*
X132181000Y-121073682D01*
X140629000Y-121073682D01*
X140629000Y-121306318D01*
X140674386Y-121534485D01*
X140763412Y-121749413D01*
X140892658Y-121942843D01*
X141057157Y-122107342D01*
X141250587Y-122236588D01*
X141465515Y-122325614D01*
X141693682Y-122371000D01*
X141926318Y-122371000D01*
X142154485Y-122325614D01*
X142369413Y-122236588D01*
X142562843Y-122107342D01*
X142727342Y-121942843D01*
X142856588Y-121749413D01*
X142945614Y-121534485D01*
X142991000Y-121306318D01*
X142991000Y-121073682D01*
X164629000Y-121073682D01*
X164629000Y-121306318D01*
X164674386Y-121534485D01*
X164763412Y-121749413D01*
X164892658Y-121942843D01*
X165057157Y-122107342D01*
X165250587Y-122236588D01*
X165465515Y-122325614D01*
X165693682Y-122371000D01*
X165926318Y-122371000D01*
X166154485Y-122325614D01*
X166369413Y-122236588D01*
X166562843Y-122107342D01*
X166727342Y-121942843D01*
X166856588Y-121749413D01*
X166945614Y-121534485D01*
X166991000Y-121306318D01*
X166991000Y-121073682D01*
X166945614Y-120845515D01*
X166879831Y-120686699D01*
X167819000Y-120686699D01*
X167819000Y-121313301D01*
X167941245Y-121927863D01*
X168181035Y-122506768D01*
X168529156Y-123027769D01*
X168972231Y-123470844D01*
X169493232Y-123818965D01*
X170072137Y-124058755D01*
X170686699Y-124181000D01*
X171313301Y-124181000D01*
X171927863Y-124058755D01*
X172506768Y-123818965D01*
X173027769Y-123470844D01*
X173470844Y-123027769D01*
X173818965Y-122506768D01*
X174058755Y-121927863D01*
X174181000Y-121313301D01*
X174181000Y-120686699D01*
X174058755Y-120072137D01*
X173818965Y-119493232D01*
X173470844Y-118972231D01*
X173027769Y-118529156D01*
X172506768Y-118181035D01*
X171927863Y-117941245D01*
X171313301Y-117819000D01*
X170686699Y-117819000D01*
X170072137Y-117941245D01*
X169493232Y-118181035D01*
X168972231Y-118529156D01*
X168529156Y-118972231D01*
X168181035Y-119493232D01*
X167941245Y-120072137D01*
X167819000Y-120686699D01*
X166879831Y-120686699D01*
X166856588Y-120630587D01*
X166727342Y-120437157D01*
X166562843Y-120272658D01*
X166369413Y-120143412D01*
X166154485Y-120054386D01*
X165926318Y-120009000D01*
X165693682Y-120009000D01*
X165465515Y-120054386D01*
X165250587Y-120143412D01*
X165057157Y-120272658D01*
X164892658Y-120437157D01*
X164763412Y-120630587D01*
X164674386Y-120845515D01*
X164629000Y-121073682D01*
X142991000Y-121073682D01*
X142945614Y-120845515D01*
X142856588Y-120630587D01*
X142727342Y-120437157D01*
X142562843Y-120272658D01*
X142369413Y-120143412D01*
X142154485Y-120054386D01*
X141926318Y-120009000D01*
X141693682Y-120009000D01*
X141465515Y-120054386D01*
X141250587Y-120143412D01*
X141057157Y-120272658D01*
X140892658Y-120437157D01*
X140763412Y-120630587D01*
X140674386Y-120845515D01*
X140629000Y-121073682D01*
X132181000Y-121073682D01*
X132181000Y-120686699D01*
X132058755Y-120072137D01*
X131818965Y-119493232D01*
X131470844Y-118972231D01*
X131027769Y-118529156D01*
X130506768Y-118181035D01*
X129927863Y-117941245D01*
X129313301Y-117819000D01*
X128686699Y-117819000D01*
X128072137Y-117941245D01*
X127493232Y-118181035D01*
X126972231Y-118529156D01*
X126529156Y-118972231D01*
X126181035Y-119493232D01*
X125941245Y-120072137D01*
X125819000Y-120686699D01*
X125406000Y-120686699D01*
X125406000Y-115905744D01*
X126043000Y-115905744D01*
X126043000Y-116094256D01*
X126079777Y-116279147D01*
X126151917Y-116453310D01*
X126256649Y-116610052D01*
X126389948Y-116743351D01*
X126546690Y-116848083D01*
X126720853Y-116920223D01*
X126905744Y-116957000D01*
X127094256Y-116957000D01*
X127279147Y-116920223D01*
X127453310Y-116848083D01*
X127610052Y-116743351D01*
X127743351Y-116610052D01*
X127848083Y-116453310D01*
X127920223Y-116279147D01*
X127957000Y-116094256D01*
X127957000Y-115993682D01*
X133009000Y-115993682D01*
X133009000Y-116226318D01*
X133054386Y-116454485D01*
X133143412Y-116669413D01*
X133272658Y-116862843D01*
X133437157Y-117027342D01*
X133630587Y-117156588D01*
X133845515Y-117245614D01*
X134073682Y-117291000D01*
X134306318Y-117291000D01*
X134534485Y-117245614D01*
X134749413Y-117156588D01*
X134942843Y-117027342D01*
X135107342Y-116862843D01*
X135236588Y-116669413D01*
X135325614Y-116454485D01*
X135371000Y-116226318D01*
X135371000Y-115993682D01*
X157009000Y-115993682D01*
X157009000Y-116226318D01*
X157054386Y-116454485D01*
X157143412Y-116669413D01*
X157272658Y-116862843D01*
X157437157Y-117027342D01*
X157630587Y-117156588D01*
X157845515Y-117245614D01*
X158073682Y-117291000D01*
X158306318Y-117291000D01*
X158534485Y-117245614D01*
X158749413Y-117156588D01*
X158942843Y-117027342D01*
X159107342Y-116862843D01*
X159236588Y-116669413D01*
X159325614Y-116454485D01*
X159371000Y-116226318D01*
X159371000Y-115993682D01*
X159353508Y-115905744D01*
X172043000Y-115905744D01*
X172043000Y-116094256D01*
X172079777Y-116279147D01*
X172151917Y-116453310D01*
X172256649Y-116610052D01*
X172389948Y-116743351D01*
X172546690Y-116848083D01*
X172720853Y-116920223D01*
X172905744Y-116957000D01*
X173094256Y-116957000D01*
X173279147Y-116920223D01*
X173453310Y-116848083D01*
X173610052Y-116743351D01*
X173743351Y-116610052D01*
X173848083Y-116453310D01*
X173920223Y-116279147D01*
X173957000Y-116094256D01*
X173957000Y-115905744D01*
X173920223Y-115720853D01*
X173848083Y-115546690D01*
X173743351Y-115389948D01*
X173610052Y-115256649D01*
X173453310Y-115151917D01*
X173279147Y-115079777D01*
X173094256Y-115043000D01*
X172905744Y-115043000D01*
X172720853Y-115079777D01*
X172546690Y-115151917D01*
X172389948Y-115256649D01*
X172256649Y-115389948D01*
X172151917Y-115546690D01*
X172079777Y-115720853D01*
X172043000Y-115905744D01*
X159353508Y-115905744D01*
X159325614Y-115765515D01*
X159236588Y-115550587D01*
X159107342Y-115357157D01*
X158942843Y-115192658D01*
X158749413Y-115063412D01*
X158534485Y-114974386D01*
X158306318Y-114929000D01*
X158073682Y-114929000D01*
X157845515Y-114974386D01*
X157630587Y-115063412D01*
X157437157Y-115192658D01*
X157272658Y-115357157D01*
X157143412Y-115550587D01*
X157054386Y-115765515D01*
X157009000Y-115993682D01*
X135371000Y-115993682D01*
X135325614Y-115765515D01*
X135236588Y-115550587D01*
X135107342Y-115357157D01*
X134942843Y-115192658D01*
X134749413Y-115063412D01*
X134534485Y-114974386D01*
X134306318Y-114929000D01*
X134073682Y-114929000D01*
X133845515Y-114974386D01*
X133630587Y-115063412D01*
X133437157Y-115192658D01*
X133272658Y-115357157D01*
X133143412Y-115550587D01*
X133054386Y-115765515D01*
X133009000Y-115993682D01*
X127957000Y-115993682D01*
X127957000Y-115905744D01*
X127920223Y-115720853D01*
X127848083Y-115546690D01*
X127743351Y-115389948D01*
X127610052Y-115256649D01*
X127453310Y-115151917D01*
X127279147Y-115079777D01*
X127094256Y-115043000D01*
X126905744Y-115043000D01*
X126720853Y-115079777D01*
X126546690Y-115151917D01*
X126389948Y-115256649D01*
X126256649Y-115389948D01*
X126151917Y-115546690D01*
X126079777Y-115720853D01*
X126043000Y-115905744D01*
X125406000Y-115905744D01*
X125406000Y-112658757D01*
X125969000Y-112658757D01*
X125969000Y-112901243D01*
X126016307Y-113139069D01*
X126109102Y-113363097D01*
X126243820Y-113564717D01*
X126415283Y-113736180D01*
X126616903Y-113870898D01*
X126840931Y-113963693D01*
X127078757Y-114011000D01*
X127321243Y-114011000D01*
X127559069Y-113963693D01*
X127783097Y-113870898D01*
X127984717Y-113736180D01*
X128156180Y-113564717D01*
X128290898Y-113363097D01*
X128383693Y-113139069D01*
X128431000Y-112901243D01*
X128431000Y-112658757D01*
X128383693Y-112420931D01*
X128290898Y-112196903D01*
X128239288Y-112119662D01*
X136169000Y-112119662D01*
X136169000Y-112480338D01*
X136239365Y-112834083D01*
X136377389Y-113167304D01*
X136577770Y-113467194D01*
X136832806Y-113722230D01*
X137132696Y-113922611D01*
X137465917Y-114060635D01*
X137819662Y-114131000D01*
X138180338Y-114131000D01*
X138534083Y-114060635D01*
X138867304Y-113922611D01*
X139167194Y-113722230D01*
X139422230Y-113467194D01*
X139622611Y-113167304D01*
X139760635Y-112834083D01*
X139831000Y-112480338D01*
X139831000Y-112119662D01*
X160169000Y-112119662D01*
X160169000Y-112480338D01*
X160239365Y-112834083D01*
X160377389Y-113167304D01*
X160577770Y-113467194D01*
X160832806Y-113722230D01*
X161132696Y-113922611D01*
X161465917Y-114060635D01*
X161819662Y-114131000D01*
X162180338Y-114131000D01*
X162534083Y-114060635D01*
X162867304Y-113922611D01*
X163167194Y-113722230D01*
X163422230Y-113467194D01*
X163622611Y-113167304D01*
X163760635Y-112834083D01*
X163795509Y-112658757D01*
X171329000Y-112658757D01*
X171329000Y-112901243D01*
X171376307Y-113139069D01*
X171469102Y-113363097D01*
X171603820Y-113564717D01*
X171775283Y-113736180D01*
X171976903Y-113870898D01*
X172200931Y-113963693D01*
X172438757Y-114011000D01*
X172681243Y-114011000D01*
X172919069Y-113963693D01*
X173143097Y-113870898D01*
X173344717Y-113736180D01*
X173516180Y-113564717D01*
X173650898Y-113363097D01*
X173743693Y-113139069D01*
X173791000Y-112901243D01*
X173791000Y-112658757D01*
X173743693Y-112420931D01*
X173650898Y-112196903D01*
X173516180Y-111995283D01*
X173344717Y-111823820D01*
X173143097Y-111689102D01*
X172919069Y-111596307D01*
X172681243Y-111549000D01*
X172438757Y-111549000D01*
X172200931Y-111596307D01*
X171976903Y-111689102D01*
X171775283Y-111823820D01*
X171603820Y-111995283D01*
X171469102Y-112196903D01*
X171376307Y-112420931D01*
X171329000Y-112658757D01*
X163795509Y-112658757D01*
X163831000Y-112480338D01*
X163831000Y-112119662D01*
X163760635Y-111765917D01*
X163622611Y-111432696D01*
X163422230Y-111132806D01*
X163167194Y-110877770D01*
X162867304Y-110677389D01*
X162534083Y-110539365D01*
X162180338Y-110469000D01*
X161819662Y-110469000D01*
X161465917Y-110539365D01*
X161132696Y-110677389D01*
X160832806Y-110877770D01*
X160577770Y-111132806D01*
X160377389Y-111432696D01*
X160239365Y-111765917D01*
X160169000Y-112119662D01*
X139831000Y-112119662D01*
X139760635Y-111765917D01*
X139622611Y-111432696D01*
X139422230Y-111132806D01*
X139167194Y-110877770D01*
X138867304Y-110677389D01*
X138534083Y-110539365D01*
X138180338Y-110469000D01*
X137819662Y-110469000D01*
X137465917Y-110539365D01*
X137132696Y-110677389D01*
X136832806Y-110877770D01*
X136577770Y-111132806D01*
X136377389Y-111432696D01*
X136239365Y-111765917D01*
X136169000Y-112119662D01*
X128239288Y-112119662D01*
X128156180Y-111995283D01*
X127984717Y-111823820D01*
X127783097Y-111689102D01*
X127559069Y-111596307D01*
X127321243Y-111549000D01*
X127078757Y-111549000D01*
X126840931Y-111596307D01*
X126616903Y-111689102D01*
X126415283Y-111823820D01*
X126243820Y-111995283D01*
X126109102Y-112196903D01*
X126016307Y-112420931D01*
X125969000Y-112658757D01*
X125406000Y-112658757D01*
X125406000Y-110118757D01*
X125969000Y-110118757D01*
X125969000Y-110361243D01*
X126016307Y-110599069D01*
X126109102Y-110823097D01*
X126243820Y-111024717D01*
X126415283Y-111196180D01*
X126616903Y-111330898D01*
X126840931Y-111423693D01*
X127078757Y-111471000D01*
X127321243Y-111471000D01*
X127559069Y-111423693D01*
X127783097Y-111330898D01*
X127984717Y-111196180D01*
X128156180Y-111024717D01*
X128290898Y-110823097D01*
X128383693Y-110599069D01*
X128431000Y-110361243D01*
X128431000Y-110118757D01*
X171329000Y-110118757D01*
X171329000Y-110361243D01*
X171376307Y-110599069D01*
X171469102Y-110823097D01*
X171603820Y-111024717D01*
X171775283Y-111196180D01*
X171976903Y-111330898D01*
X172200931Y-111423693D01*
X172438757Y-111471000D01*
X172681243Y-111471000D01*
X172919069Y-111423693D01*
X173143097Y-111330898D01*
X173344717Y-111196180D01*
X173516180Y-111024717D01*
X173650898Y-110823097D01*
X173743693Y-110599069D01*
X173791000Y-110361243D01*
X173791000Y-110118757D01*
X173743693Y-109880931D01*
X173650898Y-109656903D01*
X173516180Y-109455283D01*
X173344717Y-109283820D01*
X173143097Y-109149102D01*
X172919069Y-109056307D01*
X172681243Y-109009000D01*
X172438757Y-109009000D01*
X172200931Y-109056307D01*
X171976903Y-109149102D01*
X171775283Y-109283820D01*
X171603820Y-109455283D01*
X171469102Y-109656903D01*
X171376307Y-109880931D01*
X171329000Y-110118757D01*
X128431000Y-110118757D01*
X128383693Y-109880931D01*
X128290898Y-109656903D01*
X128156180Y-109455283D01*
X127984717Y-109283820D01*
X127783097Y-109149102D01*
X127559069Y-109056307D01*
X127321243Y-109009000D01*
X127078757Y-109009000D01*
X126840931Y-109056307D01*
X126616903Y-109149102D01*
X126415283Y-109283820D01*
X126243820Y-109455283D01*
X126109102Y-109656903D01*
X126016307Y-109880931D01*
X125969000Y-110118757D01*
X125406000Y-110118757D01*
X125406000Y-107578757D01*
X125969000Y-107578757D01*
X125969000Y-107821243D01*
X126016307Y-108059069D01*
X126109102Y-108283097D01*
X126243820Y-108484717D01*
X126415283Y-108656180D01*
X126616903Y-108790898D01*
X126840931Y-108883693D01*
X127078757Y-108931000D01*
X127321243Y-108931000D01*
X127559069Y-108883693D01*
X127783097Y-108790898D01*
X127984717Y-108656180D01*
X128156180Y-108484717D01*
X128290898Y-108283097D01*
X128383693Y-108059069D01*
X128431000Y-107821243D01*
X128431000Y-107578757D01*
X128383693Y-107340931D01*
X128290898Y-107116903D01*
X128222835Y-107015039D01*
X132109000Y-107015039D01*
X132109000Y-107424961D01*
X132188972Y-107827005D01*
X132345842Y-108205723D01*
X132573582Y-108546560D01*
X132863440Y-108836418D01*
X133204277Y-109064158D01*
X133582995Y-109221028D01*
X133985039Y-109301000D01*
X134394961Y-109301000D01*
X134797005Y-109221028D01*
X135175723Y-109064158D01*
X135516560Y-108836418D01*
X135806418Y-108546560D01*
X136034158Y-108205723D01*
X136191028Y-107827005D01*
X136222449Y-107669042D01*
X136239365Y-107754083D01*
X136377389Y-108087304D01*
X136577770Y-108387194D01*
X136832806Y-108642230D01*
X137132696Y-108842611D01*
X137465917Y-108980635D01*
X137819662Y-109051000D01*
X138180338Y-109051000D01*
X138534083Y-108980635D01*
X138867304Y-108842611D01*
X139167194Y-108642230D01*
X139422230Y-108387194D01*
X139622611Y-108087304D01*
X139760635Y-107754083D01*
X139777551Y-107669042D01*
X139808972Y-107827005D01*
X139965842Y-108205723D01*
X140193582Y-108546560D01*
X140483440Y-108836418D01*
X140824277Y-109064158D01*
X141202995Y-109221028D01*
X141605039Y-109301000D01*
X142014961Y-109301000D01*
X142417005Y-109221028D01*
X142795723Y-109064158D01*
X143136560Y-108836418D01*
X143426418Y-108546560D01*
X143654158Y-108205723D01*
X143811028Y-107827005D01*
X143891000Y-107424961D01*
X143891000Y-107015039D01*
X143811028Y-106612995D01*
X143654158Y-106234277D01*
X143587824Y-106135000D01*
X146227157Y-106135000D01*
X146227157Y-107835000D01*
X146234513Y-107909689D01*
X146256299Y-107981508D01*
X146291678Y-108047696D01*
X146339289Y-108105711D01*
X146397304Y-108153322D01*
X146463492Y-108188701D01*
X146535311Y-108210487D01*
X146610000Y-108217843D01*
X148310000Y-108217843D01*
X148384689Y-108210487D01*
X148456508Y-108188701D01*
X148522696Y-108153322D01*
X148580711Y-108105711D01*
X148628322Y-108047696D01*
X148663701Y-107981508D01*
X148685487Y-107909689D01*
X148692843Y-107835000D01*
X148692843Y-106863757D01*
X148769000Y-106863757D01*
X148769000Y-107106243D01*
X148816307Y-107344069D01*
X148909102Y-107568097D01*
X149043820Y-107769717D01*
X149215283Y-107941180D01*
X149416903Y-108075898D01*
X149640931Y-108168693D01*
X149878757Y-108216000D01*
X150121243Y-108216000D01*
X150359069Y-108168693D01*
X150583097Y-108075898D01*
X150784717Y-107941180D01*
X150956180Y-107769717D01*
X151090898Y-107568097D01*
X151183693Y-107344069D01*
X151231000Y-107106243D01*
X151231000Y-106863757D01*
X151309000Y-106863757D01*
X151309000Y-107106243D01*
X151356307Y-107344069D01*
X151449102Y-107568097D01*
X151583820Y-107769717D01*
X151755283Y-107941180D01*
X151956903Y-108075898D01*
X152180931Y-108168693D01*
X152418757Y-108216000D01*
X152661243Y-108216000D01*
X152899069Y-108168693D01*
X153123097Y-108075898D01*
X153324717Y-107941180D01*
X153496180Y-107769717D01*
X153630898Y-107568097D01*
X153723693Y-107344069D01*
X153771000Y-107106243D01*
X153771000Y-107015039D01*
X156109000Y-107015039D01*
X156109000Y-107424961D01*
X156188972Y-107827005D01*
X156345842Y-108205723D01*
X156573582Y-108546560D01*
X156863440Y-108836418D01*
X157204277Y-109064158D01*
X157582995Y-109221028D01*
X157985039Y-109301000D01*
X158394961Y-109301000D01*
X158797005Y-109221028D01*
X159175723Y-109064158D01*
X159516560Y-108836418D01*
X159806418Y-108546560D01*
X160034158Y-108205723D01*
X160191028Y-107827005D01*
X160222449Y-107669042D01*
X160239365Y-107754083D01*
X160377389Y-108087304D01*
X160577770Y-108387194D01*
X160832806Y-108642230D01*
X161132696Y-108842611D01*
X161465917Y-108980635D01*
X161819662Y-109051000D01*
X162180338Y-109051000D01*
X162534083Y-108980635D01*
X162867304Y-108842611D01*
X163167194Y-108642230D01*
X163422230Y-108387194D01*
X163622611Y-108087304D01*
X163760635Y-107754083D01*
X163777551Y-107669042D01*
X163808972Y-107827005D01*
X163965842Y-108205723D01*
X164193582Y-108546560D01*
X164483440Y-108836418D01*
X164824277Y-109064158D01*
X165202995Y-109221028D01*
X165605039Y-109301000D01*
X166014961Y-109301000D01*
X166417005Y-109221028D01*
X166795723Y-109064158D01*
X167136560Y-108836418D01*
X167426418Y-108546560D01*
X167654158Y-108205723D01*
X167811028Y-107827005D01*
X167860407Y-107578757D01*
X171329000Y-107578757D01*
X171329000Y-107821243D01*
X171376307Y-108059069D01*
X171469102Y-108283097D01*
X171603820Y-108484717D01*
X171775283Y-108656180D01*
X171976903Y-108790898D01*
X172200931Y-108883693D01*
X172438757Y-108931000D01*
X172681243Y-108931000D01*
X172919069Y-108883693D01*
X173143097Y-108790898D01*
X173344717Y-108656180D01*
X173516180Y-108484717D01*
X173650898Y-108283097D01*
X173743693Y-108059069D01*
X173791000Y-107821243D01*
X173791000Y-107578757D01*
X173743693Y-107340931D01*
X173650898Y-107116903D01*
X173516180Y-106915283D01*
X173344717Y-106743820D01*
X173143097Y-106609102D01*
X172919069Y-106516307D01*
X172681243Y-106469000D01*
X172438757Y-106469000D01*
X172200931Y-106516307D01*
X171976903Y-106609102D01*
X171775283Y-106743820D01*
X171603820Y-106915283D01*
X171469102Y-107116903D01*
X171376307Y-107340931D01*
X171329000Y-107578757D01*
X167860407Y-107578757D01*
X167891000Y-107424961D01*
X167891000Y-107015039D01*
X167811028Y-106612995D01*
X167654158Y-106234277D01*
X167426418Y-105893440D01*
X167136560Y-105603582D01*
X166795723Y-105375842D01*
X166417005Y-105218972D01*
X166014961Y-105139000D01*
X165605039Y-105139000D01*
X165274528Y-105204743D01*
X165286000Y-105147073D01*
X165286000Y-105038757D01*
X171329000Y-105038757D01*
X171329000Y-105281243D01*
X171376307Y-105519069D01*
X171469102Y-105743097D01*
X171603820Y-105944717D01*
X171775283Y-106116180D01*
X171976903Y-106250898D01*
X172200931Y-106343693D01*
X172438757Y-106391000D01*
X172681243Y-106391000D01*
X172919069Y-106343693D01*
X173143097Y-106250898D01*
X173344717Y-106116180D01*
X173516180Y-105944717D01*
X173650898Y-105743097D01*
X173743693Y-105519069D01*
X173791000Y-105281243D01*
X173791000Y-105038757D01*
X173743693Y-104800931D01*
X173650898Y-104576903D01*
X173516180Y-104375283D01*
X173344717Y-104203820D01*
X173143097Y-104069102D01*
X172919069Y-103976307D01*
X172681243Y-103929000D01*
X172438757Y-103929000D01*
X172200931Y-103976307D01*
X171976903Y-104069102D01*
X171775283Y-104203820D01*
X171603820Y-104375283D01*
X171469102Y-104576903D01*
X171376307Y-104800931D01*
X171329000Y-105038757D01*
X165286000Y-105038757D01*
X165286000Y-105012927D01*
X165259829Y-104881360D01*
X165208494Y-104757426D01*
X165133967Y-104645888D01*
X165039112Y-104551033D01*
X164927574Y-104476506D01*
X164803640Y-104425171D01*
X164672073Y-104399000D01*
X164537927Y-104399000D01*
X164406360Y-104425171D01*
X164282426Y-104476506D01*
X164170888Y-104551033D01*
X164076033Y-104645888D01*
X164001506Y-104757426D01*
X163950171Y-104881360D01*
X163924000Y-105012927D01*
X163924000Y-105147073D01*
X163950171Y-105278640D01*
X164001506Y-105402574D01*
X164076033Y-105514112D01*
X164170888Y-105608967D01*
X164282426Y-105683494D01*
X164368058Y-105718964D01*
X164193582Y-105893440D01*
X163965842Y-106234277D01*
X163808972Y-106612995D01*
X163777551Y-106770958D01*
X163760635Y-106685917D01*
X163622611Y-106352696D01*
X163422230Y-106052806D01*
X163167194Y-105797770D01*
X162867304Y-105597389D01*
X162534083Y-105459365D01*
X162180338Y-105389000D01*
X161819662Y-105389000D01*
X161465917Y-105459365D01*
X161132696Y-105597389D01*
X160832806Y-105797770D01*
X160577770Y-106052806D01*
X160377389Y-106352696D01*
X160239365Y-106685917D01*
X160222449Y-106770958D01*
X160191028Y-106612995D01*
X160034158Y-106234277D01*
X159806418Y-105893440D01*
X159516560Y-105603582D01*
X159175723Y-105375842D01*
X158797005Y-105218972D01*
X158394961Y-105139000D01*
X157985039Y-105139000D01*
X157852323Y-105165399D01*
X157905994Y-105085074D01*
X157957329Y-104961140D01*
X157983500Y-104829573D01*
X157983500Y-104695427D01*
X157957329Y-104563860D01*
X157905994Y-104439926D01*
X157831467Y-104328388D01*
X157736612Y-104233533D01*
X157625074Y-104159006D01*
X157501140Y-104107671D01*
X157369573Y-104081500D01*
X157235427Y-104081500D01*
X157103860Y-104107671D01*
X156979926Y-104159006D01*
X156868388Y-104233533D01*
X156773533Y-104328388D01*
X156699006Y-104439926D01*
X156647671Y-104563860D01*
X156621500Y-104695427D01*
X156621500Y-104829573D01*
X156647671Y-104961140D01*
X156699006Y-105085074D01*
X156773533Y-105196612D01*
X156868388Y-105291467D01*
X156979926Y-105365994D01*
X157103860Y-105417329D01*
X157133395Y-105423204D01*
X156863440Y-105603582D01*
X156573582Y-105893440D01*
X156345842Y-106234277D01*
X156188972Y-106612995D01*
X156109000Y-107015039D01*
X153771000Y-107015039D01*
X153771000Y-106863757D01*
X153723693Y-106625931D01*
X153630898Y-106401903D01*
X153496180Y-106200283D01*
X153324717Y-106028820D01*
X153123097Y-105894102D01*
X152899069Y-105801307D01*
X152661243Y-105754000D01*
X152418757Y-105754000D01*
X152180931Y-105801307D01*
X151956903Y-105894102D01*
X151755283Y-106028820D01*
X151583820Y-106200283D01*
X151449102Y-106401903D01*
X151356307Y-106625931D01*
X151309000Y-106863757D01*
X151231000Y-106863757D01*
X151183693Y-106625931D01*
X151090898Y-106401903D01*
X150956180Y-106200283D01*
X150784717Y-106028820D01*
X150583097Y-105894102D01*
X150359069Y-105801307D01*
X150121243Y-105754000D01*
X149878757Y-105754000D01*
X149640931Y-105801307D01*
X149416903Y-105894102D01*
X149215283Y-106028820D01*
X149043820Y-106200283D01*
X148909102Y-106401903D01*
X148816307Y-106625931D01*
X148769000Y-106863757D01*
X148692843Y-106863757D01*
X148692843Y-106135000D01*
X148685487Y-106060311D01*
X148663701Y-105988492D01*
X148628322Y-105922304D01*
X148580711Y-105864289D01*
X148522696Y-105816678D01*
X148456508Y-105781299D01*
X148384689Y-105759513D01*
X148310000Y-105752157D01*
X146610000Y-105752157D01*
X146535311Y-105759513D01*
X146463492Y-105781299D01*
X146397304Y-105816678D01*
X146339289Y-105864289D01*
X146291678Y-105922304D01*
X146256299Y-105988492D01*
X146234513Y-106060311D01*
X146227157Y-106135000D01*
X143587824Y-106135000D01*
X143426418Y-105893440D01*
X143136560Y-105603582D01*
X142866605Y-105423204D01*
X142896140Y-105417329D01*
X143020074Y-105365994D01*
X143131612Y-105291467D01*
X143226467Y-105196612D01*
X143300994Y-105085074D01*
X143352329Y-104961140D01*
X143378500Y-104829573D01*
X143378500Y-104695427D01*
X146461500Y-104695427D01*
X146461500Y-104829573D01*
X146487671Y-104961140D01*
X146539006Y-105085074D01*
X146613533Y-105196612D01*
X146708388Y-105291467D01*
X146819926Y-105365994D01*
X146943860Y-105417329D01*
X147075427Y-105443500D01*
X147209573Y-105443500D01*
X147341140Y-105417329D01*
X147465074Y-105365994D01*
X147576612Y-105291467D01*
X147671467Y-105196612D01*
X147745994Y-105085074D01*
X147797329Y-104961140D01*
X147823500Y-104829573D01*
X147823500Y-104695427D01*
X147797329Y-104563860D01*
X147745994Y-104439926D01*
X147671467Y-104328388D01*
X147576612Y-104233533D01*
X147465074Y-104159006D01*
X147341140Y-104107671D01*
X147209573Y-104081500D01*
X147075427Y-104081500D01*
X146943860Y-104107671D01*
X146819926Y-104159006D01*
X146708388Y-104233533D01*
X146613533Y-104328388D01*
X146539006Y-104439926D01*
X146487671Y-104563860D01*
X146461500Y-104695427D01*
X143378500Y-104695427D01*
X143352329Y-104563860D01*
X143300994Y-104439926D01*
X143226467Y-104328388D01*
X143131612Y-104233533D01*
X143020074Y-104159006D01*
X142896140Y-104107671D01*
X142764573Y-104081500D01*
X142630427Y-104081500D01*
X142498860Y-104107671D01*
X142374926Y-104159006D01*
X142263388Y-104233533D01*
X142168533Y-104328388D01*
X142094006Y-104439926D01*
X142042671Y-104563860D01*
X142016500Y-104695427D01*
X142016500Y-104829573D01*
X142042671Y-104961140D01*
X142094006Y-105085074D01*
X142147677Y-105165399D01*
X142014961Y-105139000D01*
X141605039Y-105139000D01*
X141202995Y-105218972D01*
X140824277Y-105375842D01*
X140483440Y-105603582D01*
X140193582Y-105893440D01*
X139965842Y-106234277D01*
X139808972Y-106612995D01*
X139777551Y-106770958D01*
X139760635Y-106685917D01*
X139622611Y-106352696D01*
X139422230Y-106052806D01*
X139167194Y-105797770D01*
X138867304Y-105597389D01*
X138534083Y-105459365D01*
X138180338Y-105389000D01*
X137819662Y-105389000D01*
X137465917Y-105459365D01*
X137132696Y-105597389D01*
X136832806Y-105797770D01*
X136577770Y-106052806D01*
X136377389Y-106352696D01*
X136239365Y-106685917D01*
X136222449Y-106770958D01*
X136191028Y-106612995D01*
X136034158Y-106234277D01*
X135806418Y-105893440D01*
X135516560Y-105603582D01*
X135175723Y-105375842D01*
X134797005Y-105218972D01*
X134394961Y-105139000D01*
X133985039Y-105139000D01*
X133582995Y-105218972D01*
X133204277Y-105375842D01*
X132863440Y-105603582D01*
X132573582Y-105893440D01*
X132345842Y-106234277D01*
X132188972Y-106612995D01*
X132109000Y-107015039D01*
X128222835Y-107015039D01*
X128156180Y-106915283D01*
X127984717Y-106743820D01*
X127783097Y-106609102D01*
X127559069Y-106516307D01*
X127321243Y-106469000D01*
X127078757Y-106469000D01*
X126840931Y-106516307D01*
X126616903Y-106609102D01*
X126415283Y-106743820D01*
X126243820Y-106915283D01*
X126109102Y-107116903D01*
X126016307Y-107340931D01*
X125969000Y-107578757D01*
X125406000Y-107578757D01*
X125406000Y-102498757D01*
X125969000Y-102498757D01*
X125969000Y-102741243D01*
X126016307Y-102979069D01*
X126109102Y-103203097D01*
X126243820Y-103404717D01*
X126415283Y-103576180D01*
X126616903Y-103710898D01*
X126840931Y-103803693D01*
X127078757Y-103851000D01*
X127321243Y-103851000D01*
X127559069Y-103803693D01*
X127783097Y-103710898D01*
X127984717Y-103576180D01*
X128135470Y-103425427D01*
X135031500Y-103425427D01*
X135031500Y-103559573D01*
X135057671Y-103691140D01*
X135109006Y-103815074D01*
X135183533Y-103926612D01*
X135278388Y-104021467D01*
X135389926Y-104095994D01*
X135513860Y-104147329D01*
X135645427Y-104173500D01*
X135779573Y-104173500D01*
X135911140Y-104147329D01*
X136035074Y-104095994D01*
X136146612Y-104021467D01*
X136241467Y-103926612D01*
X136315994Y-103815074D01*
X136346913Y-103740427D01*
X149634000Y-103740427D01*
X149634000Y-103874573D01*
X149660171Y-104006140D01*
X149711506Y-104130074D01*
X149786033Y-104241612D01*
X149880888Y-104336467D01*
X149992426Y-104410994D01*
X150116360Y-104462329D01*
X150247927Y-104488500D01*
X150382073Y-104488500D01*
X150513640Y-104462329D01*
X150637574Y-104410994D01*
X150749112Y-104336467D01*
X150843967Y-104241612D01*
X150918494Y-104130074D01*
X150969829Y-104006140D01*
X150996000Y-103874573D01*
X150996000Y-103742927D01*
X155034000Y-103742927D01*
X155034000Y-103877073D01*
X155060171Y-104008640D01*
X155111506Y-104132574D01*
X155186033Y-104244112D01*
X155280888Y-104338967D01*
X155392426Y-104413494D01*
X155516360Y-104464829D01*
X155647927Y-104491000D01*
X155782073Y-104491000D01*
X155913640Y-104464829D01*
X156037574Y-104413494D01*
X156149112Y-104338967D01*
X156243967Y-104244112D01*
X156318494Y-104132574D01*
X156369829Y-104008640D01*
X156396000Y-103877073D01*
X156396000Y-103742927D01*
X156369829Y-103611360D01*
X156318494Y-103487426D01*
X156243967Y-103375888D01*
X156149112Y-103281033D01*
X156037574Y-103206506D01*
X155913640Y-103155171D01*
X155782073Y-103129000D01*
X155647927Y-103129000D01*
X155516360Y-103155171D01*
X155392426Y-103206506D01*
X155280888Y-103281033D01*
X155186033Y-103375888D01*
X155111506Y-103487426D01*
X155060171Y-103611360D01*
X155034000Y-103742927D01*
X150996000Y-103742927D01*
X150996000Y-103740427D01*
X150969829Y-103608860D01*
X150918494Y-103484926D01*
X150843967Y-103373388D01*
X150749112Y-103278533D01*
X150637574Y-103204006D01*
X150513640Y-103152671D01*
X150382073Y-103126500D01*
X150247927Y-103126500D01*
X150116360Y-103152671D01*
X149992426Y-103204006D01*
X149880888Y-103278533D01*
X149786033Y-103373388D01*
X149711506Y-103484926D01*
X149660171Y-103608860D01*
X149634000Y-103740427D01*
X136346913Y-103740427D01*
X136367329Y-103691140D01*
X136393500Y-103559573D01*
X136393500Y-103425427D01*
X136367329Y-103293860D01*
X136315994Y-103169926D01*
X136241467Y-103058388D01*
X136146612Y-102963533D01*
X136035074Y-102889006D01*
X135911140Y-102837671D01*
X135779573Y-102811500D01*
X135645427Y-102811500D01*
X135513860Y-102837671D01*
X135389926Y-102889006D01*
X135278388Y-102963533D01*
X135183533Y-103058388D01*
X135109006Y-103169926D01*
X135057671Y-103293860D01*
X135031500Y-103425427D01*
X128135470Y-103425427D01*
X128156180Y-103404717D01*
X128290898Y-103203097D01*
X128383693Y-102979069D01*
X128431000Y-102741243D01*
X128431000Y-102498757D01*
X128383693Y-102260931D01*
X128290898Y-102036903D01*
X128189686Y-101885427D01*
X155304000Y-101885427D01*
X155304000Y-102019573D01*
X155330171Y-102151140D01*
X155381506Y-102275074D01*
X155456033Y-102386612D01*
X155550888Y-102481467D01*
X155662426Y-102555994D01*
X155786360Y-102607329D01*
X155917927Y-102633500D01*
X156052073Y-102633500D01*
X156183640Y-102607329D01*
X156307574Y-102555994D01*
X156393235Y-102498757D01*
X171329000Y-102498757D01*
X171329000Y-102741243D01*
X171376307Y-102979069D01*
X171469102Y-103203097D01*
X171603820Y-103404717D01*
X171775283Y-103576180D01*
X171976903Y-103710898D01*
X172200931Y-103803693D01*
X172438757Y-103851000D01*
X172681243Y-103851000D01*
X172919069Y-103803693D01*
X173143097Y-103710898D01*
X173344717Y-103576180D01*
X173516180Y-103404717D01*
X173650898Y-103203097D01*
X173743693Y-102979069D01*
X173791000Y-102741243D01*
X173791000Y-102498757D01*
X173743693Y-102260931D01*
X173650898Y-102036903D01*
X173516180Y-101835283D01*
X173344717Y-101663820D01*
X173143097Y-101529102D01*
X172919069Y-101436307D01*
X172681243Y-101389000D01*
X172438757Y-101389000D01*
X172200931Y-101436307D01*
X171976903Y-101529102D01*
X171775283Y-101663820D01*
X171603820Y-101835283D01*
X171469102Y-102036903D01*
X171376307Y-102260931D01*
X171329000Y-102498757D01*
X156393235Y-102498757D01*
X156419112Y-102481467D01*
X156513967Y-102386612D01*
X156588494Y-102275074D01*
X156639829Y-102151140D01*
X156666000Y-102019573D01*
X156666000Y-101885427D01*
X156639829Y-101753860D01*
X156588494Y-101629926D01*
X156513967Y-101518388D01*
X156419112Y-101423533D01*
X156307574Y-101349006D01*
X156183640Y-101297671D01*
X156052073Y-101271500D01*
X155917927Y-101271500D01*
X155786360Y-101297671D01*
X155662426Y-101349006D01*
X155550888Y-101423533D01*
X155456033Y-101518388D01*
X155381506Y-101629926D01*
X155330171Y-101753860D01*
X155304000Y-101885427D01*
X128189686Y-101885427D01*
X128156180Y-101835283D01*
X127984717Y-101663820D01*
X127783097Y-101529102D01*
X127559069Y-101436307D01*
X127321243Y-101389000D01*
X127078757Y-101389000D01*
X126840931Y-101436307D01*
X126616903Y-101529102D01*
X126415283Y-101663820D01*
X126243820Y-101835283D01*
X126109102Y-102036903D01*
X126016307Y-102260931D01*
X125969000Y-102498757D01*
X125406000Y-102498757D01*
X125406000Y-99958757D01*
X125969000Y-99958757D01*
X125969000Y-100201243D01*
X126016307Y-100439069D01*
X126109102Y-100663097D01*
X126243820Y-100864717D01*
X126415283Y-101036180D01*
X126616903Y-101170898D01*
X126840931Y-101263693D01*
X127078757Y-101311000D01*
X127321243Y-101311000D01*
X127559069Y-101263693D01*
X127783097Y-101170898D01*
X127984717Y-101036180D01*
X128156180Y-100864717D01*
X128290898Y-100663097D01*
X128383693Y-100439069D01*
X128431000Y-100201243D01*
X128431000Y-99958757D01*
X171329000Y-99958757D01*
X171329000Y-100201243D01*
X171376307Y-100439069D01*
X171469102Y-100663097D01*
X171603820Y-100864717D01*
X171775283Y-101036180D01*
X171976903Y-101170898D01*
X172200931Y-101263693D01*
X172438757Y-101311000D01*
X172681243Y-101311000D01*
X172919069Y-101263693D01*
X173143097Y-101170898D01*
X173344717Y-101036180D01*
X173516180Y-100864717D01*
X173650898Y-100663097D01*
X173743693Y-100439069D01*
X173791000Y-100201243D01*
X173791000Y-99958757D01*
X173743693Y-99720931D01*
X173650898Y-99496903D01*
X173516180Y-99295283D01*
X173344717Y-99123820D01*
X173143097Y-98989102D01*
X172919069Y-98896307D01*
X172681243Y-98849000D01*
X172438757Y-98849000D01*
X172200931Y-98896307D01*
X171976903Y-98989102D01*
X171775283Y-99123820D01*
X171603820Y-99295283D01*
X171469102Y-99496903D01*
X171376307Y-99720931D01*
X171329000Y-99958757D01*
X128431000Y-99958757D01*
X128383693Y-99720931D01*
X128290898Y-99496903D01*
X128156180Y-99295283D01*
X127984717Y-99123820D01*
X127783097Y-98989102D01*
X127762154Y-98980427D01*
X143286500Y-98980427D01*
X143286500Y-99114573D01*
X143312671Y-99246140D01*
X143364006Y-99370074D01*
X143438533Y-99481612D01*
X143533388Y-99576467D01*
X143644926Y-99650994D01*
X143768860Y-99702329D01*
X143900427Y-99728500D01*
X144034573Y-99728500D01*
X144166140Y-99702329D01*
X144290074Y-99650994D01*
X144401612Y-99576467D01*
X144496467Y-99481612D01*
X144570994Y-99370074D01*
X144622329Y-99246140D01*
X144648500Y-99114573D01*
X144648500Y-98980427D01*
X144622329Y-98848860D01*
X144570994Y-98724926D01*
X144496467Y-98613388D01*
X144401612Y-98518533D01*
X144290074Y-98444006D01*
X144166140Y-98392671D01*
X144034573Y-98366500D01*
X143900427Y-98366500D01*
X143768860Y-98392671D01*
X143644926Y-98444006D01*
X143533388Y-98518533D01*
X143438533Y-98613388D01*
X143364006Y-98724926D01*
X143312671Y-98848860D01*
X143286500Y-98980427D01*
X127762154Y-98980427D01*
X127559069Y-98896307D01*
X127321243Y-98849000D01*
X127078757Y-98849000D01*
X126840931Y-98896307D01*
X126616903Y-98989102D01*
X126415283Y-99123820D01*
X126243820Y-99295283D01*
X126109102Y-99496903D01*
X126016307Y-99720931D01*
X125969000Y-99958757D01*
X125406000Y-99958757D01*
X125406000Y-97418757D01*
X125969000Y-97418757D01*
X125969000Y-97661243D01*
X126016307Y-97899069D01*
X126109102Y-98123097D01*
X126243820Y-98324717D01*
X126415283Y-98496180D01*
X126616903Y-98630898D01*
X126840931Y-98723693D01*
X127078757Y-98771000D01*
X127321243Y-98771000D01*
X127559069Y-98723693D01*
X127783097Y-98630898D01*
X127984717Y-98496180D01*
X128156180Y-98324717D01*
X128290898Y-98123097D01*
X128383693Y-97899069D01*
X128421216Y-97710427D01*
X147096500Y-97710427D01*
X147096500Y-97844573D01*
X147122671Y-97976140D01*
X147174006Y-98100074D01*
X147248533Y-98211612D01*
X147343388Y-98306467D01*
X147454926Y-98380994D01*
X147578860Y-98432329D01*
X147710427Y-98458500D01*
X147844573Y-98458500D01*
X147976140Y-98432329D01*
X148100074Y-98380994D01*
X148211612Y-98306467D01*
X148306467Y-98211612D01*
X148380994Y-98100074D01*
X148432329Y-97976140D01*
X148458500Y-97844573D01*
X148458500Y-97710427D01*
X148432329Y-97578860D01*
X148380994Y-97454926D01*
X148306467Y-97343388D01*
X148211612Y-97248533D01*
X148100074Y-97174006D01*
X147976140Y-97122671D01*
X147844573Y-97096500D01*
X147710427Y-97096500D01*
X147578860Y-97122671D01*
X147454926Y-97174006D01*
X147343388Y-97248533D01*
X147248533Y-97343388D01*
X147174006Y-97454926D01*
X147122671Y-97578860D01*
X147096500Y-97710427D01*
X128421216Y-97710427D01*
X128431000Y-97661243D01*
X128431000Y-97418757D01*
X128383693Y-97180931D01*
X128339993Y-97075427D01*
X155034000Y-97075427D01*
X155034000Y-97209573D01*
X155060171Y-97341140D01*
X155111506Y-97465074D01*
X155186033Y-97576612D01*
X155280888Y-97671467D01*
X155392426Y-97745994D01*
X155516360Y-97797329D01*
X155647927Y-97823500D01*
X155782073Y-97823500D01*
X155913640Y-97797329D01*
X156037574Y-97745994D01*
X156149112Y-97671467D01*
X156243967Y-97576612D01*
X156318494Y-97465074D01*
X156348378Y-97392927D01*
X169639000Y-97392927D01*
X169639000Y-97527073D01*
X169665171Y-97658640D01*
X169716506Y-97782574D01*
X169791033Y-97894112D01*
X169885888Y-97988967D01*
X169997426Y-98063494D01*
X170121360Y-98114829D01*
X170252927Y-98141000D01*
X170387073Y-98141000D01*
X170518640Y-98114829D01*
X170642574Y-98063494D01*
X170706171Y-98021000D01*
X171426812Y-98021000D01*
X171469102Y-98123097D01*
X171603820Y-98324717D01*
X171775283Y-98496180D01*
X171976903Y-98630898D01*
X172200931Y-98723693D01*
X172438757Y-98771000D01*
X172681243Y-98771000D01*
X172919069Y-98723693D01*
X173143097Y-98630898D01*
X173344717Y-98496180D01*
X173516180Y-98324717D01*
X173650898Y-98123097D01*
X173743693Y-97899069D01*
X173791000Y-97661243D01*
X173791000Y-97418757D01*
X173743693Y-97180931D01*
X173650898Y-96956903D01*
X173516180Y-96755283D01*
X173344717Y-96583820D01*
X173143097Y-96449102D01*
X172919069Y-96356307D01*
X172681243Y-96309000D01*
X172438757Y-96309000D01*
X172200931Y-96356307D01*
X171976903Y-96449102D01*
X171775283Y-96583820D01*
X171603820Y-96755283D01*
X171469102Y-96956903D01*
X171426812Y-97059000D01*
X170871092Y-97059000D01*
X170848967Y-97025888D01*
X170754112Y-96931033D01*
X170642574Y-96856506D01*
X170518640Y-96805171D01*
X170387073Y-96779000D01*
X170252927Y-96779000D01*
X170121360Y-96805171D01*
X169997426Y-96856506D01*
X169885888Y-96931033D01*
X169791033Y-97025888D01*
X169716506Y-97137426D01*
X169665171Y-97261360D01*
X169639000Y-97392927D01*
X156348378Y-97392927D01*
X156369829Y-97341140D01*
X156396000Y-97209573D01*
X156396000Y-97075427D01*
X156369829Y-96943860D01*
X156318494Y-96819926D01*
X156243967Y-96708388D01*
X156149112Y-96613533D01*
X156037574Y-96539006D01*
X155913640Y-96487671D01*
X155782073Y-96461500D01*
X155647927Y-96461500D01*
X155516360Y-96487671D01*
X155392426Y-96539006D01*
X155280888Y-96613533D01*
X155186033Y-96708388D01*
X155111506Y-96819926D01*
X155060171Y-96943860D01*
X155034000Y-97075427D01*
X128339993Y-97075427D01*
X128290898Y-96956903D01*
X128156180Y-96755283D01*
X127984717Y-96583820D01*
X127783097Y-96449102D01*
X127559069Y-96356307D01*
X127321243Y-96309000D01*
X127078757Y-96309000D01*
X126840931Y-96356307D01*
X126616903Y-96449102D01*
X126415283Y-96583820D01*
X126243820Y-96755283D01*
X126109102Y-96956903D01*
X126016307Y-97180931D01*
X125969000Y-97418757D01*
X125406000Y-97418757D01*
X125406000Y-94150000D01*
X125967157Y-94150000D01*
X125967157Y-95850000D01*
X125974513Y-95924689D01*
X125996299Y-95996508D01*
X126031678Y-96062696D01*
X126079289Y-96120711D01*
X126137304Y-96168322D01*
X126203492Y-96203701D01*
X126275311Y-96225487D01*
X126350000Y-96232843D01*
X128050000Y-96232843D01*
X128124689Y-96225487D01*
X128196508Y-96203701D01*
X128262696Y-96168322D01*
X128320711Y-96120711D01*
X128368322Y-96062696D01*
X128403701Y-95996508D01*
X128425487Y-95924689D01*
X128432843Y-95850000D01*
X128432843Y-94878757D01*
X171329000Y-94878757D01*
X171329000Y-95121243D01*
X171376307Y-95359069D01*
X171469102Y-95583097D01*
X171603820Y-95784717D01*
X171775283Y-95956180D01*
X171976903Y-96090898D01*
X172200931Y-96183693D01*
X172438757Y-96231000D01*
X172681243Y-96231000D01*
X172919069Y-96183693D01*
X173143097Y-96090898D01*
X173344717Y-95956180D01*
X173516180Y-95784717D01*
X173650898Y-95583097D01*
X173743693Y-95359069D01*
X173791000Y-95121243D01*
X173791000Y-94878757D01*
X173743693Y-94640931D01*
X173650898Y-94416903D01*
X173516180Y-94215283D01*
X173344717Y-94043820D01*
X173143097Y-93909102D01*
X172919069Y-93816307D01*
X172681243Y-93769000D01*
X172438757Y-93769000D01*
X172200931Y-93816307D01*
X171976903Y-93909102D01*
X171775283Y-94043820D01*
X171603820Y-94215283D01*
X171469102Y-94416903D01*
X171376307Y-94640931D01*
X171329000Y-94878757D01*
X128432843Y-94878757D01*
X128432843Y-94150000D01*
X128425487Y-94075311D01*
X128403701Y-94003492D01*
X128368322Y-93937304D01*
X128320711Y-93879289D01*
X128262696Y-93831678D01*
X128196508Y-93796299D01*
X128124689Y-93774513D01*
X128050000Y-93767157D01*
X126350000Y-93767157D01*
X126275311Y-93774513D01*
X126203492Y-93796299D01*
X126137304Y-93831678D01*
X126079289Y-93879289D01*
X126031678Y-93937304D01*
X125996299Y-94003492D01*
X125974513Y-94075311D01*
X125967157Y-94150000D01*
X125406000Y-94150000D01*
X125406000Y-92947927D01*
X131856500Y-92947927D01*
X131856500Y-93082073D01*
X131882671Y-93213640D01*
X131934006Y-93337574D01*
X132008533Y-93449112D01*
X132103388Y-93543967D01*
X132214926Y-93618494D01*
X132338860Y-93669829D01*
X132470427Y-93696000D01*
X132604573Y-93696000D01*
X132736140Y-93669829D01*
X132860074Y-93618494D01*
X132971612Y-93543967D01*
X133019579Y-93496000D01*
X138658874Y-93496000D01*
X138682500Y-93498327D01*
X138706126Y-93496000D01*
X138776792Y-93489040D01*
X138867461Y-93461536D01*
X138951022Y-93416872D01*
X139024264Y-93356764D01*
X139039330Y-93338406D01*
X139323406Y-93054330D01*
X139341764Y-93039264D01*
X139401872Y-92966022D01*
X139446536Y-92882461D01*
X139474040Y-92791792D01*
X139477071Y-92761023D01*
X139483327Y-92697500D01*
X139481000Y-92673874D01*
X139481000Y-92630427D01*
X145826500Y-92630427D01*
X145826500Y-92764573D01*
X145852671Y-92896140D01*
X145904006Y-93020074D01*
X145978533Y-93131612D01*
X146073388Y-93226467D01*
X146184926Y-93300994D01*
X146308860Y-93352329D01*
X146440427Y-93378500D01*
X146574573Y-93378500D01*
X146706140Y-93352329D01*
X146830074Y-93300994D01*
X146941612Y-93226467D01*
X147036467Y-93131612D01*
X147110994Y-93020074D01*
X147162329Y-92896140D01*
X147188500Y-92764573D01*
X147188500Y-92630427D01*
X149001500Y-92630427D01*
X149001500Y-92764573D01*
X149027671Y-92896140D01*
X149079006Y-93020074D01*
X149153533Y-93131612D01*
X149248388Y-93226467D01*
X149359926Y-93300994D01*
X149483860Y-93352329D01*
X149615427Y-93378500D01*
X149749573Y-93378500D01*
X149881140Y-93352329D01*
X150005074Y-93300994D01*
X150116612Y-93226467D01*
X150211467Y-93131612D01*
X150285994Y-93020074D01*
X150337329Y-92896140D01*
X150363500Y-92764573D01*
X150363500Y-92630427D01*
X150337329Y-92498860D01*
X150285994Y-92374926D01*
X150211467Y-92263388D01*
X150116612Y-92168533D01*
X150005074Y-92094006D01*
X149881140Y-92042671D01*
X149749573Y-92016500D01*
X149615427Y-92016500D01*
X149483860Y-92042671D01*
X149359926Y-92094006D01*
X149248388Y-92168533D01*
X149153533Y-92263388D01*
X149079006Y-92374926D01*
X149027671Y-92498860D01*
X149001500Y-92630427D01*
X147188500Y-92630427D01*
X147162329Y-92498860D01*
X147110994Y-92374926D01*
X147036467Y-92263388D01*
X146941612Y-92168533D01*
X146830074Y-92094006D01*
X146706140Y-92042671D01*
X146574573Y-92016500D01*
X146440427Y-92016500D01*
X146308860Y-92042671D01*
X146184926Y-92094006D01*
X146073388Y-92168533D01*
X145978533Y-92263388D01*
X145904006Y-92374926D01*
X145852671Y-92498860D01*
X145826500Y-92630427D01*
X139481000Y-92630427D01*
X139481000Y-91827843D01*
X139550000Y-91827843D01*
X139624689Y-91820487D01*
X139696508Y-91798701D01*
X139762696Y-91763322D01*
X139820711Y-91715711D01*
X139850000Y-91680022D01*
X139879289Y-91715711D01*
X139937304Y-91763322D01*
X140003492Y-91798701D01*
X140075311Y-91820487D01*
X140150000Y-91827843D01*
X141250000Y-91827843D01*
X141324689Y-91820487D01*
X141396508Y-91798701D01*
X141462696Y-91763322D01*
X141520711Y-91715711D01*
X141568322Y-91657696D01*
X141603701Y-91591508D01*
X141625487Y-91519689D01*
X141632843Y-91445000D01*
X141632843Y-90915236D01*
X141638967Y-90909112D01*
X141713494Y-90797574D01*
X141764829Y-90673640D01*
X141791000Y-90542073D01*
X141791000Y-90407927D01*
X141764829Y-90276360D01*
X141713494Y-90152426D01*
X141638967Y-90040888D01*
X141632843Y-90034764D01*
X141632843Y-90013000D01*
X141748573Y-90013000D01*
X141880140Y-89986829D01*
X142004074Y-89935494D01*
X142115612Y-89860967D01*
X142210467Y-89766112D01*
X142284994Y-89654574D01*
X142336329Y-89530640D01*
X142362500Y-89399073D01*
X142362500Y-89264927D01*
X142336329Y-89133360D01*
X142284994Y-89009426D01*
X142210467Y-88897888D01*
X142115612Y-88803033D01*
X142004074Y-88728506D01*
X141880140Y-88677171D01*
X141748573Y-88651000D01*
X141662762Y-88651000D01*
X141713494Y-88575074D01*
X141764829Y-88451140D01*
X141791000Y-88319573D01*
X141791000Y-88185427D01*
X141764829Y-88053860D01*
X141713494Y-87929926D01*
X141638967Y-87818388D01*
X141632843Y-87812264D01*
X141632843Y-87550427D01*
X157256500Y-87550427D01*
X157256500Y-87684573D01*
X157282671Y-87816140D01*
X157334006Y-87940074D01*
X157408533Y-88051612D01*
X157503388Y-88146467D01*
X157614926Y-88220994D01*
X157738860Y-88272329D01*
X157870427Y-88298500D01*
X158004573Y-88298500D01*
X158136140Y-88272329D01*
X158260074Y-88220994D01*
X158367157Y-88149444D01*
X158367157Y-91445000D01*
X158374513Y-91519689D01*
X158396299Y-91591508D01*
X158431678Y-91657696D01*
X158479289Y-91715711D01*
X158535131Y-91761539D01*
X158526500Y-91804929D01*
X158526500Y-91939075D01*
X158552671Y-92070642D01*
X158604006Y-92194576D01*
X158678533Y-92306114D01*
X158748399Y-92375980D01*
X158690986Y-92461906D01*
X158639651Y-92585840D01*
X158613480Y-92717407D01*
X158613480Y-92851553D01*
X158639651Y-92983120D01*
X158690986Y-93107054D01*
X158765513Y-93218592D01*
X158860368Y-93313447D01*
X158971906Y-93387974D01*
X159095840Y-93439309D01*
X159227407Y-93465480D01*
X159361553Y-93465480D01*
X159493120Y-93439309D01*
X159617054Y-93387974D01*
X159728592Y-93313447D01*
X159776559Y-93265480D01*
X160684394Y-93265480D01*
X160708020Y-93267807D01*
X160731646Y-93265480D01*
X160802312Y-93258520D01*
X160892981Y-93231016D01*
X160976542Y-93186352D01*
X161049784Y-93126244D01*
X161064850Y-93107886D01*
X161323406Y-92849330D01*
X161341764Y-92834264D01*
X161401872Y-92761022D01*
X161446536Y-92677461D01*
X161470179Y-92599519D01*
X161474040Y-92586793D01*
X161483327Y-92492501D01*
X161481000Y-92468874D01*
X161481000Y-91992927D01*
X162654000Y-91992927D01*
X162654000Y-92127073D01*
X162680171Y-92258640D01*
X162731506Y-92382574D01*
X162806033Y-92494112D01*
X162849421Y-92537500D01*
X162806033Y-92580888D01*
X162731506Y-92692426D01*
X162680171Y-92816360D01*
X162654000Y-92947927D01*
X162654000Y-93082073D01*
X162680171Y-93213640D01*
X162731506Y-93337574D01*
X162806033Y-93449112D01*
X162900888Y-93543967D01*
X163012426Y-93618494D01*
X163136360Y-93669829D01*
X163267927Y-93696000D01*
X163402073Y-93696000D01*
X163533640Y-93669829D01*
X163657574Y-93618494D01*
X163769112Y-93543967D01*
X163863967Y-93449112D01*
X163938494Y-93337574D01*
X163989829Y-93213640D01*
X164016000Y-93082073D01*
X164016000Y-92947927D01*
X163989829Y-92816360D01*
X163938494Y-92692426D01*
X163863967Y-92580888D01*
X163820579Y-92537500D01*
X163863967Y-92494112D01*
X163938494Y-92382574D01*
X163989829Y-92258640D01*
X164012682Y-92143756D01*
X164058236Y-92199264D01*
X164076594Y-92214330D01*
X164883175Y-93020911D01*
X164898236Y-93039264D01*
X164971478Y-93099372D01*
X165055039Y-93144036D01*
X165145708Y-93171540D01*
X165216374Y-93178500D01*
X165216375Y-93178500D01*
X165239999Y-93180827D01*
X165263623Y-93178500D01*
X167297921Y-93178500D01*
X167345888Y-93226467D01*
X167457426Y-93300994D01*
X167581360Y-93352329D01*
X167712927Y-93378500D01*
X167847073Y-93378500D01*
X167978640Y-93352329D01*
X168102574Y-93300994D01*
X168214112Y-93226467D01*
X168308967Y-93131612D01*
X168383494Y-93020074D01*
X168434829Y-92896140D01*
X168461000Y-92764573D01*
X168461000Y-92630427D01*
X168434829Y-92498860D01*
X168390951Y-92392927D01*
X169719000Y-92392927D01*
X169719000Y-92527073D01*
X169745171Y-92658640D01*
X169796506Y-92782574D01*
X169871033Y-92894112D01*
X169965888Y-92988967D01*
X170077426Y-93063494D01*
X170201360Y-93114829D01*
X170332927Y-93141000D01*
X170467073Y-93141000D01*
X170598640Y-93114829D01*
X170722574Y-93063494D01*
X170756239Y-93041000D01*
X171468233Y-93041000D01*
X171469102Y-93043097D01*
X171603820Y-93244717D01*
X171775283Y-93416180D01*
X171976903Y-93550898D01*
X172200931Y-93643693D01*
X172438757Y-93691000D01*
X172681243Y-93691000D01*
X172919069Y-93643693D01*
X173143097Y-93550898D01*
X173344717Y-93416180D01*
X173516180Y-93244717D01*
X173650898Y-93043097D01*
X173743693Y-92819069D01*
X173791000Y-92581243D01*
X173791000Y-92338757D01*
X173743693Y-92100931D01*
X173650898Y-91876903D01*
X173516180Y-91675283D01*
X173344717Y-91503820D01*
X173143097Y-91369102D01*
X172919069Y-91276307D01*
X172681243Y-91229000D01*
X172438757Y-91229000D01*
X172200931Y-91276307D01*
X171976903Y-91369102D01*
X171775283Y-91503820D01*
X171603820Y-91675283D01*
X171469102Y-91876903D01*
X171468233Y-91879000D01*
X170756239Y-91879000D01*
X170722574Y-91856506D01*
X170598640Y-91805171D01*
X170467073Y-91779000D01*
X170332927Y-91779000D01*
X170201360Y-91805171D01*
X170077426Y-91856506D01*
X169965888Y-91931033D01*
X169871033Y-92025888D01*
X169796506Y-92137426D01*
X169745171Y-92261360D01*
X169719000Y-92392927D01*
X168390951Y-92392927D01*
X168383494Y-92374926D01*
X168308967Y-92263388D01*
X168214112Y-92168533D01*
X168102574Y-92094006D01*
X167978640Y-92042671D01*
X167847073Y-92016500D01*
X167712927Y-92016500D01*
X167581360Y-92042671D01*
X167457426Y-92094006D01*
X167345888Y-92168533D01*
X167297921Y-92216500D01*
X165439237Y-92216500D01*
X165038910Y-91816173D01*
X165096508Y-91798701D01*
X165162696Y-91763322D01*
X165220711Y-91715711D01*
X165250000Y-91680022D01*
X165279289Y-91715711D01*
X165337304Y-91763322D01*
X165403492Y-91798701D01*
X165475311Y-91820487D01*
X165550000Y-91827843D01*
X166650000Y-91827843D01*
X166724689Y-91820487D01*
X166796508Y-91798701D01*
X166862696Y-91763322D01*
X166920711Y-91715711D01*
X166968322Y-91657696D01*
X167003701Y-91591508D01*
X167025487Y-91519689D01*
X167032843Y-91445000D01*
X167032843Y-90915236D01*
X167038967Y-90909112D01*
X167113494Y-90797574D01*
X167164829Y-90673640D01*
X167191000Y-90542073D01*
X167191000Y-90407927D01*
X167164829Y-90276360D01*
X167113494Y-90152426D01*
X167038967Y-90040888D01*
X167032843Y-90034764D01*
X167032843Y-89070000D01*
X171327157Y-89070000D01*
X171327157Y-90770000D01*
X171334513Y-90844689D01*
X171356299Y-90916508D01*
X171391678Y-90982696D01*
X171439289Y-91040711D01*
X171497304Y-91088322D01*
X171563492Y-91123701D01*
X171635311Y-91145487D01*
X171710000Y-91152843D01*
X173410000Y-91152843D01*
X173484689Y-91145487D01*
X173556508Y-91123701D01*
X173622696Y-91088322D01*
X173680711Y-91040711D01*
X173728322Y-90982696D01*
X173763701Y-90916508D01*
X173785487Y-90844689D01*
X173792843Y-90770000D01*
X173792843Y-89070000D01*
X173785487Y-88995311D01*
X173763701Y-88923492D01*
X173728322Y-88857304D01*
X173680711Y-88799289D01*
X173622696Y-88751678D01*
X173556508Y-88716299D01*
X173484689Y-88694513D01*
X173410000Y-88687157D01*
X171710000Y-88687157D01*
X171635311Y-88694513D01*
X171563492Y-88716299D01*
X171497304Y-88751678D01*
X171439289Y-88799289D01*
X171391678Y-88857304D01*
X171356299Y-88923492D01*
X171334513Y-88995311D01*
X171327157Y-89070000D01*
X167032843Y-89070000D01*
X167032843Y-88692736D01*
X167038967Y-88686612D01*
X167113494Y-88575074D01*
X167164829Y-88451140D01*
X167191000Y-88319573D01*
X167191000Y-88185427D01*
X167164829Y-88053860D01*
X167113494Y-87929926D01*
X167038967Y-87818388D01*
X167032843Y-87812264D01*
X167032843Y-86845000D01*
X167025487Y-86770311D01*
X167003701Y-86698492D01*
X166968322Y-86632304D01*
X166920711Y-86574289D01*
X166862696Y-86526678D01*
X166796508Y-86491299D01*
X166724689Y-86469513D01*
X166650000Y-86462157D01*
X165550000Y-86462157D01*
X165475311Y-86469513D01*
X165403492Y-86491299D01*
X165337304Y-86526678D01*
X165279289Y-86574289D01*
X165250000Y-86609978D01*
X165220711Y-86574289D01*
X165162696Y-86526678D01*
X165096508Y-86491299D01*
X165024689Y-86469513D01*
X164950000Y-86462157D01*
X164324035Y-86462157D01*
X164333500Y-86414573D01*
X164333500Y-86280427D01*
X164307329Y-86148860D01*
X164255994Y-86024926D01*
X164181467Y-85913388D01*
X164139329Y-85871250D01*
X164181467Y-85829112D01*
X164255994Y-85717574D01*
X164285878Y-85645427D01*
X170591500Y-85645427D01*
X170591500Y-85779573D01*
X170617671Y-85911140D01*
X170669006Y-86035074D01*
X170743533Y-86146612D01*
X170838388Y-86241467D01*
X170949926Y-86315994D01*
X171073860Y-86367329D01*
X171205427Y-86393500D01*
X171339573Y-86393500D01*
X171471140Y-86367329D01*
X171595074Y-86315994D01*
X171706612Y-86241467D01*
X171801467Y-86146612D01*
X171875994Y-86035074D01*
X171927329Y-85911140D01*
X171953500Y-85779573D01*
X171953500Y-85645427D01*
X171927329Y-85513860D01*
X171875994Y-85389926D01*
X171801467Y-85278388D01*
X171706612Y-85183533D01*
X171595074Y-85109006D01*
X171471140Y-85057671D01*
X171339573Y-85031500D01*
X171205427Y-85031500D01*
X171073860Y-85057671D01*
X170949926Y-85109006D01*
X170838388Y-85183533D01*
X170743533Y-85278388D01*
X170669006Y-85389926D01*
X170617671Y-85513860D01*
X170591500Y-85645427D01*
X164285878Y-85645427D01*
X164307329Y-85593640D01*
X164333500Y-85462073D01*
X164333500Y-85327927D01*
X164307329Y-85196360D01*
X164255994Y-85072426D01*
X164181467Y-84960888D01*
X164086612Y-84866033D01*
X163975074Y-84791506D01*
X163851140Y-84740171D01*
X163719573Y-84714000D01*
X163585427Y-84714000D01*
X163453860Y-84740171D01*
X163329926Y-84791506D01*
X163218388Y-84866033D01*
X163123533Y-84960888D01*
X163049006Y-85072426D01*
X162997671Y-85196360D01*
X162971500Y-85327927D01*
X162971500Y-85462073D01*
X162997671Y-85593640D01*
X163049006Y-85717574D01*
X163123533Y-85829112D01*
X163165671Y-85871250D01*
X163123533Y-85913388D01*
X163049006Y-86024926D01*
X162997671Y-86148860D01*
X162971500Y-86280427D01*
X162971500Y-86414573D01*
X162997671Y-86546140D01*
X163049006Y-86670074D01*
X163123533Y-86781612D01*
X163218388Y-86876467D01*
X163329926Y-86950994D01*
X163453860Y-87002329D01*
X163467157Y-87004974D01*
X163467157Y-91391946D01*
X163402073Y-91379000D01*
X163267927Y-91379000D01*
X163136360Y-91405171D01*
X163012426Y-91456506D01*
X162900888Y-91531033D01*
X162806033Y-91625888D01*
X162731506Y-91737426D01*
X162680171Y-91861360D01*
X162654000Y-91992927D01*
X161481000Y-91992927D01*
X161481000Y-91827843D01*
X161550000Y-91827843D01*
X161624689Y-91820487D01*
X161696508Y-91798701D01*
X161762696Y-91763322D01*
X161820711Y-91715711D01*
X161868322Y-91657696D01*
X161903701Y-91591508D01*
X161925487Y-91519689D01*
X161932843Y-91445000D01*
X161932843Y-86845000D01*
X161925487Y-86770311D01*
X161903701Y-86698492D01*
X161868322Y-86632304D01*
X161820711Y-86574289D01*
X161762696Y-86526678D01*
X161696508Y-86491299D01*
X161624689Y-86469513D01*
X161550000Y-86462157D01*
X160514035Y-86462157D01*
X160523500Y-86414573D01*
X160523500Y-86280427D01*
X160497329Y-86148860D01*
X160445994Y-86024926D01*
X160371467Y-85913388D01*
X160276612Y-85818533D01*
X160165074Y-85744006D01*
X160041140Y-85692671D01*
X159909573Y-85666500D01*
X159775427Y-85666500D01*
X159643860Y-85692671D01*
X159519926Y-85744006D01*
X159408388Y-85818533D01*
X159313533Y-85913388D01*
X159239006Y-86024926D01*
X159187671Y-86148860D01*
X159161500Y-86280427D01*
X159161500Y-86414573D01*
X159170965Y-86462157D01*
X158750000Y-86462157D01*
X158675311Y-86469513D01*
X158603492Y-86491299D01*
X158537304Y-86526678D01*
X158479289Y-86574289D01*
X158431678Y-86632304D01*
X158396299Y-86698492D01*
X158374513Y-86770311D01*
X158367157Y-86845000D01*
X158367157Y-87085556D01*
X158260074Y-87014006D01*
X158136140Y-86962671D01*
X158004573Y-86936500D01*
X157870427Y-86936500D01*
X157738860Y-86962671D01*
X157614926Y-87014006D01*
X157503388Y-87088533D01*
X157408533Y-87183388D01*
X157334006Y-87294926D01*
X157282671Y-87418860D01*
X157256500Y-87550427D01*
X141632843Y-87550427D01*
X141632843Y-86845000D01*
X141625487Y-86770311D01*
X141603701Y-86698492D01*
X141568322Y-86632304D01*
X141520711Y-86574289D01*
X141462696Y-86526678D01*
X141396508Y-86491299D01*
X141324689Y-86469513D01*
X141250000Y-86462157D01*
X140150000Y-86462157D01*
X140075311Y-86469513D01*
X140003492Y-86491299D01*
X139937304Y-86526678D01*
X139879289Y-86574289D01*
X139850000Y-86609978D01*
X139820711Y-86574289D01*
X139762696Y-86526678D01*
X139696508Y-86491299D01*
X139624689Y-86469513D01*
X139558861Y-86463030D01*
X139568500Y-86414573D01*
X139568500Y-86280427D01*
X139542329Y-86148860D01*
X139490994Y-86024926D01*
X139416467Y-85913388D01*
X139321612Y-85818533D01*
X139210074Y-85744006D01*
X139086140Y-85692671D01*
X138954573Y-85666500D01*
X138820427Y-85666500D01*
X138818720Y-85666840D01*
X138766217Y-85588263D01*
X138671362Y-85493408D01*
X138559824Y-85418881D01*
X138435890Y-85367546D01*
X138304323Y-85341375D01*
X138170177Y-85341375D01*
X138038610Y-85367546D01*
X137914676Y-85418881D01*
X137803138Y-85493408D01*
X137708283Y-85588263D01*
X137633756Y-85699801D01*
X137582421Y-85823735D01*
X137556250Y-85955302D01*
X137556250Y-86089448D01*
X137582421Y-86221015D01*
X137633756Y-86344949D01*
X137708283Y-86456487D01*
X137803138Y-86551342D01*
X137914676Y-86625869D01*
X138038610Y-86677204D01*
X138101040Y-86689622D01*
X138096299Y-86698492D01*
X138074513Y-86770311D01*
X138067157Y-86845000D01*
X138067157Y-91445000D01*
X138074513Y-91519689D01*
X138096299Y-91591508D01*
X138131678Y-91657696D01*
X138179289Y-91715711D01*
X138237304Y-91763322D01*
X138303492Y-91798701D01*
X138375311Y-91820487D01*
X138450000Y-91827843D01*
X138519000Y-91827843D01*
X138519000Y-92498264D01*
X138483264Y-92534000D01*
X133019579Y-92534000D01*
X132971612Y-92486033D01*
X132860074Y-92411506D01*
X132736140Y-92360171D01*
X132604573Y-92334000D01*
X132470427Y-92334000D01*
X132338860Y-92360171D01*
X132214926Y-92411506D01*
X132103388Y-92486033D01*
X132008533Y-92580888D01*
X131934006Y-92692426D01*
X131882671Y-92816360D01*
X131856500Y-92947927D01*
X125406000Y-92947927D01*
X125406000Y-90090427D01*
X127094000Y-90090427D01*
X127094000Y-90224573D01*
X127120171Y-90356140D01*
X127171506Y-90480074D01*
X127246033Y-90591612D01*
X127340888Y-90686467D01*
X127452426Y-90760994D01*
X127576360Y-90812329D01*
X127707927Y-90838500D01*
X127842073Y-90838500D01*
X127973640Y-90812329D01*
X128097574Y-90760994D01*
X128209112Y-90686467D01*
X128303967Y-90591612D01*
X128378494Y-90480074D01*
X128429829Y-90356140D01*
X128456000Y-90224573D01*
X128456000Y-90090427D01*
X128429829Y-89958860D01*
X128378494Y-89834926D01*
X128303967Y-89723388D01*
X128209112Y-89628533D01*
X128097574Y-89554006D01*
X127973640Y-89502671D01*
X127842073Y-89476500D01*
X127707927Y-89476500D01*
X127576360Y-89502671D01*
X127452426Y-89554006D01*
X127340888Y-89628533D01*
X127246033Y-89723388D01*
X127171506Y-89834926D01*
X127120171Y-89958860D01*
X127094000Y-90090427D01*
X125406000Y-90090427D01*
X125406000Y-89137927D01*
X130904000Y-89137927D01*
X130904000Y-89272073D01*
X130930171Y-89403640D01*
X130981506Y-89527574D01*
X131056033Y-89639112D01*
X131150888Y-89733967D01*
X131262426Y-89808494D01*
X131386360Y-89859829D01*
X131517927Y-89886000D01*
X131652073Y-89886000D01*
X131783640Y-89859829D01*
X131907574Y-89808494D01*
X132019112Y-89733967D01*
X132113967Y-89639112D01*
X132188494Y-89527574D01*
X132239829Y-89403640D01*
X132266000Y-89272073D01*
X132266000Y-89137927D01*
X132239829Y-89006360D01*
X132188494Y-88882426D01*
X132113967Y-88770888D01*
X132019112Y-88676033D01*
X131907574Y-88601506D01*
X131783640Y-88550171D01*
X131652073Y-88524000D01*
X131517927Y-88524000D01*
X131386360Y-88550171D01*
X131262426Y-88601506D01*
X131150888Y-88676033D01*
X131056033Y-88770888D01*
X130981506Y-88882426D01*
X130930171Y-89006360D01*
X130904000Y-89137927D01*
X125406000Y-89137927D01*
X125406000Y-87550427D01*
X131856500Y-87550427D01*
X131856500Y-87684573D01*
X131882671Y-87816140D01*
X131934006Y-87940074D01*
X132008533Y-88051612D01*
X132103388Y-88146467D01*
X132214926Y-88220994D01*
X132338860Y-88272329D01*
X132470427Y-88298500D01*
X132604573Y-88298500D01*
X132736140Y-88272329D01*
X132860074Y-88220994D01*
X132967157Y-88149444D01*
X132967157Y-91445000D01*
X132974513Y-91519689D01*
X132996299Y-91591508D01*
X133031678Y-91657696D01*
X133079289Y-91715711D01*
X133137304Y-91763322D01*
X133203492Y-91798701D01*
X133275311Y-91820487D01*
X133350000Y-91827843D01*
X134450000Y-91827843D01*
X134524689Y-91820487D01*
X134596508Y-91798701D01*
X134662696Y-91763322D01*
X134720711Y-91715711D01*
X134750000Y-91680022D01*
X134779289Y-91715711D01*
X134837304Y-91763322D01*
X134903492Y-91798701D01*
X134975311Y-91820487D01*
X135050000Y-91827843D01*
X136150000Y-91827843D01*
X136224689Y-91820487D01*
X136296508Y-91798701D01*
X136362696Y-91763322D01*
X136420711Y-91715711D01*
X136468322Y-91657696D01*
X136503701Y-91591508D01*
X136525487Y-91519689D01*
X136532843Y-91445000D01*
X136532843Y-86845000D01*
X136525487Y-86770311D01*
X136503701Y-86698492D01*
X136468322Y-86632304D01*
X136420711Y-86574289D01*
X136362696Y-86526678D01*
X136296508Y-86491299D01*
X136224689Y-86469513D01*
X136150000Y-86462157D01*
X136081000Y-86462157D01*
X136081000Y-85071736D01*
X136229237Y-84923500D01*
X141228264Y-84923500D01*
X141264001Y-84959237D01*
X141264001Y-85230420D01*
X141216033Y-85278388D01*
X141141506Y-85389926D01*
X141090171Y-85513860D01*
X141064000Y-85645427D01*
X141064000Y-85779573D01*
X141090171Y-85911140D01*
X141141506Y-86035074D01*
X141216033Y-86146612D01*
X141310888Y-86241467D01*
X141422426Y-86315994D01*
X141546360Y-86367329D01*
X141677927Y-86393500D01*
X141812073Y-86393500D01*
X141943640Y-86367329D01*
X142067574Y-86315994D01*
X142179112Y-86241467D01*
X142273967Y-86146612D01*
X142348494Y-86035074D01*
X142399829Y-85911140D01*
X142426000Y-85779573D01*
X142426000Y-85645427D01*
X142399829Y-85513860D01*
X142348494Y-85389926D01*
X142273967Y-85278388D01*
X142226000Y-85230421D01*
X142226000Y-85010427D01*
X149636500Y-85010427D01*
X149636500Y-85144573D01*
X149662671Y-85276140D01*
X149714006Y-85400074D01*
X149788533Y-85511612D01*
X149883388Y-85606467D01*
X149994926Y-85680994D01*
X150118860Y-85732329D01*
X150250427Y-85758500D01*
X150384573Y-85758500D01*
X150516140Y-85732329D01*
X150640074Y-85680994D01*
X150751612Y-85606467D01*
X150846467Y-85511612D01*
X150920994Y-85400074D01*
X150972329Y-85276140D01*
X150998500Y-85144573D01*
X150998500Y-85010427D01*
X150972329Y-84878860D01*
X150920994Y-84754926D01*
X150846467Y-84643388D01*
X150751612Y-84548533D01*
X150640074Y-84474006D01*
X150516140Y-84422671D01*
X150384573Y-84396500D01*
X150250427Y-84396500D01*
X150118860Y-84422671D01*
X149994926Y-84474006D01*
X149883388Y-84548533D01*
X149788533Y-84643388D01*
X149714006Y-84754926D01*
X149662671Y-84878860D01*
X149636500Y-85010427D01*
X142226000Y-85010427D01*
X142226000Y-84783626D01*
X142228327Y-84760000D01*
X142219040Y-84665707D01*
X142207438Y-84627461D01*
X142191536Y-84575039D01*
X142146872Y-84491478D01*
X142086764Y-84418236D01*
X142068406Y-84403170D01*
X141784330Y-84119094D01*
X141769264Y-84100736D01*
X141696022Y-84040628D01*
X141612461Y-83995964D01*
X141521792Y-83968460D01*
X141451126Y-83961500D01*
X141427500Y-83959173D01*
X141403874Y-83961500D01*
X136053626Y-83961500D01*
X136030000Y-83959173D01*
X135935707Y-83968460D01*
X135908203Y-83976804D01*
X135845039Y-83995964D01*
X135761478Y-84040628D01*
X135688236Y-84100736D01*
X135673174Y-84119089D01*
X135276593Y-84515670D01*
X135258236Y-84530736D01*
X135198128Y-84603978D01*
X135153464Y-84687540D01*
X135137499Y-84740171D01*
X135125960Y-84778208D01*
X135122052Y-84817884D01*
X135082574Y-84791506D01*
X134958640Y-84740171D01*
X134827073Y-84714000D01*
X134692927Y-84714000D01*
X134561360Y-84740171D01*
X134437426Y-84791506D01*
X134325888Y-84866033D01*
X134231033Y-84960888D01*
X134156506Y-85072426D01*
X134105171Y-85196360D01*
X134079000Y-85327927D01*
X134079000Y-85462073D01*
X134105171Y-85593640D01*
X134156506Y-85717574D01*
X134164260Y-85729178D01*
X134122426Y-85746506D01*
X134010888Y-85821033D01*
X133916033Y-85915888D01*
X133841506Y-86027426D01*
X133790171Y-86151360D01*
X133764000Y-86282927D01*
X133764000Y-86417073D01*
X133772968Y-86462157D01*
X133350000Y-86462157D01*
X133275311Y-86469513D01*
X133203492Y-86491299D01*
X133137304Y-86526678D01*
X133079289Y-86574289D01*
X133031678Y-86632304D01*
X132996299Y-86698492D01*
X132974513Y-86770311D01*
X132967157Y-86845000D01*
X132967157Y-87085556D01*
X132860074Y-87014006D01*
X132736140Y-86962671D01*
X132604573Y-86936500D01*
X132470427Y-86936500D01*
X132338860Y-86962671D01*
X132214926Y-87014006D01*
X132103388Y-87088533D01*
X132008533Y-87183388D01*
X131934006Y-87294926D01*
X131882671Y-87418860D01*
X131856500Y-87550427D01*
X125406000Y-87550427D01*
X125406000Y-85645427D01*
X128364000Y-85645427D01*
X128364000Y-85779573D01*
X128390171Y-85911140D01*
X128441506Y-86035074D01*
X128516033Y-86146612D01*
X128610888Y-86241467D01*
X128722426Y-86315994D01*
X128846360Y-86367329D01*
X128977927Y-86393500D01*
X129112073Y-86393500D01*
X129243640Y-86367329D01*
X129367574Y-86315994D01*
X129479112Y-86241467D01*
X129573967Y-86146612D01*
X129648494Y-86035074D01*
X129699829Y-85911140D01*
X129726000Y-85779573D01*
X129726000Y-85645427D01*
X129699829Y-85513860D01*
X129648494Y-85389926D01*
X129573967Y-85278388D01*
X129479112Y-85183533D01*
X129367574Y-85109006D01*
X129243640Y-85057671D01*
X129112073Y-85031500D01*
X128977927Y-85031500D01*
X128846360Y-85057671D01*
X128722426Y-85109006D01*
X128610888Y-85183533D01*
X128516033Y-85278388D01*
X128441506Y-85389926D01*
X128390171Y-85513860D01*
X128364000Y-85645427D01*
X125406000Y-85645427D01*
X125406000Y-83105427D01*
X149319000Y-83105427D01*
X149319000Y-83239573D01*
X149345171Y-83371140D01*
X149396506Y-83495074D01*
X149471033Y-83606612D01*
X149565888Y-83701467D01*
X149677426Y-83775994D01*
X149801360Y-83827329D01*
X149932927Y-83853500D01*
X150067073Y-83853500D01*
X150198640Y-83827329D01*
X150322574Y-83775994D01*
X150434112Y-83701467D01*
X150528967Y-83606612D01*
X150603494Y-83495074D01*
X150654829Y-83371140D01*
X150681000Y-83239573D01*
X150681000Y-83105427D01*
X152811500Y-83105427D01*
X152811500Y-83239573D01*
X152837671Y-83371140D01*
X152889006Y-83495074D01*
X152963533Y-83606612D01*
X153058388Y-83701467D01*
X153169926Y-83775994D01*
X153293860Y-83827329D01*
X153425427Y-83853500D01*
X153559573Y-83853500D01*
X153691140Y-83827329D01*
X153815074Y-83775994D01*
X153926612Y-83701467D01*
X154021467Y-83606612D01*
X154095994Y-83495074D01*
X154147329Y-83371140D01*
X154173500Y-83239573D01*
X154173500Y-83105427D01*
X154147329Y-82973860D01*
X154095994Y-82849926D01*
X154042769Y-82770269D01*
X154122426Y-82823494D01*
X154246360Y-82874829D01*
X154377927Y-82901000D01*
X154512073Y-82901000D01*
X154643640Y-82874829D01*
X154767574Y-82823494D01*
X154879112Y-82748967D01*
X154973967Y-82654112D01*
X155048494Y-82542574D01*
X155099829Y-82418640D01*
X155126000Y-82287073D01*
X155126000Y-82152927D01*
X155099829Y-82021360D01*
X155048494Y-81897426D01*
X154973967Y-81785888D01*
X154879112Y-81691033D01*
X154767574Y-81616506D01*
X154643640Y-81565171D01*
X154512073Y-81539000D01*
X154377927Y-81539000D01*
X154246360Y-81565171D01*
X154122426Y-81616506D01*
X154010888Y-81691033D01*
X153916033Y-81785888D01*
X153841506Y-81897426D01*
X153790171Y-82021360D01*
X153764000Y-82152927D01*
X153764000Y-82287073D01*
X153790171Y-82418640D01*
X153841506Y-82542574D01*
X153894731Y-82622231D01*
X153815074Y-82569006D01*
X153691140Y-82517671D01*
X153559573Y-82491500D01*
X153425427Y-82491500D01*
X153293860Y-82517671D01*
X153169926Y-82569006D01*
X153058388Y-82643533D01*
X152963533Y-82738388D01*
X152889006Y-82849926D01*
X152837671Y-82973860D01*
X152811500Y-83105427D01*
X150681000Y-83105427D01*
X150654829Y-82973860D01*
X150603494Y-82849926D01*
X150528967Y-82738388D01*
X150434112Y-82643533D01*
X150322574Y-82569006D01*
X150198640Y-82517671D01*
X150067073Y-82491500D01*
X149932927Y-82491500D01*
X149801360Y-82517671D01*
X149677426Y-82569006D01*
X149565888Y-82643533D01*
X149471033Y-82738388D01*
X149396506Y-82849926D01*
X149345171Y-82973860D01*
X149319000Y-83105427D01*
X125406000Y-83105427D01*
X125406000Y-78686699D01*
X125819000Y-78686699D01*
X125819000Y-79313301D01*
X125941245Y-79927863D01*
X126181035Y-80506768D01*
X126529156Y-81027769D01*
X126972231Y-81470844D01*
X127493232Y-81818965D01*
X128072137Y-82058755D01*
X128686699Y-82181000D01*
X129313301Y-82181000D01*
X129454432Y-82152927D01*
X144874000Y-82152927D01*
X144874000Y-82287073D01*
X144900171Y-82418640D01*
X144951506Y-82542574D01*
X145026033Y-82654112D01*
X145120888Y-82748967D01*
X145232426Y-82823494D01*
X145356360Y-82874829D01*
X145487927Y-82901000D01*
X145622073Y-82901000D01*
X145753640Y-82874829D01*
X145877574Y-82823494D01*
X145989112Y-82748967D01*
X146083967Y-82654112D01*
X146158494Y-82542574D01*
X146209829Y-82418640D01*
X146236000Y-82287073D01*
X146236000Y-82152927D01*
X146209829Y-82021360D01*
X146158494Y-81897426D01*
X146083967Y-81785888D01*
X145989112Y-81691033D01*
X145877574Y-81616506D01*
X145753640Y-81565171D01*
X145622073Y-81539000D01*
X145487927Y-81539000D01*
X145356360Y-81565171D01*
X145232426Y-81616506D01*
X145120888Y-81691033D01*
X145026033Y-81785888D01*
X144951506Y-81897426D01*
X144900171Y-82021360D01*
X144874000Y-82152927D01*
X129454432Y-82152927D01*
X129927863Y-82058755D01*
X130506768Y-81818965D01*
X131027769Y-81470844D01*
X131470844Y-81027769D01*
X131818965Y-80506768D01*
X132058755Y-79927863D01*
X132075997Y-79841182D01*
X152629000Y-79841182D01*
X152629000Y-80073818D01*
X152674386Y-80301985D01*
X152763412Y-80516913D01*
X152892658Y-80710343D01*
X153057157Y-80874842D01*
X153250587Y-81004088D01*
X153465515Y-81093114D01*
X153693682Y-81138500D01*
X153926318Y-81138500D01*
X154154485Y-81093114D01*
X154369413Y-81004088D01*
X154562843Y-80874842D01*
X154727342Y-80710343D01*
X154856588Y-80516913D01*
X154945614Y-80301985D01*
X154991000Y-80073818D01*
X154991000Y-79841182D01*
X154945614Y-79613015D01*
X154856588Y-79398087D01*
X154727342Y-79204657D01*
X154562843Y-79040158D01*
X154369413Y-78910912D01*
X154154485Y-78821886D01*
X153926318Y-78776500D01*
X153693682Y-78776500D01*
X153465515Y-78821886D01*
X153250587Y-78910912D01*
X153057157Y-79040158D01*
X152892658Y-79204657D01*
X152763412Y-79398087D01*
X152674386Y-79613015D01*
X152629000Y-79841182D01*
X132075997Y-79841182D01*
X132181000Y-79313301D01*
X132181000Y-78686699D01*
X132058755Y-78072137D01*
X131818965Y-77493232D01*
X131470844Y-76972231D01*
X131027769Y-76529156D01*
X130891235Y-76437927D01*
X135349000Y-76437927D01*
X135349000Y-76572073D01*
X135375171Y-76703640D01*
X135426506Y-76827574D01*
X135501033Y-76939112D01*
X135595888Y-77033967D01*
X135707426Y-77108494D01*
X135831360Y-77159829D01*
X135962927Y-77186000D01*
X136097073Y-77186000D01*
X136228640Y-77159829D01*
X136352574Y-77108494D01*
X136464112Y-77033967D01*
X136558967Y-76939112D01*
X136633494Y-76827574D01*
X136684829Y-76703640D01*
X136694007Y-76657500D01*
X145007157Y-76657500D01*
X145007157Y-78257500D01*
X145014513Y-78332189D01*
X145036299Y-78404008D01*
X145071678Y-78470196D01*
X145119289Y-78528211D01*
X145177304Y-78575822D01*
X145243492Y-78611201D01*
X145315311Y-78632987D01*
X145390000Y-78640343D01*
X146990000Y-78640343D01*
X147064689Y-78632987D01*
X147136508Y-78611201D01*
X147202696Y-78575822D01*
X147260711Y-78528211D01*
X147308322Y-78470196D01*
X147343701Y-78404008D01*
X147365487Y-78332189D01*
X147372843Y-78257500D01*
X147372843Y-77905744D01*
X149043000Y-77905744D01*
X149043000Y-78094256D01*
X149079777Y-78279147D01*
X149151917Y-78453310D01*
X149256649Y-78610052D01*
X149389948Y-78743351D01*
X149546690Y-78848083D01*
X149720853Y-78920223D01*
X149905744Y-78957000D01*
X150094256Y-78957000D01*
X150279147Y-78920223D01*
X150453310Y-78848083D01*
X150610052Y-78743351D01*
X150666704Y-78686699D01*
X167819000Y-78686699D01*
X167819000Y-79313301D01*
X167941245Y-79927863D01*
X168181035Y-80506768D01*
X168529156Y-81027769D01*
X168972231Y-81470844D01*
X169493232Y-81818965D01*
X170072137Y-82058755D01*
X170686699Y-82181000D01*
X171313301Y-82181000D01*
X171927863Y-82058755D01*
X172506768Y-81818965D01*
X173027769Y-81470844D01*
X173470844Y-81027769D01*
X173818965Y-80506768D01*
X174058755Y-79927863D01*
X174181000Y-79313301D01*
X174181000Y-78686699D01*
X174058755Y-78072137D01*
X173818965Y-77493232D01*
X173470844Y-76972231D01*
X173027769Y-76529156D01*
X172506768Y-76181035D01*
X171927863Y-75941245D01*
X171313301Y-75819000D01*
X170686699Y-75819000D01*
X170072137Y-75941245D01*
X169493232Y-76181035D01*
X168972231Y-76529156D01*
X168529156Y-76972231D01*
X168181035Y-77493232D01*
X167941245Y-78072137D01*
X167819000Y-78686699D01*
X150666704Y-78686699D01*
X150743351Y-78610052D01*
X150848083Y-78453310D01*
X150920223Y-78279147D01*
X150957000Y-78094256D01*
X150957000Y-77905744D01*
X150920223Y-77720853D01*
X150848083Y-77546690D01*
X150743351Y-77389948D01*
X150610052Y-77256649D01*
X150453310Y-77151917D01*
X150279147Y-77079777D01*
X150094256Y-77043000D01*
X149905744Y-77043000D01*
X149720853Y-77079777D01*
X149546690Y-77151917D01*
X149389948Y-77256649D01*
X149256649Y-77389948D01*
X149151917Y-77546690D01*
X149079777Y-77720853D01*
X149043000Y-77905744D01*
X147372843Y-77905744D01*
X147372843Y-76657500D01*
X152627157Y-76657500D01*
X152627157Y-78257500D01*
X152634513Y-78332189D01*
X152656299Y-78404008D01*
X152691678Y-78470196D01*
X152739289Y-78528211D01*
X152797304Y-78575822D01*
X152863492Y-78611201D01*
X152935311Y-78632987D01*
X153010000Y-78640343D01*
X154610000Y-78640343D01*
X154684689Y-78632987D01*
X154756508Y-78611201D01*
X154822696Y-78575822D01*
X154880711Y-78528211D01*
X154928322Y-78470196D01*
X154963701Y-78404008D01*
X154985487Y-78332189D01*
X154992843Y-78257500D01*
X154992843Y-76657500D01*
X154985487Y-76582811D01*
X154963701Y-76510992D01*
X154928322Y-76444804D01*
X154922679Y-76437927D01*
X161066500Y-76437927D01*
X161066500Y-76572073D01*
X161092671Y-76703640D01*
X161144006Y-76827574D01*
X161218533Y-76939112D01*
X161313388Y-77033967D01*
X161424926Y-77108494D01*
X161548860Y-77159829D01*
X161680427Y-77186000D01*
X161814573Y-77186000D01*
X161946140Y-77159829D01*
X162070074Y-77108494D01*
X162181612Y-77033967D01*
X162276467Y-76939112D01*
X162350994Y-76827574D01*
X162402329Y-76703640D01*
X162428500Y-76572073D01*
X162428500Y-76437927D01*
X164559000Y-76437927D01*
X164559000Y-76572073D01*
X164585171Y-76703640D01*
X164636506Y-76827574D01*
X164711033Y-76939112D01*
X164805888Y-77033967D01*
X164917426Y-77108494D01*
X165041360Y-77159829D01*
X165172927Y-77186000D01*
X165307073Y-77186000D01*
X165438640Y-77159829D01*
X165562574Y-77108494D01*
X165674112Y-77033967D01*
X165768967Y-76939112D01*
X165843494Y-76827574D01*
X165894829Y-76703640D01*
X165921000Y-76572073D01*
X165921000Y-76437927D01*
X165894829Y-76306360D01*
X165843494Y-76182426D01*
X165768967Y-76070888D01*
X165674112Y-75976033D01*
X165562574Y-75901506D01*
X165438640Y-75850171D01*
X165307073Y-75824000D01*
X165172927Y-75824000D01*
X165041360Y-75850171D01*
X164917426Y-75901506D01*
X164805888Y-75976033D01*
X164711033Y-76070888D01*
X164636506Y-76182426D01*
X164585171Y-76306360D01*
X164559000Y-76437927D01*
X162428500Y-76437927D01*
X162402329Y-76306360D01*
X162350994Y-76182426D01*
X162276467Y-76070888D01*
X162181612Y-75976033D01*
X162070074Y-75901506D01*
X161946140Y-75850171D01*
X161814573Y-75824000D01*
X161680427Y-75824000D01*
X161548860Y-75850171D01*
X161424926Y-75901506D01*
X161313388Y-75976033D01*
X161218533Y-76070888D01*
X161144006Y-76182426D01*
X161092671Y-76306360D01*
X161066500Y-76437927D01*
X154922679Y-76437927D01*
X154880711Y-76386789D01*
X154822696Y-76339178D01*
X154756508Y-76303799D01*
X154684689Y-76282013D01*
X154610000Y-76274657D01*
X153010000Y-76274657D01*
X152935311Y-76282013D01*
X152863492Y-76303799D01*
X152797304Y-76339178D01*
X152739289Y-76386789D01*
X152691678Y-76444804D01*
X152656299Y-76510992D01*
X152634513Y-76582811D01*
X152627157Y-76657500D01*
X147372843Y-76657500D01*
X147365487Y-76582811D01*
X147343701Y-76510992D01*
X147308322Y-76444804D01*
X147260711Y-76386789D01*
X147202696Y-76339178D01*
X147136508Y-76303799D01*
X147064689Y-76282013D01*
X146990000Y-76274657D01*
X145390000Y-76274657D01*
X145315311Y-76282013D01*
X145243492Y-76303799D01*
X145177304Y-76339178D01*
X145119289Y-76386789D01*
X145071678Y-76444804D01*
X145036299Y-76510992D01*
X145014513Y-76582811D01*
X145007157Y-76657500D01*
X136694007Y-76657500D01*
X136711000Y-76572073D01*
X136711000Y-76437927D01*
X136684829Y-76306360D01*
X136633494Y-76182426D01*
X136558967Y-76070888D01*
X136464112Y-75976033D01*
X136352574Y-75901506D01*
X136228640Y-75850171D01*
X136097073Y-75824000D01*
X135962927Y-75824000D01*
X135831360Y-75850171D01*
X135707426Y-75901506D01*
X135595888Y-75976033D01*
X135501033Y-76070888D01*
X135426506Y-76182426D01*
X135375171Y-76306360D01*
X135349000Y-76437927D01*
X130891235Y-76437927D01*
X130506768Y-76181035D01*
X129927863Y-75941245D01*
X129313301Y-75819000D01*
X128686699Y-75819000D01*
X128072137Y-75941245D01*
X127493232Y-76181035D01*
X126972231Y-76529156D01*
X126529156Y-76972231D01*
X126181035Y-77493232D01*
X125941245Y-78072137D01*
X125819000Y-78686699D01*
X125406000Y-78686699D01*
X125406000Y-76019854D01*
X125419222Y-75885006D01*
X125452620Y-75774386D01*
X125506868Y-75672361D01*
X125579895Y-75582821D01*
X125668925Y-75509167D01*
X125770572Y-75454208D01*
X125880949Y-75420040D01*
X126014528Y-75406000D01*
X173980146Y-75406000D01*
X174114994Y-75419222D01*
G37*
%TD.AperFunction*%
%TD*%
M02*
