%TF.GenerationSoftware,KiCad,Pcbnew,(5.1.9-0-10_14)*%
%TF.CreationDate,2021-03-07T16:31:49+01:00*%
%TF.ProjectId,W-Output HP,572d4f75-7470-4757-9420-48502e6b6963,1*%
%TF.SameCoordinates,Original*%
%TF.FileFunction,Legend,Top*%
%TF.FilePolarity,Positive*%
%FSLAX46Y46*%
G04 Gerber Fmt 4.6, Leading zero omitted, Abs format (unit mm)*
G04 Created by KiCad (PCBNEW (5.1.9-0-10_14)) date 2021-03-07 16:31:49*
%MOMM*%
%LPD*%
G01*
G04 APERTURE LIST*
%ADD10C,0.150000*%
%ADD11C,0.120000*%
G04 APERTURE END LIST*
D10*
X158304761Y-118561904D02*
X158304761Y-119133333D01*
X158266666Y-119247619D01*
X158190476Y-119323809D01*
X158076190Y-119361904D01*
X158000000Y-119361904D01*
X159066666Y-119361904D02*
X158685714Y-119361904D01*
X158685714Y-118561904D01*
X159790476Y-119285714D02*
X159752380Y-119323809D01*
X159638095Y-119361904D01*
X159561904Y-119361904D01*
X159447619Y-119323809D01*
X159371428Y-119247619D01*
X159333333Y-119171428D01*
X159295238Y-119019047D01*
X159295238Y-118904761D01*
X159333333Y-118752380D01*
X159371428Y-118676190D01*
X159447619Y-118600000D01*
X159561904Y-118561904D01*
X159638095Y-118561904D01*
X159752380Y-118600000D01*
X159790476Y-118638095D01*
X160361904Y-118561904D02*
X160361904Y-119133333D01*
X160323809Y-119247619D01*
X160247619Y-119323809D01*
X160133333Y-119361904D01*
X160057142Y-119361904D01*
X161123809Y-119361904D02*
X160742857Y-119361904D01*
X160742857Y-118561904D01*
X161847619Y-119285714D02*
X161809523Y-119323809D01*
X161695238Y-119361904D01*
X161619047Y-119361904D01*
X161504761Y-119323809D01*
X161428571Y-119247619D01*
X161390476Y-119171428D01*
X161352380Y-119019047D01*
X161352380Y-118904761D01*
X161390476Y-118752380D01*
X161428571Y-118676190D01*
X161504761Y-118600000D01*
X161619047Y-118561904D01*
X161695238Y-118561904D01*
X161809523Y-118600000D01*
X161847619Y-118638095D01*
X162419047Y-118561904D02*
X162419047Y-119133333D01*
X162380952Y-119247619D01*
X162304761Y-119323809D01*
X162190476Y-119361904D01*
X162114285Y-119361904D01*
X163180952Y-119361904D02*
X162800000Y-119361904D01*
X162800000Y-118561904D01*
X163904761Y-119285714D02*
X163866666Y-119323809D01*
X163752380Y-119361904D01*
X163676190Y-119361904D01*
X163561904Y-119323809D01*
X163485714Y-119247619D01*
X163447619Y-119171428D01*
X163409523Y-119019047D01*
X163409523Y-118904761D01*
X163447619Y-118752380D01*
X163485714Y-118676190D01*
X163561904Y-118600000D01*
X163676190Y-118561904D01*
X163752380Y-118561904D01*
X163866666Y-118600000D01*
X163904761Y-118638095D01*
X164476190Y-118561904D02*
X164476190Y-119133333D01*
X164438095Y-119247619D01*
X164361904Y-119323809D01*
X164247619Y-119361904D01*
X164171428Y-119361904D01*
X165238095Y-119361904D02*
X164857142Y-119361904D01*
X164857142Y-118561904D01*
X165961904Y-119285714D02*
X165923809Y-119323809D01*
X165809523Y-119361904D01*
X165733333Y-119361904D01*
X165619047Y-119323809D01*
X165542857Y-119247619D01*
X165504761Y-119171428D01*
X165466666Y-119019047D01*
X165466666Y-118904761D01*
X165504761Y-118752380D01*
X165542857Y-118676190D01*
X165619047Y-118600000D01*
X165733333Y-118561904D01*
X165809523Y-118561904D01*
X165923809Y-118600000D01*
X165961904Y-118638095D01*
X171407380Y-98960000D02*
X170407380Y-98960000D01*
X171121666Y-98626666D01*
X170407380Y-98293333D01*
X171407380Y-98293333D01*
X170740714Y-97388571D02*
X171407380Y-97388571D01*
X170740714Y-97817142D02*
X171264523Y-97817142D01*
X171359761Y-97769523D01*
X171407380Y-97674285D01*
X171407380Y-97531428D01*
X171359761Y-97436190D01*
X171312142Y-97388571D01*
X170740714Y-97055238D02*
X170740714Y-96674285D01*
X170407380Y-96912380D02*
X171264523Y-96912380D01*
X171359761Y-96864761D01*
X171407380Y-96769523D01*
X171407380Y-96674285D01*
X171359761Y-95960000D02*
X171407380Y-96055238D01*
X171407380Y-96245714D01*
X171359761Y-96340952D01*
X171264523Y-96388571D01*
X170883571Y-96388571D01*
X170788333Y-96340952D01*
X170740714Y-96245714D01*
X170740714Y-96055238D01*
X170788333Y-95960000D01*
X170883571Y-95912380D01*
X170978809Y-95912380D01*
X171074047Y-96388571D01*
X170407380Y-93213333D02*
X171407380Y-92880000D01*
X170407380Y-92546666D01*
X171407380Y-92213333D02*
X170407380Y-92213333D01*
X170407380Y-91975238D01*
X170455000Y-91832380D01*
X170550238Y-91737142D01*
X170645476Y-91689523D01*
X170835952Y-91641904D01*
X170978809Y-91641904D01*
X171169285Y-91689523D01*
X171264523Y-91737142D01*
X171359761Y-91832380D01*
X171407380Y-91975238D01*
X171407380Y-92213333D01*
X170455000Y-89578095D02*
X170407380Y-89673333D01*
X170407380Y-89816190D01*
X170455000Y-89959047D01*
X170550238Y-90054285D01*
X170645476Y-90101904D01*
X170835952Y-90149523D01*
X170978809Y-90149523D01*
X171169285Y-90101904D01*
X171264523Y-90054285D01*
X171359761Y-89959047D01*
X171407380Y-89816190D01*
X171407380Y-89720952D01*
X171359761Y-89578095D01*
X171312142Y-89530476D01*
X170978809Y-89530476D01*
X170978809Y-89720952D01*
X170455000Y-94658095D02*
X170407380Y-94753333D01*
X170407380Y-94896190D01*
X170455000Y-95039047D01*
X170550238Y-95134285D01*
X170645476Y-95181904D01*
X170835952Y-95229523D01*
X170978809Y-95229523D01*
X171169285Y-95181904D01*
X171264523Y-95134285D01*
X171359761Y-95039047D01*
X171407380Y-94896190D01*
X171407380Y-94800952D01*
X171359761Y-94658095D01*
X171312142Y-94610476D01*
X170978809Y-94610476D01*
X170978809Y-94800952D01*
X170455000Y-107358095D02*
X170407380Y-107453333D01*
X170407380Y-107596190D01*
X170455000Y-107739047D01*
X170550238Y-107834285D01*
X170645476Y-107881904D01*
X170835952Y-107929523D01*
X170978809Y-107929523D01*
X171169285Y-107881904D01*
X171264523Y-107834285D01*
X171359761Y-107739047D01*
X171407380Y-107596190D01*
X171407380Y-107500952D01*
X171359761Y-107358095D01*
X171312142Y-107310476D01*
X170978809Y-107310476D01*
X170978809Y-107500952D01*
X171407380Y-110302857D02*
X171407380Y-110779047D01*
X170407380Y-110779047D01*
X170740714Y-109969523D02*
X171407380Y-109969523D01*
X170835952Y-109969523D02*
X170788333Y-109921904D01*
X170740714Y-109826666D01*
X170740714Y-109683809D01*
X170788333Y-109588571D01*
X170883571Y-109540952D01*
X171407380Y-109540952D01*
X171407380Y-112842857D02*
X171407380Y-113319047D01*
X170407380Y-113319047D01*
X170740714Y-112509523D02*
X171740714Y-112509523D01*
X170788333Y-112509523D02*
X170740714Y-112414285D01*
X170740714Y-112223809D01*
X170788333Y-112128571D01*
X170835952Y-112080952D01*
X170931190Y-112033333D01*
X171216904Y-112033333D01*
X171312142Y-112080952D01*
X171359761Y-112128571D01*
X171407380Y-112223809D01*
X171407380Y-112414285D01*
X171359761Y-112509523D01*
X129497380Y-112842857D02*
X129021190Y-113176190D01*
X129497380Y-113414285D02*
X128497380Y-113414285D01*
X128497380Y-113033333D01*
X128545000Y-112938095D01*
X128592619Y-112890476D01*
X128687857Y-112842857D01*
X128830714Y-112842857D01*
X128925952Y-112890476D01*
X128973571Y-112938095D01*
X129021190Y-113033333D01*
X129021190Y-113414285D01*
X128830714Y-112414285D02*
X129830714Y-112414285D01*
X128878333Y-112414285D02*
X128830714Y-112319047D01*
X128830714Y-112128571D01*
X128878333Y-112033333D01*
X128925952Y-111985714D01*
X129021190Y-111938095D01*
X129306904Y-111938095D01*
X129402142Y-111985714D01*
X129449761Y-112033333D01*
X129497380Y-112128571D01*
X129497380Y-112319047D01*
X129449761Y-112414285D01*
X129497380Y-110302857D02*
X129021190Y-110636190D01*
X129497380Y-110874285D02*
X128497380Y-110874285D01*
X128497380Y-110493333D01*
X128545000Y-110398095D01*
X128592619Y-110350476D01*
X128687857Y-110302857D01*
X128830714Y-110302857D01*
X128925952Y-110350476D01*
X128973571Y-110398095D01*
X129021190Y-110493333D01*
X129021190Y-110874285D01*
X128830714Y-109874285D02*
X129497380Y-109874285D01*
X128925952Y-109874285D02*
X128878333Y-109826666D01*
X128830714Y-109731428D01*
X128830714Y-109588571D01*
X128878333Y-109493333D01*
X128973571Y-109445714D01*
X129497380Y-109445714D01*
X128545000Y-107358095D02*
X128497380Y-107453333D01*
X128497380Y-107596190D01*
X128545000Y-107739047D01*
X128640238Y-107834285D01*
X128735476Y-107881904D01*
X128925952Y-107929523D01*
X129068809Y-107929523D01*
X129259285Y-107881904D01*
X129354523Y-107834285D01*
X129449761Y-107739047D01*
X129497380Y-107596190D01*
X129497380Y-107500952D01*
X129449761Y-107358095D01*
X129402142Y-107310476D01*
X129068809Y-107310476D01*
X129068809Y-107500952D01*
X128497380Y-105937142D02*
X129497380Y-105603809D01*
X128497380Y-105270476D01*
X129497380Y-104937142D02*
X128497380Y-104937142D01*
X129497380Y-104365714D01*
X128497380Y-104365714D01*
X128497380Y-103373333D02*
X129497380Y-103040000D01*
X128497380Y-102706666D01*
X129497380Y-102373333D02*
X128497380Y-102373333D01*
X128497380Y-101992380D01*
X128545000Y-101897142D01*
X128592619Y-101849523D01*
X128687857Y-101801904D01*
X128830714Y-101801904D01*
X128925952Y-101849523D01*
X128973571Y-101897142D01*
X129021190Y-101992380D01*
X129021190Y-102373333D01*
X128545000Y-99738095D02*
X128497380Y-99833333D01*
X128497380Y-99976190D01*
X128545000Y-100119047D01*
X128640238Y-100214285D01*
X128735476Y-100261904D01*
X128925952Y-100309523D01*
X129068809Y-100309523D01*
X129259285Y-100261904D01*
X129354523Y-100214285D01*
X129449761Y-100119047D01*
X129497380Y-99976190D01*
X129497380Y-99880952D01*
X129449761Y-99738095D01*
X129402142Y-99690476D01*
X129068809Y-99690476D01*
X129068809Y-99880952D01*
X128545000Y-94658095D02*
X128497380Y-94753333D01*
X128497380Y-94896190D01*
X128545000Y-95039047D01*
X128640238Y-95134285D01*
X128735476Y-95181904D01*
X128925952Y-95229523D01*
X129068809Y-95229523D01*
X129259285Y-95181904D01*
X129354523Y-95134285D01*
X129449761Y-95039047D01*
X129497380Y-94896190D01*
X129497380Y-94800952D01*
X129449761Y-94658095D01*
X129402142Y-94610476D01*
X129068809Y-94610476D01*
X129068809Y-94800952D01*
X128497380Y-98221904D02*
X129497380Y-97888571D01*
X128497380Y-97555238D01*
X129211666Y-97269523D02*
X129211666Y-96793333D01*
X129497380Y-97364761D02*
X128497380Y-97031428D01*
X129497380Y-96698095D01*
X152992380Y-112146190D02*
X152516190Y-112479523D01*
X152992380Y-112717619D02*
X151992380Y-112717619D01*
X151992380Y-112336666D01*
X152040000Y-112241428D01*
X152087619Y-112193809D01*
X152182857Y-112146190D01*
X152325714Y-112146190D01*
X152420952Y-112193809D01*
X152468571Y-112241428D01*
X152516190Y-112336666D01*
X152516190Y-112717619D01*
X152992380Y-111717619D02*
X151992380Y-111717619D01*
X152040000Y-110717619D02*
X151992380Y-110812857D01*
X151992380Y-110955714D01*
X152040000Y-111098571D01*
X152135238Y-111193809D01*
X152230476Y-111241428D01*
X152420952Y-111289047D01*
X152563809Y-111289047D01*
X152754285Y-111241428D01*
X152849523Y-111193809D01*
X152944761Y-111098571D01*
X152992380Y-110955714D01*
X152992380Y-110860476D01*
X152944761Y-110717619D01*
X152897142Y-110670000D01*
X152563809Y-110670000D01*
X152563809Y-110860476D01*
X152992380Y-110241428D02*
X151992380Y-110241428D01*
X152468571Y-110241428D02*
X152468571Y-109670000D01*
X152992380Y-109670000D02*
X151992380Y-109670000D01*
X151992380Y-109336666D02*
X151992380Y-108765238D01*
X152992380Y-109050952D02*
X151992380Y-109050952D01*
X150452380Y-111289047D02*
X150452380Y-111765238D01*
X149452380Y-111765238D01*
X149928571Y-110955714D02*
X149928571Y-110622380D01*
X150452380Y-110479523D02*
X150452380Y-110955714D01*
X149452380Y-110955714D01*
X149452380Y-110479523D01*
X149928571Y-109717619D02*
X149928571Y-110050952D01*
X150452380Y-110050952D02*
X149452380Y-110050952D01*
X149452380Y-109574761D01*
X149452380Y-109336666D02*
X149452380Y-108765238D01*
X150452380Y-109050952D02*
X149452380Y-109050952D01*
X146960000Y-110955714D02*
X146912380Y-111050952D01*
X146912380Y-111193809D01*
X146960000Y-111336666D01*
X147055238Y-111431904D01*
X147150476Y-111479523D01*
X147340952Y-111527142D01*
X147483809Y-111527142D01*
X147674285Y-111479523D01*
X147769523Y-111431904D01*
X147864761Y-111336666D01*
X147912380Y-111193809D01*
X147912380Y-111098571D01*
X147864761Y-110955714D01*
X147817142Y-110908095D01*
X147483809Y-110908095D01*
X147483809Y-111098571D01*
X147912380Y-110479523D02*
X146912380Y-110479523D01*
X147912380Y-109908095D01*
X146912380Y-109908095D01*
X147912380Y-109431904D02*
X146912380Y-109431904D01*
X146912380Y-109193809D01*
X146960000Y-109050952D01*
X147055238Y-108955714D01*
X147150476Y-108908095D01*
X147340952Y-108860476D01*
X147483809Y-108860476D01*
X147674285Y-108908095D01*
X147769523Y-108955714D01*
X147864761Y-109050952D01*
X147912380Y-109193809D01*
X147912380Y-109431904D01*
D11*
%TO.C,JP11*%
X125740000Y-91445000D02*
G75*
G02*
X126440000Y-90745000I700000J0D01*
G01*
X126440000Y-92745000D02*
G75*
G02*
X125740000Y-92045000I0J700000D01*
G01*
X128540000Y-92045000D02*
G75*
G02*
X127840000Y-92745000I-700000J0D01*
G01*
X127840000Y-90745000D02*
G75*
G02*
X128540000Y-91445000I0J-700000D01*
G01*
X125740000Y-92045000D02*
X125740000Y-91445000D01*
X127840000Y-92745000D02*
X126440000Y-92745000D01*
X128540000Y-91445000D02*
X128540000Y-92045000D01*
X126440000Y-90745000D02*
X127840000Y-90745000D01*
%TO.C,J5*%
X149380000Y-125120000D02*
X149380000Y-118530000D01*
X174620000Y-125120000D02*
X174620000Y-118530000D01*
X171220000Y-118530000D02*
X174620000Y-118530000D01*
X149380000Y-118530000D02*
X152780000Y-118530000D01*
X173120000Y-125120000D02*
X173120000Y-127820000D01*
X150880000Y-125120000D02*
X150880000Y-127820000D01*
X150880000Y-125120000D02*
X149380000Y-125120000D01*
X174620000Y-125120000D02*
X173120000Y-125120000D01*
X173120000Y-127820000D02*
X150880000Y-127820000D01*
X161300000Y-105680000D02*
X159400000Y-105680000D01*
X162700000Y-105680000D02*
X164600000Y-105680000D01*
X152780000Y-118530000D02*
X152780000Y-112880000D01*
X157000000Y-105680000D02*
X155580000Y-105680000D01*
X155580000Y-112880000D02*
X152780000Y-112880000D01*
X168420000Y-112880000D02*
X171220000Y-112880000D01*
X171220000Y-118530000D02*
X171220000Y-112880000D01*
X168420000Y-105680000D02*
X167000000Y-105680000D01*
X155580000Y-112880000D02*
X155580000Y-105680000D01*
X168420000Y-112880000D02*
X168420000Y-105680000D01*
%TO.C,R15*%
X133060000Y-89442258D02*
X133060000Y-88967742D01*
X132015000Y-89442258D02*
X132015000Y-88967742D01*
%TO.C,R14*%
X153922500Y-83570242D02*
X153922500Y-84044758D01*
X154967500Y-83570242D02*
X154967500Y-84044758D01*
%TO.C,C5*%
X154252500Y-86841920D02*
X154252500Y-87123080D01*
X155272500Y-86841920D02*
X155272500Y-87123080D01*
%TO.C,C4*%
X154252500Y-90016920D02*
X154252500Y-90298080D01*
X155272500Y-90016920D02*
X155272500Y-90298080D01*
%TO.C,C17*%
X144727500Y-90016920D02*
X144727500Y-90298080D01*
X145747500Y-90016920D02*
X145747500Y-90298080D01*
%TO.C,C18*%
X144727500Y-86841920D02*
X144727500Y-87123080D01*
X145747500Y-86841920D02*
X145747500Y-87123080D01*
%TO.C,C14*%
X152045580Y-84567500D02*
X151764420Y-84567500D01*
X152045580Y-85587500D02*
X151764420Y-85587500D01*
%TO.C,C11*%
X148235580Y-92187500D02*
X147954420Y-92187500D01*
X148235580Y-93207500D02*
X147954420Y-93207500D01*
%TO.C,R32*%
X145032500Y-83570242D02*
X145032500Y-84044758D01*
X146077500Y-83570242D02*
X146077500Y-84044758D01*
%TO.C,U3*%
X150000000Y-91447500D02*
X153450000Y-91447500D01*
X150000000Y-91447500D02*
X148050000Y-91447500D01*
X150000000Y-86327500D02*
X151950000Y-86327500D01*
X150000000Y-86327500D02*
X148050000Y-86327500D01*
%TO.C,JP3*%
X161160000Y-83092500D02*
X161160000Y-84492500D01*
X160460000Y-85192500D02*
X159860000Y-85192500D01*
X159160000Y-84492500D02*
X159160000Y-83092500D01*
X159860000Y-82392500D02*
X160460000Y-82392500D01*
X160460000Y-82392500D02*
G75*
G02*
X161160000Y-83092500I0J-700000D01*
G01*
X159160000Y-83092500D02*
G75*
G02*
X159860000Y-82392500I700000J0D01*
G01*
X159860000Y-85192500D02*
G75*
G02*
X159160000Y-84492500I0J700000D01*
G01*
X161160000Y-84492500D02*
G75*
G02*
X160460000Y-85192500I-700000J0D01*
G01*
%TO.C,R27*%
X142777742Y-83377500D02*
X143252258Y-83377500D01*
X142777742Y-82332500D02*
X143252258Y-82332500D01*
%TO.C,R6*%
X161317500Y-80552258D02*
X161317500Y-80077742D01*
X160272500Y-80552258D02*
X160272500Y-80077742D01*
%TO.C,R22*%
X141632500Y-80552258D02*
X141632500Y-80077742D01*
X140587500Y-80552258D02*
X140587500Y-80077742D01*
%TO.C,U1*%
X162045000Y-81267500D02*
X162045000Y-84717500D01*
X162045000Y-81267500D02*
X162045000Y-79317500D01*
X167165000Y-81267500D02*
X167165000Y-83217500D01*
X167165000Y-81267500D02*
X167165000Y-79317500D01*
%TO.C,C12*%
X165875580Y-85520000D02*
X165594420Y-85520000D01*
X165875580Y-86540000D02*
X165594420Y-86540000D01*
%TO.C,C13*%
X134124420Y-77015000D02*
X134405580Y-77015000D01*
X134124420Y-75995000D02*
X134405580Y-75995000D01*
%TO.C,C10*%
X136384420Y-86540000D02*
X136665580Y-86540000D01*
X136384420Y-85520000D02*
X136665580Y-85520000D01*
%TO.C,R31*%
X130110000Y-83887742D02*
X130110000Y-84362258D01*
X131155000Y-83887742D02*
X131155000Y-84362258D01*
%TO.C,R28*%
X128522500Y-83887742D02*
X128522500Y-84362258D01*
X129567500Y-83887742D02*
X129567500Y-84362258D01*
%TO.C,R25*%
X127980000Y-84362258D02*
X127980000Y-83887742D01*
X126935000Y-84362258D02*
X126935000Y-83887742D01*
%TO.C,U2*%
X137955000Y-81267500D02*
X137955000Y-77817500D01*
X137955000Y-81267500D02*
X137955000Y-83217500D01*
X132835000Y-81267500D02*
X132835000Y-79317500D01*
X132835000Y-81267500D02*
X132835000Y-83217500D01*
%TO.C,J3*%
X146130000Y-108315000D02*
X146130000Y-106985000D01*
X147460000Y-108315000D02*
X146130000Y-108315000D01*
X148730000Y-108315000D02*
X148730000Y-105655000D01*
X148730000Y-105655000D02*
X153870000Y-105655000D01*
X148730000Y-108315000D02*
X153870000Y-108315000D01*
X153870000Y-108315000D02*
X153870000Y-105655000D01*
%TO.C,C23*%
X148553080Y-82662500D02*
X148271920Y-82662500D01*
X148553080Y-83682500D02*
X148271920Y-83682500D01*
%TO.C,C22*%
X151868080Y-82662500D02*
X151586920Y-82662500D01*
X151868080Y-83682500D02*
X151586920Y-83682500D01*
%TO.C,C21*%
X155964000Y-75522259D02*
X155334000Y-75522259D01*
X155649000Y-75207259D02*
X155649000Y-75837259D01*
X154212000Y-81948500D02*
X153408000Y-81948500D01*
X154443000Y-81908500D02*
X153177000Y-81908500D01*
X154612000Y-81868500D02*
X153008000Y-81868500D01*
X154750000Y-81828500D02*
X152870000Y-81828500D01*
X154869000Y-81788500D02*
X152751000Y-81788500D01*
X154975000Y-81748500D02*
X152645000Y-81748500D01*
X155072000Y-81708500D02*
X152548000Y-81708500D01*
X155160000Y-81668500D02*
X152460000Y-81668500D01*
X155242000Y-81628500D02*
X152378000Y-81628500D01*
X155319000Y-81588500D02*
X152301000Y-81588500D01*
X155391000Y-81548500D02*
X152229000Y-81548500D01*
X155460000Y-81508500D02*
X152160000Y-81508500D01*
X155524000Y-81468500D02*
X152096000Y-81468500D01*
X155586000Y-81428500D02*
X152034000Y-81428500D01*
X155644000Y-81388500D02*
X151976000Y-81388500D01*
X155700000Y-81348500D02*
X151920000Y-81348500D01*
X155754000Y-81308500D02*
X151866000Y-81308500D01*
X155805000Y-81268500D02*
X151815000Y-81268500D01*
X155854000Y-81228500D02*
X151766000Y-81228500D01*
X155902000Y-81188500D02*
X151718000Y-81188500D01*
X155947000Y-81148500D02*
X151673000Y-81148500D01*
X155992000Y-81108500D02*
X151628000Y-81108500D01*
X156034000Y-81068500D02*
X151586000Y-81068500D01*
X156075000Y-81028500D02*
X151545000Y-81028500D01*
X152770000Y-80988500D02*
X151505000Y-80988500D01*
X156115000Y-80988500D02*
X154850000Y-80988500D01*
X152770000Y-80948500D02*
X151467000Y-80948500D01*
X156153000Y-80948500D02*
X154850000Y-80948500D01*
X152770000Y-80908500D02*
X151430000Y-80908500D01*
X156190000Y-80908500D02*
X154850000Y-80908500D01*
X152770000Y-80868500D02*
X151394000Y-80868500D01*
X156226000Y-80868500D02*
X154850000Y-80868500D01*
X152770000Y-80828500D02*
X151360000Y-80828500D01*
X156260000Y-80828500D02*
X154850000Y-80828500D01*
X152770000Y-80788500D02*
X151326000Y-80788500D01*
X156294000Y-80788500D02*
X154850000Y-80788500D01*
X152770000Y-80748500D02*
X151294000Y-80748500D01*
X156326000Y-80748500D02*
X154850000Y-80748500D01*
X152770000Y-80708500D02*
X151262000Y-80708500D01*
X156358000Y-80708500D02*
X154850000Y-80708500D01*
X152770000Y-80668500D02*
X151232000Y-80668500D01*
X156388000Y-80668500D02*
X154850000Y-80668500D01*
X152770000Y-80628500D02*
X151203000Y-80628500D01*
X156417000Y-80628500D02*
X154850000Y-80628500D01*
X152770000Y-80588500D02*
X151174000Y-80588500D01*
X156446000Y-80588500D02*
X154850000Y-80588500D01*
X152770000Y-80548500D02*
X151146000Y-80548500D01*
X156474000Y-80548500D02*
X154850000Y-80548500D01*
X152770000Y-80508500D02*
X151120000Y-80508500D01*
X156500000Y-80508500D02*
X154850000Y-80508500D01*
X152770000Y-80468500D02*
X151094000Y-80468500D01*
X156526000Y-80468500D02*
X154850000Y-80468500D01*
X152770000Y-80428500D02*
X151068000Y-80428500D01*
X156552000Y-80428500D02*
X154850000Y-80428500D01*
X152770000Y-80388500D02*
X151044000Y-80388500D01*
X156576000Y-80388500D02*
X154850000Y-80388500D01*
X152770000Y-80348500D02*
X151020000Y-80348500D01*
X156600000Y-80348500D02*
X154850000Y-80348500D01*
X152770000Y-80308500D02*
X150998000Y-80308500D01*
X156622000Y-80308500D02*
X154850000Y-80308500D01*
X152770000Y-80268500D02*
X150976000Y-80268500D01*
X156644000Y-80268500D02*
X154850000Y-80268500D01*
X152770000Y-80228500D02*
X150954000Y-80228500D01*
X156666000Y-80228500D02*
X154850000Y-80228500D01*
X152770000Y-80188500D02*
X150934000Y-80188500D01*
X156686000Y-80188500D02*
X154850000Y-80188500D01*
X152770000Y-80148500D02*
X150914000Y-80148500D01*
X156706000Y-80148500D02*
X154850000Y-80148500D01*
X152770000Y-80108500D02*
X150894000Y-80108500D01*
X156726000Y-80108500D02*
X154850000Y-80108500D01*
X152770000Y-80068500D02*
X150876000Y-80068500D01*
X156744000Y-80068500D02*
X154850000Y-80068500D01*
X152770000Y-80028500D02*
X150858000Y-80028500D01*
X156762000Y-80028500D02*
X154850000Y-80028500D01*
X152770000Y-79988500D02*
X150840000Y-79988500D01*
X156780000Y-79988500D02*
X154850000Y-79988500D01*
X152770000Y-79948500D02*
X150824000Y-79948500D01*
X156796000Y-79948500D02*
X154850000Y-79948500D01*
X152770000Y-79908500D02*
X150808000Y-79908500D01*
X156812000Y-79908500D02*
X154850000Y-79908500D01*
X152770000Y-79868500D02*
X150792000Y-79868500D01*
X156828000Y-79868500D02*
X154850000Y-79868500D01*
X152770000Y-79828500D02*
X150777000Y-79828500D01*
X156843000Y-79828500D02*
X154850000Y-79828500D01*
X152770000Y-79788500D02*
X150763000Y-79788500D01*
X156857000Y-79788500D02*
X154850000Y-79788500D01*
X152770000Y-79748500D02*
X150749000Y-79748500D01*
X156871000Y-79748500D02*
X154850000Y-79748500D01*
X152770000Y-79708500D02*
X150736000Y-79708500D01*
X156884000Y-79708500D02*
X154850000Y-79708500D01*
X152770000Y-79668500D02*
X150724000Y-79668500D01*
X156896000Y-79668500D02*
X154850000Y-79668500D01*
X152770000Y-79628500D02*
X150712000Y-79628500D01*
X156908000Y-79628500D02*
X154850000Y-79628500D01*
X152770000Y-79588500D02*
X150700000Y-79588500D01*
X156920000Y-79588500D02*
X154850000Y-79588500D01*
X152770000Y-79548500D02*
X150689000Y-79548500D01*
X156931000Y-79548500D02*
X154850000Y-79548500D01*
X152770000Y-79508500D02*
X150679000Y-79508500D01*
X156941000Y-79508500D02*
X154850000Y-79508500D01*
X152770000Y-79468500D02*
X150669000Y-79468500D01*
X156951000Y-79468500D02*
X154850000Y-79468500D01*
X152770000Y-79428500D02*
X150660000Y-79428500D01*
X156960000Y-79428500D02*
X154850000Y-79428500D01*
X152770000Y-79387500D02*
X150651000Y-79387500D01*
X156969000Y-79387500D02*
X154850000Y-79387500D01*
X152770000Y-79347500D02*
X150643000Y-79347500D01*
X156977000Y-79347500D02*
X154850000Y-79347500D01*
X152770000Y-79307500D02*
X150635000Y-79307500D01*
X156985000Y-79307500D02*
X154850000Y-79307500D01*
X152770000Y-79267500D02*
X150628000Y-79267500D01*
X156992000Y-79267500D02*
X154850000Y-79267500D01*
X152770000Y-79227500D02*
X150621000Y-79227500D01*
X156999000Y-79227500D02*
X154850000Y-79227500D01*
X152770000Y-79187500D02*
X150615000Y-79187500D01*
X157005000Y-79187500D02*
X154850000Y-79187500D01*
X152770000Y-79147500D02*
X150609000Y-79147500D01*
X157011000Y-79147500D02*
X154850000Y-79147500D01*
X152770000Y-79107500D02*
X150604000Y-79107500D01*
X157016000Y-79107500D02*
X154850000Y-79107500D01*
X152770000Y-79067500D02*
X150599000Y-79067500D01*
X157021000Y-79067500D02*
X154850000Y-79067500D01*
X152770000Y-79027500D02*
X150595000Y-79027500D01*
X157025000Y-79027500D02*
X154850000Y-79027500D01*
X152770000Y-78987500D02*
X150592000Y-78987500D01*
X157028000Y-78987500D02*
X154850000Y-78987500D01*
X152770000Y-78947500D02*
X150588000Y-78947500D01*
X157032000Y-78947500D02*
X154850000Y-78947500D01*
X157034000Y-78907500D02*
X150586000Y-78907500D01*
X157037000Y-78867500D02*
X150583000Y-78867500D01*
X157038000Y-78827500D02*
X150582000Y-78827500D01*
X157040000Y-78787500D02*
X150580000Y-78787500D01*
X157040000Y-78747500D02*
X150580000Y-78747500D01*
X157040000Y-78707500D02*
X150580000Y-78707500D01*
X157080000Y-78707500D02*
G75*
G03*
X157080000Y-78707500I-3270000J0D01*
G01*
%TO.C,C8*%
X148344000Y-75522259D02*
X147714000Y-75522259D01*
X148029000Y-75207259D02*
X148029000Y-75837259D01*
X146592000Y-81948500D02*
X145788000Y-81948500D01*
X146823000Y-81908500D02*
X145557000Y-81908500D01*
X146992000Y-81868500D02*
X145388000Y-81868500D01*
X147130000Y-81828500D02*
X145250000Y-81828500D01*
X147249000Y-81788500D02*
X145131000Y-81788500D01*
X147355000Y-81748500D02*
X145025000Y-81748500D01*
X147452000Y-81708500D02*
X144928000Y-81708500D01*
X147540000Y-81668500D02*
X144840000Y-81668500D01*
X147622000Y-81628500D02*
X144758000Y-81628500D01*
X147699000Y-81588500D02*
X144681000Y-81588500D01*
X147771000Y-81548500D02*
X144609000Y-81548500D01*
X147840000Y-81508500D02*
X144540000Y-81508500D01*
X147904000Y-81468500D02*
X144476000Y-81468500D01*
X147966000Y-81428500D02*
X144414000Y-81428500D01*
X148024000Y-81388500D02*
X144356000Y-81388500D01*
X148080000Y-81348500D02*
X144300000Y-81348500D01*
X148134000Y-81308500D02*
X144246000Y-81308500D01*
X148185000Y-81268500D02*
X144195000Y-81268500D01*
X148234000Y-81228500D02*
X144146000Y-81228500D01*
X148282000Y-81188500D02*
X144098000Y-81188500D01*
X148327000Y-81148500D02*
X144053000Y-81148500D01*
X148372000Y-81108500D02*
X144008000Y-81108500D01*
X148414000Y-81068500D02*
X143966000Y-81068500D01*
X148455000Y-81028500D02*
X143925000Y-81028500D01*
X145150000Y-80988500D02*
X143885000Y-80988500D01*
X148495000Y-80988500D02*
X147230000Y-80988500D01*
X145150000Y-80948500D02*
X143847000Y-80948500D01*
X148533000Y-80948500D02*
X147230000Y-80948500D01*
X145150000Y-80908500D02*
X143810000Y-80908500D01*
X148570000Y-80908500D02*
X147230000Y-80908500D01*
X145150000Y-80868500D02*
X143774000Y-80868500D01*
X148606000Y-80868500D02*
X147230000Y-80868500D01*
X145150000Y-80828500D02*
X143740000Y-80828500D01*
X148640000Y-80828500D02*
X147230000Y-80828500D01*
X145150000Y-80788500D02*
X143706000Y-80788500D01*
X148674000Y-80788500D02*
X147230000Y-80788500D01*
X145150000Y-80748500D02*
X143674000Y-80748500D01*
X148706000Y-80748500D02*
X147230000Y-80748500D01*
X145150000Y-80708500D02*
X143642000Y-80708500D01*
X148738000Y-80708500D02*
X147230000Y-80708500D01*
X145150000Y-80668500D02*
X143612000Y-80668500D01*
X148768000Y-80668500D02*
X147230000Y-80668500D01*
X145150000Y-80628500D02*
X143583000Y-80628500D01*
X148797000Y-80628500D02*
X147230000Y-80628500D01*
X145150000Y-80588500D02*
X143554000Y-80588500D01*
X148826000Y-80588500D02*
X147230000Y-80588500D01*
X145150000Y-80548500D02*
X143526000Y-80548500D01*
X148854000Y-80548500D02*
X147230000Y-80548500D01*
X145150000Y-80508500D02*
X143500000Y-80508500D01*
X148880000Y-80508500D02*
X147230000Y-80508500D01*
X145150000Y-80468500D02*
X143474000Y-80468500D01*
X148906000Y-80468500D02*
X147230000Y-80468500D01*
X145150000Y-80428500D02*
X143448000Y-80428500D01*
X148932000Y-80428500D02*
X147230000Y-80428500D01*
X145150000Y-80388500D02*
X143424000Y-80388500D01*
X148956000Y-80388500D02*
X147230000Y-80388500D01*
X145150000Y-80348500D02*
X143400000Y-80348500D01*
X148980000Y-80348500D02*
X147230000Y-80348500D01*
X145150000Y-80308500D02*
X143378000Y-80308500D01*
X149002000Y-80308500D02*
X147230000Y-80308500D01*
X145150000Y-80268500D02*
X143356000Y-80268500D01*
X149024000Y-80268500D02*
X147230000Y-80268500D01*
X145150000Y-80228500D02*
X143334000Y-80228500D01*
X149046000Y-80228500D02*
X147230000Y-80228500D01*
X145150000Y-80188500D02*
X143314000Y-80188500D01*
X149066000Y-80188500D02*
X147230000Y-80188500D01*
X145150000Y-80148500D02*
X143294000Y-80148500D01*
X149086000Y-80148500D02*
X147230000Y-80148500D01*
X145150000Y-80108500D02*
X143274000Y-80108500D01*
X149106000Y-80108500D02*
X147230000Y-80108500D01*
X145150000Y-80068500D02*
X143256000Y-80068500D01*
X149124000Y-80068500D02*
X147230000Y-80068500D01*
X145150000Y-80028500D02*
X143238000Y-80028500D01*
X149142000Y-80028500D02*
X147230000Y-80028500D01*
X145150000Y-79988500D02*
X143220000Y-79988500D01*
X149160000Y-79988500D02*
X147230000Y-79988500D01*
X145150000Y-79948500D02*
X143204000Y-79948500D01*
X149176000Y-79948500D02*
X147230000Y-79948500D01*
X145150000Y-79908500D02*
X143188000Y-79908500D01*
X149192000Y-79908500D02*
X147230000Y-79908500D01*
X145150000Y-79868500D02*
X143172000Y-79868500D01*
X149208000Y-79868500D02*
X147230000Y-79868500D01*
X145150000Y-79828500D02*
X143157000Y-79828500D01*
X149223000Y-79828500D02*
X147230000Y-79828500D01*
X145150000Y-79788500D02*
X143143000Y-79788500D01*
X149237000Y-79788500D02*
X147230000Y-79788500D01*
X145150000Y-79748500D02*
X143129000Y-79748500D01*
X149251000Y-79748500D02*
X147230000Y-79748500D01*
X145150000Y-79708500D02*
X143116000Y-79708500D01*
X149264000Y-79708500D02*
X147230000Y-79708500D01*
X145150000Y-79668500D02*
X143104000Y-79668500D01*
X149276000Y-79668500D02*
X147230000Y-79668500D01*
X145150000Y-79628500D02*
X143092000Y-79628500D01*
X149288000Y-79628500D02*
X147230000Y-79628500D01*
X145150000Y-79588500D02*
X143080000Y-79588500D01*
X149300000Y-79588500D02*
X147230000Y-79588500D01*
X145150000Y-79548500D02*
X143069000Y-79548500D01*
X149311000Y-79548500D02*
X147230000Y-79548500D01*
X145150000Y-79508500D02*
X143059000Y-79508500D01*
X149321000Y-79508500D02*
X147230000Y-79508500D01*
X145150000Y-79468500D02*
X143049000Y-79468500D01*
X149331000Y-79468500D02*
X147230000Y-79468500D01*
X145150000Y-79428500D02*
X143040000Y-79428500D01*
X149340000Y-79428500D02*
X147230000Y-79428500D01*
X145150000Y-79387500D02*
X143031000Y-79387500D01*
X149349000Y-79387500D02*
X147230000Y-79387500D01*
X145150000Y-79347500D02*
X143023000Y-79347500D01*
X149357000Y-79347500D02*
X147230000Y-79347500D01*
X145150000Y-79307500D02*
X143015000Y-79307500D01*
X149365000Y-79307500D02*
X147230000Y-79307500D01*
X145150000Y-79267500D02*
X143008000Y-79267500D01*
X149372000Y-79267500D02*
X147230000Y-79267500D01*
X145150000Y-79227500D02*
X143001000Y-79227500D01*
X149379000Y-79227500D02*
X147230000Y-79227500D01*
X145150000Y-79187500D02*
X142995000Y-79187500D01*
X149385000Y-79187500D02*
X147230000Y-79187500D01*
X145150000Y-79147500D02*
X142989000Y-79147500D01*
X149391000Y-79147500D02*
X147230000Y-79147500D01*
X145150000Y-79107500D02*
X142984000Y-79107500D01*
X149396000Y-79107500D02*
X147230000Y-79107500D01*
X145150000Y-79067500D02*
X142979000Y-79067500D01*
X149401000Y-79067500D02*
X147230000Y-79067500D01*
X145150000Y-79027500D02*
X142975000Y-79027500D01*
X149405000Y-79027500D02*
X147230000Y-79027500D01*
X145150000Y-78987500D02*
X142972000Y-78987500D01*
X149408000Y-78987500D02*
X147230000Y-78987500D01*
X145150000Y-78947500D02*
X142968000Y-78947500D01*
X149412000Y-78947500D02*
X147230000Y-78947500D01*
X149414000Y-78907500D02*
X142966000Y-78907500D01*
X149417000Y-78867500D02*
X142963000Y-78867500D01*
X149418000Y-78827500D02*
X142962000Y-78827500D01*
X149420000Y-78787500D02*
X142960000Y-78787500D01*
X149420000Y-78747500D02*
X142960000Y-78747500D01*
X149420000Y-78707500D02*
X142960000Y-78707500D01*
X149460000Y-78707500D02*
G75*
G03*
X149460000Y-78707500I-3270000J0D01*
G01*
%TO.C,C20*%
X135658752Y-89740000D02*
X135136248Y-89740000D01*
X135658752Y-91210000D02*
X135136248Y-91210000D01*
%TO.C,C19*%
X135656252Y-87517500D02*
X135133748Y-87517500D01*
X135656252Y-88987500D02*
X135133748Y-88987500D01*
%TO.C,C16*%
X139468752Y-89740000D02*
X138946248Y-89740000D01*
X139468752Y-91210000D02*
X138946248Y-91210000D01*
%TO.C,C15*%
X139466252Y-87517500D02*
X138943748Y-87517500D01*
X139466252Y-88987500D02*
X138943748Y-88987500D01*
%TO.C,C7*%
X161058752Y-89740000D02*
X160536248Y-89740000D01*
X161058752Y-91210000D02*
X160536248Y-91210000D01*
%TO.C,C6*%
X161058752Y-87517500D02*
X160536248Y-87517500D01*
X161058752Y-88987500D02*
X160536248Y-88987500D01*
%TO.C,C3*%
X164863752Y-87517500D02*
X164341248Y-87517500D01*
X164863752Y-88987500D02*
X164341248Y-88987500D01*
%TO.C,C2*%
X164866252Y-89740000D02*
X164343748Y-89740000D01*
X164866252Y-91210000D02*
X164343748Y-91210000D01*
%TO.C,C1*%
X157361248Y-98830000D02*
X157883752Y-98830000D01*
X157361248Y-97360000D02*
X157883752Y-97360000D01*
%TO.C,K2*%
X159832500Y-99807500D02*
X159822500Y-93147500D01*
X159822500Y-93147500D02*
X160322500Y-93147500D01*
X161922500Y-93147500D02*
X163322500Y-93147500D01*
X164922500Y-93147500D02*
X165722500Y-93147500D01*
X167322500Y-93147500D02*
X167922500Y-93147500D01*
X169522500Y-93147500D02*
X170022500Y-93147500D01*
X170022500Y-93147500D02*
X170022500Y-99847500D01*
X170022500Y-99847500D02*
X169522500Y-99847500D01*
X167922500Y-99847500D02*
X167322500Y-99847500D01*
X165722500Y-99847500D02*
X164922500Y-99847500D01*
X163232500Y-99807500D02*
X161832500Y-99807500D01*
X159832500Y-99807500D02*
X160332500Y-99807500D01*
X160332500Y-99807500D02*
X160332500Y-100407500D01*
X161832500Y-99807500D02*
X161832500Y-100407500D01*
%TO.C,J4*%
X125380000Y-125120000D02*
X125380000Y-118530000D01*
X150620000Y-125120000D02*
X150620000Y-118530000D01*
X147220000Y-118530000D02*
X150620000Y-118530000D01*
X125380000Y-118530000D02*
X128780000Y-118530000D01*
X149120000Y-125120000D02*
X149120000Y-127820000D01*
X126880000Y-125120000D02*
X126880000Y-127820000D01*
X126880000Y-125120000D02*
X125380000Y-125120000D01*
X150620000Y-125120000D02*
X149120000Y-125120000D01*
X149120000Y-127820000D02*
X126880000Y-127820000D01*
X137300000Y-105680000D02*
X135400000Y-105680000D01*
X138700000Y-105680000D02*
X140600000Y-105680000D01*
X128780000Y-118530000D02*
X128780000Y-112880000D01*
X133000000Y-105680000D02*
X131580000Y-105680000D01*
X131580000Y-112880000D02*
X128780000Y-112880000D01*
X144420000Y-112880000D02*
X147220000Y-112880000D01*
X147220000Y-118530000D02*
X147220000Y-112880000D01*
X144420000Y-105680000D02*
X143000000Y-105680000D01*
X131580000Y-112880000D02*
X131580000Y-105680000D01*
X144420000Y-112880000D02*
X144420000Y-105680000D01*
%TO.C,R34*%
X162462742Y-104650000D02*
X162937258Y-104650000D01*
X162462742Y-103605000D02*
X162937258Y-103605000D01*
%TO.C,R33*%
X158460000Y-89442258D02*
X158460000Y-88967742D01*
X157415000Y-89442258D02*
X157415000Y-88967742D01*
%TO.C,R30*%
X162462742Y-103062500D02*
X162937258Y-103062500D01*
X162462742Y-102017500D02*
X162937258Y-102017500D01*
%TO.C,R29*%
X143252258Y-84237500D02*
X142777742Y-84237500D01*
X143252258Y-85282500D02*
X142777742Y-85282500D01*
%TO.C,R26*%
X166112258Y-102017500D02*
X165637742Y-102017500D01*
X166112258Y-103062500D02*
X165637742Y-103062500D01*
%TO.C,R24*%
X139727500Y-80552258D02*
X139727500Y-80077742D01*
X138682500Y-80552258D02*
X138682500Y-80077742D01*
%TO.C,R23*%
X166112258Y-103605000D02*
X165637742Y-103605000D01*
X166112258Y-104650000D02*
X165637742Y-104650000D01*
%TO.C,R21*%
X145442500Y-103412258D02*
X145442500Y-102937742D01*
X144397500Y-103412258D02*
X144397500Y-102937742D01*
%TO.C,R20*%
X154364758Y-103287500D02*
X153890242Y-103287500D01*
X154364758Y-104332500D02*
X153890242Y-104332500D01*
%TO.C,R19*%
X150554758Y-99477500D02*
X150080242Y-99477500D01*
X150554758Y-100522500D02*
X150080242Y-100522500D01*
%TO.C,R18*%
X145442500Y-100237258D02*
X145442500Y-99762742D01*
X144397500Y-100237258D02*
X144397500Y-99762742D01*
%TO.C,R17*%
X144397500Y-93412742D02*
X144397500Y-93887258D01*
X145442500Y-93412742D02*
X145442500Y-93887258D01*
%TO.C,R16*%
X137537258Y-103605000D02*
X137062742Y-103605000D01*
X137537258Y-104650000D02*
X137062742Y-104650000D01*
%TO.C,R13*%
X168845000Y-83887742D02*
X168845000Y-84362258D01*
X169890000Y-83887742D02*
X169890000Y-84362258D01*
%TO.C,R12*%
X137537258Y-102017500D02*
X137062742Y-102017500D01*
X137537258Y-103062500D02*
X137062742Y-103062500D01*
%TO.C,R11*%
X156747742Y-85282500D02*
X157222258Y-85282500D01*
X156747742Y-84237500D02*
X157222258Y-84237500D01*
%TO.C,R10*%
X170750000Y-83887742D02*
X170750000Y-84362258D01*
X171795000Y-83887742D02*
X171795000Y-84362258D01*
%TO.C,R9*%
X157222258Y-82332500D02*
X156747742Y-82332500D01*
X157222258Y-83377500D02*
X156747742Y-83377500D01*
%TO.C,R8*%
X133887742Y-103062500D02*
X134362258Y-103062500D01*
X133887742Y-102017500D02*
X134362258Y-102017500D01*
%TO.C,R7*%
X173700000Y-84362258D02*
X173700000Y-83887742D01*
X172655000Y-84362258D02*
X172655000Y-83887742D01*
%TO.C,R5*%
X133887742Y-104650000D02*
X134362258Y-104650000D01*
X133887742Y-103605000D02*
X134362258Y-103605000D01*
%TO.C,R4*%
X159412500Y-80552258D02*
X159412500Y-80077742D01*
X158367500Y-80552258D02*
X158367500Y-80077742D01*
%TO.C,R3*%
X157382742Y-100522500D02*
X157857258Y-100522500D01*
X157382742Y-99477500D02*
X157857258Y-99477500D01*
%TO.C,R2*%
X168495242Y-91315000D02*
X168969758Y-91315000D01*
X168495242Y-90270000D02*
X168969758Y-90270000D01*
%TO.C,R1*%
X154047258Y-97572500D02*
X153572742Y-97572500D01*
X154047258Y-98617500D02*
X153572742Y-98617500D01*
%TO.C,Q3*%
X151077500Y-104437500D02*
X149617500Y-104437500D01*
X151077500Y-101277500D02*
X148917500Y-101277500D01*
X151077500Y-101277500D02*
X151077500Y-102207500D01*
X151077500Y-104437500D02*
X151077500Y-103507500D01*
%TO.C,Q2*%
X155707500Y-100192500D02*
X155707500Y-101652500D01*
X152547500Y-100192500D02*
X152547500Y-102352500D01*
X152547500Y-100192500D02*
X153477500Y-100192500D01*
X155707500Y-100192500D02*
X154777500Y-100192500D01*
%TO.C,Q1*%
X155390000Y-94477500D02*
X155390000Y-95937500D01*
X152230000Y-94477500D02*
X152230000Y-96637500D01*
X152230000Y-94477500D02*
X153160000Y-94477500D01*
X155390000Y-94477500D02*
X154460000Y-94477500D01*
%TO.C,L1*%
X157220378Y-96432500D02*
X158019622Y-96432500D01*
X157220378Y-95312500D02*
X158019622Y-95312500D01*
%TO.C,K1*%
X140167500Y-93207500D02*
X140177500Y-99867500D01*
X140177500Y-99867500D02*
X139677500Y-99867500D01*
X138077500Y-99867500D02*
X136677500Y-99867500D01*
X135077500Y-99867500D02*
X134277500Y-99867500D01*
X132677500Y-99867500D02*
X132077500Y-99867500D01*
X130477500Y-99867500D02*
X129977500Y-99867500D01*
X129977500Y-99867500D02*
X129977500Y-93167500D01*
X129977500Y-93167500D02*
X130477500Y-93167500D01*
X132077500Y-93167500D02*
X132677500Y-93167500D01*
X134277500Y-93167500D02*
X135077500Y-93167500D01*
X136767500Y-93207500D02*
X138167500Y-93207500D01*
X140167500Y-93207500D02*
X139667500Y-93207500D01*
X139667500Y-93207500D02*
X139667500Y-92607500D01*
X138167500Y-93207500D02*
X138167500Y-92607500D01*
%TO.C,JP10*%
X158302500Y-102475000D02*
X158302500Y-103875000D01*
X157602500Y-104575000D02*
X157002500Y-104575000D01*
X156302500Y-103875000D02*
X156302500Y-102475000D01*
X157002500Y-101775000D02*
X157602500Y-101775000D01*
X157602500Y-101775000D02*
G75*
G02*
X158302500Y-102475000I0J-700000D01*
G01*
X156302500Y-102475000D02*
G75*
G02*
X157002500Y-101775000I700000J0D01*
G01*
X157002500Y-104575000D02*
G75*
G02*
X156302500Y-103875000I0J700000D01*
G01*
X158302500Y-103875000D02*
G75*
G02*
X157602500Y-104575000I-700000J0D01*
G01*
%TO.C,JP9*%
X160842500Y-102475000D02*
X160842500Y-103875000D01*
X160142500Y-104575000D02*
X159542500Y-104575000D01*
X158842500Y-103875000D02*
X158842500Y-102475000D01*
X159542500Y-101775000D02*
X160142500Y-101775000D01*
X160142500Y-101775000D02*
G75*
G02*
X160842500Y-102475000I0J-700000D01*
G01*
X158842500Y-102475000D02*
G75*
G02*
X159542500Y-101775000I700000J0D01*
G01*
X159542500Y-104575000D02*
G75*
G02*
X158842500Y-103875000I0J700000D01*
G01*
X160842500Y-103875000D02*
G75*
G02*
X160142500Y-104575000I-700000J0D01*
G01*
%TO.C,JP8*%
X140840000Y-83107500D02*
X140840000Y-84507500D01*
X140140000Y-85207500D02*
X139540000Y-85207500D01*
X138840000Y-84507500D02*
X138840000Y-83107500D01*
X139540000Y-82407500D02*
X140140000Y-82407500D01*
X140140000Y-82407500D02*
G75*
G02*
X140840000Y-83107500I0J-700000D01*
G01*
X138840000Y-83107500D02*
G75*
G02*
X139540000Y-82407500I700000J0D01*
G01*
X139540000Y-85207500D02*
G75*
G02*
X138840000Y-84507500I0J700000D01*
G01*
X140840000Y-84507500D02*
G75*
G02*
X140140000Y-85207500I-700000J0D01*
G01*
%TO.C,JP7*%
X169732500Y-102460000D02*
X169732500Y-103860000D01*
X169032500Y-104560000D02*
X168432500Y-104560000D01*
X167732500Y-103860000D02*
X167732500Y-102460000D01*
X168432500Y-101760000D02*
X169032500Y-101760000D01*
X169032500Y-101760000D02*
G75*
G02*
X169732500Y-102460000I0J-700000D01*
G01*
X167732500Y-102460000D02*
G75*
G02*
X168432500Y-101760000I700000J0D01*
G01*
X168432500Y-104560000D02*
G75*
G02*
X167732500Y-103860000I0J700000D01*
G01*
X169732500Y-103860000D02*
G75*
G02*
X169032500Y-104560000I-700000J0D01*
G01*
%TO.C,JP6*%
X139457500Y-76140000D02*
X140857500Y-76140000D01*
X141557500Y-76840000D02*
X141557500Y-77440000D01*
X140857500Y-78140000D02*
X139457500Y-78140000D01*
X138757500Y-77440000D02*
X138757500Y-76840000D01*
X138757500Y-76840000D02*
G75*
G02*
X139457500Y-76140000I700000J0D01*
G01*
X139457500Y-78140000D02*
G75*
G02*
X138757500Y-77440000I0J700000D01*
G01*
X141557500Y-77440000D02*
G75*
G02*
X140857500Y-78140000I-700000J0D01*
G01*
X140857500Y-76140000D02*
G75*
G02*
X141557500Y-76840000I0J-700000D01*
G01*
%TO.C,JP5*%
X143697500Y-102475000D02*
X143697500Y-103875000D01*
X142997500Y-104575000D02*
X142397500Y-104575000D01*
X141697500Y-103875000D02*
X141697500Y-102475000D01*
X142397500Y-101775000D02*
X142997500Y-101775000D01*
X142997500Y-101775000D02*
G75*
G02*
X143697500Y-102475000I0J-700000D01*
G01*
X141697500Y-102475000D02*
G75*
G02*
X142397500Y-101775000I700000J0D01*
G01*
X142397500Y-104575000D02*
G75*
G02*
X141697500Y-103875000I0J700000D01*
G01*
X143697500Y-103875000D02*
G75*
G02*
X142997500Y-104575000I-700000J0D01*
G01*
%TO.C,JP4*%
X141157500Y-102475000D02*
X141157500Y-103875000D01*
X140457500Y-104575000D02*
X139857500Y-104575000D01*
X139157500Y-103875000D02*
X139157500Y-102475000D01*
X139857500Y-101775000D02*
X140457500Y-101775000D01*
X140457500Y-101775000D02*
G75*
G02*
X141157500Y-102475000I0J-700000D01*
G01*
X139157500Y-102475000D02*
G75*
G02*
X139857500Y-101775000I700000J0D01*
G01*
X139857500Y-104575000D02*
G75*
G02*
X139157500Y-103875000I0J700000D01*
G01*
X141157500Y-103875000D02*
G75*
G02*
X140457500Y-104575000I-700000J0D01*
G01*
%TO.C,JP2*%
X132267500Y-102475000D02*
X132267500Y-103875000D01*
X131567500Y-104575000D02*
X130967500Y-104575000D01*
X130267500Y-103875000D02*
X130267500Y-102475000D01*
X130967500Y-101775000D02*
X131567500Y-101775000D01*
X131567500Y-101775000D02*
G75*
G02*
X132267500Y-102475000I0J-700000D01*
G01*
X130267500Y-102475000D02*
G75*
G02*
X130967500Y-101775000I700000J0D01*
G01*
X130967500Y-104575000D02*
G75*
G02*
X130267500Y-103875000I0J700000D01*
G01*
X132267500Y-103875000D02*
G75*
G02*
X131567500Y-104575000I-700000J0D01*
G01*
%TO.C,JP1*%
X160542500Y-78140000D02*
X159142500Y-78140000D01*
X158442500Y-77440000D02*
X158442500Y-76840000D01*
X159142500Y-76140000D02*
X160542500Y-76140000D01*
X161242500Y-76840000D02*
X161242500Y-77440000D01*
X161242500Y-77440000D02*
G75*
G02*
X160542500Y-78140000I-700000J0D01*
G01*
X160542500Y-76140000D02*
G75*
G02*
X161242500Y-76840000I0J-700000D01*
G01*
X158442500Y-76840000D02*
G75*
G02*
X159142500Y-76140000I700000J0D01*
G01*
X159142500Y-78140000D02*
G75*
G02*
X158442500Y-77440000I0J700000D01*
G01*
%TO.C,D4*%
X146142500Y-99417500D02*
X146142500Y-103717500D01*
X148142500Y-99417500D02*
X146142500Y-99417500D01*
X148142500Y-103717500D02*
X148142500Y-99417500D01*
%TO.C,D3*%
X146162500Y-96777500D02*
X150062500Y-96777500D01*
X146162500Y-98777500D02*
X150062500Y-98777500D01*
X146162500Y-96777500D02*
X146162500Y-98777500D01*
%TO.C,D2*%
X145655000Y-98310000D02*
X145655000Y-96025000D01*
X144185000Y-98310000D02*
X145655000Y-98310000D01*
X144185000Y-96025000D02*
X144185000Y-98310000D01*
%TO.C,D1*%
X151280000Y-94237500D02*
X146980000Y-94237500D01*
X151280000Y-96237500D02*
X151280000Y-94237500D01*
X146980000Y-96237500D02*
X151280000Y-96237500D01*
%TO.C,C9*%
X163615580Y-75995000D02*
X163334420Y-75995000D01*
X163615580Y-77015000D02*
X163334420Y-77015000D01*
%TD*%
M02*
