M48
; DRILL file {KiCad (5.1.9-0-10_14)} date Sunday, March 07, 2021 at 04:31:50 PM
; FORMAT={-:-/ absolute / inch / decimal}
; #@! TF.CreationDate,2021-03-07T16:31:50+01:00
; #@! TF.GenerationSoftware,Kicad,Pcbnew,(5.1.9-0-10_14)
FMAT,2
INCH
T1C0.0118
T2C0.0315
T3C0.0394
T4C0.0472
T5C0.0630
T6C0.1260
T7C0.0454
T8C0.0630
%
G90
G05
T1
X5.0305Y-3.5495
X5.0805Y-3.3745
X5.1805Y-3.512
X5.218Y-3.012
X5.218Y-3.4495
X5.218Y-3.5745
X5.218Y-3.662
X5.2931Y-3.3996
X5.3055Y-3.362
X5.343Y-4.0745
X5.3555Y-3.012
X5.4055Y-3.4745
X5.4055Y-3.562
X5.4424Y-3.3867
X5.468Y-3.3995
X5.5555Y-3.4745
X5.5555Y-3.562
X5.578Y-3.517
X5.5805Y-3.3745
X5.618Y-4.1245
X5.668Y-3.8995
X5.7055Y-4.1245
X5.7305Y-3.237
X5.768Y-3.6495
X5.7805Y-3.2745
X5.793Y-4.1245
X5.818Y-3.8495
X5.893Y-3.6495
X5.9055Y-3.2745
X5.9179Y-4.0869
X5.918Y-3.3495
X6.043Y-3.2745
X6.043Y-3.3495
X6.0805Y-3.237
X6.1305Y-3.8245
X6.1305Y-4.087
X6.1411Y-4.0139
X6.193Y-4.1245
X6.218Y-3.4495
X6.218Y-3.5745
X6.268Y-3.617
X6.2714Y-3.6529
X6.293Y-3.3995
X6.368Y-3.012
X6.4055Y-3.4745
X6.4055Y-3.562
X6.4305Y-3.6244
X6.4305Y-3.662
X6.443Y-3.362
X6.443Y-3.3995
X6.4805Y-4.137
X6.5055Y-3.012
X6.5555Y-3.4745
X6.5555Y-3.562
X6.593Y-3.387
X6.6055Y-3.6495
X6.7055Y-3.837
X6.7087Y-3.6402
X6.743Y-3.3745
T2
X5.7555Y-3.0495
X5.7555Y-3.1479
X6.0555Y-3.0495
X6.0555Y-3.1479
T3
X5.0079Y-3.7402
X5.0079Y-3.8402
X5.0079Y-3.9402
X5.0079Y-4.0402
X5.0079Y-4.1402
X5.0079Y-4.2402
X5.0079Y-4.3402
X5.0079Y-4.4402
X5.8055Y-4.212
X5.9055Y-4.212
X6.0055Y-4.212
X6.7937Y-3.5402
X6.7937Y-3.6402
X6.7937Y-3.7402
X6.7937Y-3.8402
X6.7937Y-3.9402
X6.7937Y-4.0402
X6.7937Y-4.1402
X6.7937Y-4.2402
X6.7937Y-4.3402
X6.7937Y-4.4402
T4
X5.4331Y-4.2213
X5.4331Y-4.4213
X6.378Y-4.2213
X6.378Y-4.4213
T5
X5.2831Y-4.2213
X5.5831Y-4.2213
X6.228Y-4.2213
X6.528Y-4.2213
T6
X5.0787Y-3.1102
X5.0787Y-4.7638
X6.7323Y-3.1102
X6.7323Y-4.7638
T7
X5.0Y-4.5669
X5.9055Y-3.0709
X6.811Y-4.5669
T8
X5.2831Y-4.5713
X5.5831Y-4.7713
X6.228Y-4.5713
X6.528Y-4.7713
T0
M30
